<svg width="223" height="186" viewBox="0 0 223 186" fill="none" xmlns="http://www.w3.org/2000/svg">
<g clip-path="url(#clip0_11_218)">
<path d="M154.45 173.813L162.087 179.134L154.558 176.954C154.616 177.699 154.695 178.432 154.801 179.15C154.83 179.349 154.861 179.545 154.896 179.74C155.153 181.388 155.619 182.977 156.278 184.455C156.404 184.727 156.531 184.992 156.663 185.248C156.789 185.507 156.921 185.757 157.055 186H177.297C177.466 185.757 177.627 185.504 177.774 185.248C179.217 182.81 179.802 179.788 179.401 176.837C179.328 176.236 179.222 175.642 179.085 175.058C178.953 174.461 178.792 173.873 178.604 173.298C178.275 172.281 177.887 171.294 177.442 170.343C176.515 168.34 175.07 166.533 173.366 164.927C172.541 164.155 171.681 163.438 170.79 162.779C170.622 162.649 170.451 162.523 170.277 162.4C170.011 162.21 169.745 162.024 169.476 161.844C168.942 161.477 168.402 161.129 167.862 160.801C167.72 160.712 167.58 160.627 167.441 160.545C166.269 159.843 165.102 159.215 163.991 158.662C163.852 158.592 163.709 158.523 163.57 158.456C161.359 157.371 159.098 156.442 156.797 155.672C156.797 155.672 156.789 155.698 156.776 155.751C156.741 155.897 156.655 156.248 156.536 156.766C156.207 158.203 155.628 160.946 155.161 164.258C155.135 164.438 155.111 164.621 155.085 164.804C154.696 167.605 154.48 170.437 154.44 173.276C154.437 173.453 154.437 173.626 154.437 173.803L154.45 173.813Z" fill="#F2F2F2"/>
<path d="M156.238 155.35C156.241 155.36 156.268 155.514 156.328 155.799C156.378 156.036 156.447 156.361 156.536 156.766C156.844 158.178 157.392 160.545 158.171 163.395C158.216 163.559 158.264 163.73 158.311 163.901C158.853 165.85 159.499 168.005 160.244 170.22C160.431 170.776 160.618 171.323 160.81 171.857C160.868 172.024 160.926 172.189 160.986 172.35C161.803 174.618 162.643 176.694 163.507 178.578L163.725 179.048C164.729 181.233 165.891 183.308 167.198 185.248C167.375 185.507 167.554 185.757 167.736 186H168.347C168.162 185.757 167.978 185.504 167.799 185.248C166.417 183.241 165.194 181.083 164.146 178.802C164.073 178.647 163.999 178.492 163.928 178.334C162.998 176.309 162.153 174.192 161.397 172.094C161.337 171.933 161.279 171.768 161.221 171.601C160.233 168.827 159.404 166.1 158.735 163.698C158.688 163.528 158.64 163.357 158.595 163.19C157.621 159.644 157.01 156.864 156.776 155.751C156.744 155.587 156.718 155.458 156.699 155.369C156.681 155.287 156.673 155.24 156.67 155.23L156.457 155.29H156.454L156.238 155.35Z" fill="white"/>
<path d="M154.688 164.842C154.819 164.833 154.953 164.82 155.085 164.804C156.189 164.678 157.274 164.374 158.311 163.901C158.453 163.837 158.595 163.768 158.735 163.698C159.146 163.488 159.548 163.252 159.938 162.991C161.541 161.927 162.925 160.448 163.991 158.662C164.025 158.608 164.057 158.554 164.088 158.5C163.946 158.431 163.807 158.361 163.67 158.292C163.638 158.346 163.604 158.403 163.57 158.456C162.548 160.131 161.236 161.518 159.722 162.523C159.357 162.768 158.98 162.991 158.595 163.19C158.453 163.262 158.311 163.329 158.171 163.395C157.204 163.839 156.192 164.129 155.161 164.258C155.027 164.273 154.893 164.289 154.759 164.299C154.735 164.476 154.711 164.656 154.688 164.842Z" fill="white"/>
<path d="M154.092 173.231C154.092 173.412 154.095 173.588 154.095 173.769C154.213 173.784 154.332 173.8 154.45 173.813C156.699 174.049 158.96 173.543 160.986 172.35C161.123 172.268 161.26 172.182 161.397 172.094C161.453 172.062 161.508 172.024 161.56 171.99C163.27 170.85 164.731 169.244 165.826 167.3C166.921 165.355 167.619 163.129 167.862 160.801C167.87 160.747 167.875 160.697 167.88 160.643C167.741 160.554 167.599 160.469 167.457 160.381C167.451 160.434 167.446 160.491 167.441 160.545C167.227 162.825 166.562 165.011 165.502 166.92C164.441 168.829 163.016 170.407 161.345 171.522C161.305 171.551 161.263 171.578 161.221 171.601C161.086 171.693 160.95 171.778 160.81 171.857C158.836 173.025 156.632 173.516 154.44 173.276C154.324 173.263 154.208 173.247 154.092 173.231Z" fill="white"/>
<path d="M154.498 179.026C154.529 179.229 154.564 179.431 154.603 179.633C154.701 179.671 154.798 179.709 154.896 179.74C157.81 180.818 160.952 180.572 163.725 179.049C163.865 178.97 164.007 178.887 164.146 178.802C164.294 178.714 164.441 178.619 164.589 178.521C166.478 177.261 168.062 175.431 169.183 173.213C170.304 170.996 170.924 168.465 170.983 165.872C171.009 164.836 170.945 163.799 170.79 162.779C170.785 162.731 170.777 162.687 170.769 162.64C170.598 162.507 170.424 162.378 170.25 162.248C170.261 162.299 170.269 162.349 170.277 162.4C170.413 163.144 170.497 163.901 170.53 164.662C170.652 167.363 170.14 170.051 169.051 172.419C167.962 174.787 166.34 176.741 164.37 178.056C164.225 178.151 164.078 178.246 163.928 178.334C163.788 178.42 163.649 178.502 163.507 178.578C163.052 178.826 162.585 179.039 162.108 179.216C159.726 180.106 157.171 180.083 154.801 179.15C154.698 179.112 154.598 179.071 154.498 179.026Z" fill="white"/>
<path d="M171.11 90.9443H185.857V73.2495H171.11V90.9443Z" fill="#FFB8B8"/>
<path d="M195.054 179.005L192.148 179.005L190.766 165.558L195.054 165.558L195.054 179.005Z" fill="#FFB8B8"/>
<path d="M186.547 184.151C186.548 184.542 186.679 184.916 186.909 185.192C187.139 185.468 187.451 185.623 187.777 185.624H193.244L193.352 185.355L194.186 183.289L194.513 185.355L194.555 185.624H196.617L196.599 185.355L196.038 177.285L195.053 177.216L191.94 176.991L191.445 176.956V179.317L187.079 182.935C186.915 183.071 186.781 183.252 186.688 183.464C186.595 183.676 186.547 183.912 186.547 184.151Z" fill="#2F2E41"/>
<path d="M178.062 176.792L175.269 177.755L170.843 165.291L174.964 163.868L178.062 176.792Z" fill="#FFB8B8"/>
<path d="M171.071 184.559C171.163 184.934 171.374 185.25 171.659 185.439C171.944 185.627 172.28 185.673 172.593 185.567L173.207 185.355L176.601 184.183L177.849 183.753L178.215 181.197L179.108 183.32L181.088 182.635L178.61 174.814L177.649 175.073L177.304 175.165L174.605 175.892L174.12 176.021L174.665 178.29L171.303 183.216C171.177 183.401 171.09 183.619 171.049 183.853C171.009 184.087 171.016 184.329 171.071 184.559Z" fill="#2F2E41"/>
<path d="M161.107 144.325C160.861 143.547 160.77 142.71 160.842 141.883C160.914 141.055 161.146 140.259 161.52 139.558L168.214 97.8957L170.847 82.0969H186.647C186.647 82.0969 196.522 95.2099 194.416 111.957L195.005 135.541C195.565 137.159 195.703 138.942 195.401 140.656L195.166 141.99L195.257 142.191C195.688 143.148 195.92 144.216 195.932 145.304C195.944 146.392 195.737 147.467 195.328 148.438L195.28 167.283L190.54 166.967L184.277 143.712L179.669 115.748L171.9 137.393L171.637 142.449L171.765 146.905L175.452 164.842L170.317 167.212L161.107 144.325Z" fill="#2F2E41"/>
<path d="M222.686 186H146.379C146.295 186 146.216 185.96 146.157 185.89C146.098 185.819 146.065 185.724 146.065 185.624C146.065 185.524 146.098 185.428 146.157 185.358C146.216 185.287 146.295 185.248 146.379 185.248H222.686C222.769 185.248 222.849 185.288 222.908 185.358C222.966 185.429 222.999 185.524 222.999 185.624C222.999 185.723 222.966 185.819 222.908 185.889C222.849 185.96 222.769 186 222.686 186Z" fill="#CCCCCC"/>
<path d="M142.331 32.0188C146.679 32.0188 150.204 27.7893 150.204 22.5719C150.204 17.3544 146.679 13.1249 142.331 13.1249C137.983 13.1249 134.458 17.3544 134.458 22.5719C134.458 27.7893 137.983 32.0188 142.331 32.0188Z" fill="#24A4CC"/>
<path d="M146.372 18.6347C146.254 18.4991 146.097 18.4235 145.933 18.4235C145.769 18.4235 145.612 18.4991 145.493 18.6347C143.823 20.2334 142.322 22.0724 141.026 24.1103C140.707 23.3713 140.389 22.6322 140.071 21.8932C139.703 21.0401 138.63 21.7937 138.997 22.646C139.463 23.727 139.929 24.808 140.394 25.889C140.625 26.4254 141.216 26.3159 141.468 25.889C142.849 23.5539 144.501 21.4665 146.372 19.6894C146.488 19.549 146.553 19.3595 146.553 19.162C146.553 18.9646 146.488 18.7751 146.372 18.6347Z" fill="white"/>
<path d="M149.647 29.2922C149.574 29.4604 149.488 29.6204 149.391 29.7702L162.756 41.5459L177.954 47.4638C178.911 47.8361 179.713 48.6295 180.201 49.6841C180.689 50.7387 180.825 51.976 180.583 53.1464C180.34 54.3169 179.736 55.3333 178.894 55.9908C178.051 56.6483 177.032 56.8979 176.042 56.6893C172.834 56.0133 169.733 54.7411 166.851 52.9186L157.339 46.9019L145.831 30.4564C145.411 30.1148 145.082 29.6348 144.884 29.0742C144.686 28.5137 144.628 27.8964 144.715 27.2968C144.803 26.6971 145.033 26.1406 145.378 25.6942C145.723 25.2478 146.168 24.9305 146.66 24.7804C147.151 24.6304 147.669 24.6541 148.15 24.8486C148.63 25.0431 149.054 25.4002 149.37 25.8769C149.685 26.3535 149.879 26.9295 149.929 27.5354C149.978 28.1413 149.88 28.7513 149.647 29.2922Z" fill="#FFB8B8"/>
<path d="M160.785 49.1612L163.709 41.4526L178.295 45.0089C179.023 45.4605 179.671 46.0798 180.2 46.8316C180.729 47.5834 181.13 48.4529 181.379 49.3905C181.628 50.3281 181.721 51.3154 181.652 52.296C181.583 53.2766 181.354 54.2313 180.978 55.1057C180.602 55.9801 180.085 56.757 179.459 57.392C178.832 58.027 178.108 58.5077 177.326 58.8067C175.748 59.4105 174.035 59.2374 172.563 58.3254L160.785 49.1612Z" fill="#2F2E41"/>
<path d="M175.769 9.25991H0.979055C0.719481 9.25957 0.470621 9.13568 0.287074 8.91545C0.103527 8.69521 0.000285082 8.3966 0 8.08513V1.17478C0.000285082 0.863311 0.103527 0.564702 0.287074 0.344463C0.470621 0.124223 0.719481 0.000342072 0.979055 0H175.769C176.029 0.000342072 176.278 0.124223 176.461 0.344463C176.645 0.564702 176.748 0.863311 176.748 1.17478V8.08515C176.748 8.39661 176.645 8.69521 176.461 8.91545C176.278 9.13569 176.029 9.25957 175.769 9.25991Z" fill="#E4E4E4"/>
<path d="M5.68189 5.96078C6.44957 5.96078 7.0719 5.21404 7.0719 4.29289C7.0719 3.37174 6.44957 2.625 5.68189 2.625C4.9142 2.625 4.29187 3.37174 4.29187 4.29289C4.29187 5.21404 4.9142 5.96078 5.68189 5.96078Z" fill="white"/>
<path d="M10.9579 5.96078C11.7256 5.96078 12.3479 5.21404 12.3479 4.29289C12.3479 3.37174 11.7256 2.625 10.9579 2.625C10.1902 2.625 9.5679 3.37174 9.5679 4.29289C9.5679 5.21404 10.1902 5.96078 10.9579 5.96078Z" fill="white"/>
<path d="M16.2342 5.96078C17.0019 5.96078 17.6242 5.21404 17.6242 4.29289C17.6242 3.37174 17.0019 2.625 16.2342 2.625C15.4665 2.625 14.8442 3.37174 14.8442 4.29289C14.8442 5.21404 15.4665 5.96078 16.2342 5.96078Z" fill="white"/>
<path d="M170.6 3.14489H164.524C164.405 3.14489 164.291 3.08799 164.206 2.98672C164.122 2.88545 164.074 2.7481 164.074 2.60489C164.074 2.46167 164.122 2.32431 164.206 2.22304C164.291 2.12177 164.405 2.06488 164.524 2.06488H170.6C170.719 2.06488 170.834 2.12177 170.918 2.22304C171.003 2.32431 171.05 2.46167 171.05 2.60489C171.05 2.7481 171.003 2.88545 170.918 2.98672C170.834 3.08799 170.719 3.14489 170.6 3.14489Z" fill="white"/>
<path d="M170.6 5.16992H164.524C164.405 5.16992 164.291 5.11302 164.206 5.01175C164.122 4.91048 164.074 4.77313 164.074 4.62991C164.074 4.48669 164.122 4.34934 164.206 4.24807C164.291 4.1468 164.405 4.0899 164.524 4.0899H170.6C170.719 4.0899 170.834 4.1468 170.918 4.24807C171.003 4.34934 171.05 4.48669 171.05 4.62991C171.05 4.77313 171.003 4.91048 170.918 5.01175C170.834 5.11302 170.719 5.16992 170.6 5.16992Z" fill="white"/>
<path d="M170.6 7.19494H164.524C164.405 7.19494 164.291 7.13805 164.206 7.03678C164.122 6.93551 164.074 6.79815 164.074 6.65493C164.074 6.51172 164.122 6.37437 164.206 6.2731C164.291 6.17183 164.405 6.11493 164.524 6.11493H170.6C170.719 6.11493 170.834 6.17183 170.918 6.2731C171.003 6.37437 171.05 6.51172 171.05 6.65493C171.05 6.79815 171.003 6.93551 170.918 7.03678C170.834 7.13805 170.719 7.19494 170.6 7.19494Z" fill="white"/>
<path d="M125.655 95.7756H51.093C48.7888 95.7724 46.5798 94.6727 44.9505 92.7177C43.3213 90.7626 42.4048 88.112 42.4023 85.3472V36.6186C42.4049 33.8539 43.3213 31.2033 44.9506 29.2484C46.5799 27.2935 48.7889 26.1939 51.093 26.1909H125.655C127.96 26.1939 130.169 27.2935 131.798 29.2484C133.427 31.2033 134.344 33.8539 134.346 36.6186V85.3472C134.344 88.112 133.427 90.7626 131.798 92.7177C130.169 94.6727 127.96 95.7724 125.655 95.7756Z" fill="#F2F2F2"/>
<path d="M106.471 50.9686C107.071 50.6546 105.854 50.4719 104.473 50.4118C103.092 50.3517 101.422 50.355 100.539 50.1841C99.6861 50.0188 99.7489 49.7249 99.6771 49.4586C99.6054 49.1923 99.2773 48.9192 97.9457 48.86C96.2863 48.7863 93.5499 49.0702 92.2973 48.8997C91.1283 48.7406 91.8232 48.2416 90.1187 48.2225C89.1453 48.2116 87.8914 48.3761 86.8084 48.4159C86.0407 48.4558 85.2715 48.4077 84.5115 48.2722C83.9836 48.1684 83.6159 48.0368 83.0218 47.9452C81.462 47.7045 78.4104 47.7854 75.6866 48.0938C72.9629 48.4023 70.6282 48.9077 69.3114 49.4084C67.9947 49.909 67.6309 50.4019 67.9376 50.8199C68.1335 51.0868 68.6347 51.3364 69.8504 51.4437C72.1244 51.6443 76.173 51.299 78.5228 51.4815C79.8324 51.5832 80.4134 51.8354 81.5625 51.9734C82.797 52.1217 84.6041 52.1295 86.3797 52.126C90.0766 52.1187 93.868 52.0731 97.7341 51.9896C99.3489 51.9547 101.041 51.9093 102.759 51.7429C104.478 51.5765 106.23 51.2555 106.593 50.9546" fill="#E6E7E8"/>
<path d="M119.448 45.412C119.42 45.3239 119.388 45.2365 119.356 45.1514C119.408 45.176 119.461 45.2029 119.512 45.232L119.448 45.412Z" fill="#CCCCCC"/>
<path d="M91.4081 56.0569C90.9307 55.1096 90.3651 54.0982 89.4793 53.7889C88.4534 53.4306 87.3996 54.1422 86.5058 54.8445C83.8326 56.9445 81.2583 59.2204 78.7946 61.6617L78.7973 61.6985L84.5515 61.2223C85.9373 61.1077 87.3707 60.9772 88.5954 60.1906C89.0601 59.8921 89.5131 59.4933 90.0397 59.4655C90.6939 59.431 91.2644 59.9793 91.7127 60.5521C94.3646 63.9405 95.132 69.1222 98.1071 72.0992C96.2311 66.5477 93.9911 61.1834 91.4081 56.0569Z" fill="#E6E7E8"/>
<path d="M107.709 84.7969C107.416 84.3526 107.296 84.2485 107.006 83.8001C104.651 80.1448 102.437 76.3661 100.365 72.4639C98.9573 69.8136 97.6195 67.1125 96.3515 64.3605C95.7479 63.0521 95.1607 61.7335 94.5902 60.4047C94.1474 59.3743 93.7145 58.3377 93.2915 57.295C93.1706 56.9972 93.053 56.698 92.9361 56.3982C92.6605 55.693 92.39 54.9844 92.0996 54.2888C91.7687 53.496 91.3659 52.6648 90.7582 52.1322C90.4816 51.8798 90.151 51.7271 89.8048 51.692C89.3171 51.6953 88.8397 51.8594 88.4245 52.1664C85.2821 54.1486 82.349 56.5756 79.6879 59.3955C77.0228 62.204 74.6406 65.377 72.5899 68.8497C72.5272 68.9572 72.3788 68.8545 72.4422 68.7463C72.6915 68.3232 72.9458 67.9046 73.205 67.4907C76.4284 62.3467 80.3807 57.9232 84.8813 54.4223C85.6384 53.8335 86.4099 53.2723 87.1955 52.7388C87.5915 52.4697 87.9892 52.2041 88.3937 51.9549C88.7813 51.6822 89.2162 51.5205 89.6644 51.4825C91.2061 51.4537 92.0043 53.5487 92.5527 54.9584C92.725 55.402 92.8994 55.8443 93.0759 56.2852C93.7429 57.9591 94.4355 59.6178 95.1539 61.2611C95.5972 62.2758 96.0503 63.2845 96.513 64.2873C97.9531 67.4099 99.4838 70.4693 101.105 73.4655C103.253 77.4344 105.383 80.9404 107.83 84.6518C107.897 84.7545 107.777 84.901 107.709 84.7969Z" fill="#E4E4E4"/>
<path d="M79.5355 58.3609C79.446 58.2411 79.357 58.1213 79.2668 58.0015C78.5559 57.0581 77.793 56.1256 76.8168 55.5847C76.3513 55.3187 75.8431 55.1774 75.3275 55.1705C74.7956 55.188 74.2711 55.3253 73.7813 55.5752C73.5485 55.6867 73.3208 55.8134 73.0966 55.9483C72.8404 56.103 72.5888 56.268 72.3383 56.4344C71.8681 56.7466 71.4041 57.0724 70.9461 57.412C70.0349 58.0878 69.1522 58.8151 68.2981 59.594C67.8553 59.9979 67.4216 60.4151 66.9971 60.8455C66.6023 61.2453 66.2155 61.6559 65.8366 62.0772C65.7556 62.1668 65.6346 62.0217 65.7156 61.932C65.8155 61.8204 65.9165 61.7095 66.0175 61.6C66.3028 61.2905 66.5926 60.987 66.887 60.6894C67.4239 60.1458 67.9747 59.6232 68.5394 59.1216C69.4175 58.3411 70.3259 57.6135 71.2645 56.939C71.7335 56.6021 72.209 56.2794 72.6909 55.9709C72.8364 55.8778 72.9836 55.7867 73.1326 55.7004C73.4705 55.4959 73.8215 55.3244 74.1824 55.1877C74.6936 54.9892 75.2344 54.9255 75.768 55.0007C76.2832 55.0907 76.7796 55.2967 77.231 55.608C78.1896 56.2509 78.933 57.245 79.6565 58.2151C79.7296 58.3137 79.6091 58.4595 79.5355 58.3609Z" fill="#E4E4E4"/>
<path d="M99.1761 68.1374L101.473 67.1293L102.613 66.6288C102.982 66.4508 103.358 66.2955 103.739 66.1635C104.073 66.0492 104.427 66.0546 104.758 66.1791C105.054 66.3103 105.324 66.5113 105.553 66.7703C105.788 67.0291 106.005 67.3084 106.205 67.6058C106.454 67.9638 106.698 68.3256 106.944 68.6862C107.958 70.1744 108.966 71.6691 109.967 73.1703C110.967 74.6714 111.962 76.1789 112.949 77.6927C113.939 79.2103 114.922 80.7342 115.898 82.2645C116.018 82.4519 116.137 82.6395 116.257 82.8271C116.323 82.9308 116.472 82.8286 116.405 82.7235C115.421 81.1778 114.431 79.6385 113.434 78.1055C112.434 76.5689 111.427 75.0387 110.414 73.5151C109.401 71.9915 108.38 70.4745 107.353 68.9641C107.097 68.5878 106.841 68.212 106.584 67.8365C106.368 67.5198 106.153 67.1997 105.916 66.9049C105.48 66.3638 104.935 65.8857 104.283 65.8727C103.901 65.8887 103.525 65.988 103.172 66.1657C102.788 66.3323 102.405 66.5022 102.022 66.6705L99.7089 67.6856L99.1306 67.9394C99.028 67.9844 99.0723 68.183 99.1761 68.1374Z" fill="#E4E4E4"/>
<path d="M76.5145 56.7719C75.9242 56.4229 75.2673 56.2687 74.6109 56.325C73.9546 56.3813 73.3226 56.6462 72.7798 57.0924C74.8257 57.5159 76.8493 58.0826 78.8401 58.7896C78.0134 58.2083 77.3667 57.2975 76.5145 56.7719Z" fill="#E6E7E8"/>
<path d="M72.7683 57.0899L72.5435 57.3091C72.6196 57.2324 72.6986 57.1604 72.7798 57.0924L72.7683 57.0899Z" fill="#F2F2F2"/>
<path d="M105.467 68.1475C105.266 67.7919 104.986 67.5112 104.658 67.3373L104.342 67.3523C106.746 72.4485 109.992 76.9016 113.882 80.4382C111.077 76.3413 108.272 72.2444 105.467 68.1475Z" fill="#E6E7E8"/>
<path d="M63.8615 43.8773C65.6146 43.8773 67.0357 42.172 67.0357 40.0684C67.0357 37.9649 65.6146 36.2596 63.8615 36.2596C62.1084 36.2596 60.6872 37.9649 60.6872 40.0684C60.6872 42.172 62.1084 43.8773 63.8615 43.8773Z" fill="#CCCCCC"/>
<path d="M73.5803 39.87C72.7402 38.8126 71.7646 37.8479 70.6096 37.3382C70.2879 37.1956 69.9543 37.095 69.6146 37.0382C69.6119 37.0377 69.6093 37.0384 69.6066 37.0381C69.601 37.0364 69.5954 37.0351 69.5898 37.0342C69.1147 36.9615 68.6325 36.9965 68.1681 37.1371C67.9411 37.2055 67.7195 37.2981 67.5062 37.4138C67.2921 37.5392 67.0847 37.6802 66.8851 37.8362C66.4626 38.1397 65.9974 38.3479 65.5125 38.4506C65.2691 38.5032 65.0226 38.5322 64.7754 38.5374C64.565 38.5289 64.355 38.5651 64.1552 38.6445C63.9381 38.7425 63.743 38.9 63.5856 39.1045C63.4282 39.309 63.3128 39.5548 63.2487 39.8223C63.2437 39.8461 63.2452 39.8712 63.2529 39.894C63.2607 39.9167 63.2742 39.9359 63.2916 39.9488C63.3466 39.9961 63.4002 40.0497 63.458 40.0918C63.5093 40.12 63.5642 40.138 63.6205 40.145C63.7123 40.1682 63.8043 40.1908 63.8964 40.2127C64.2356 40.2934 64.5763 40.3648 64.9183 40.4269C65.6105 40.5526 66.3064 40.6412 67.006 40.6926C69.1978 40.8515 71.3972 40.6376 73.5391 40.0572C73.5547 40.0518 73.5688 40.0415 73.5801 40.0276C73.5915 40.0136 73.5996 39.9964 73.6037 39.9776C73.6079 39.9587 73.6079 39.9389 73.6038 39.9201C73.5997 39.9012 73.5916 39.884 73.5803 39.87Z" fill="#F0F0F0"/>
<path d="M64.0121 42.4166C63.6904 42.274 63.3568 42.1734 63.0172 42.1165C63.0144 42.1161 63.0118 42.1167 63.0091 42.1165C63.0036 42.1148 62.998 42.1135 62.9923 42.1125C62.5172 42.0399 62.035 42.0748 61.5707 42.2155C61.3436 42.2839 61.1221 42.3765 60.9087 42.4922C60.6947 42.6175 60.4872 42.7586 60.2876 42.9146C59.8651 43.218 59.4 43.4262 58.9151 43.529C58.6717 43.5816 58.4252 43.6106 58.1779 43.6158C57.9675 43.6072 57.7576 43.6435 57.5578 43.7229C57.3406 43.8209 57.1456 43.9784 56.9882 44.1829C56.8308 44.3874 56.7154 44.6332 56.6512 44.9007C56.6463 44.9245 56.6478 44.9496 56.6555 44.9723C56.6632 44.9951 56.6767 45.0143 56.6941 45.0272C56.7491 45.0745 56.8027 45.1281 56.8605 45.1702C56.9119 45.1984 56.9668 45.2164 57.023 45.2233C57.1149 45.2466 57.2068 45.2692 57.2989 45.2911C57.6382 45.3717 57.9788 45.4431 58.3209 45.5053C59.013 45.631 59.7089 45.7196 60.4086 45.7709C62.6003 45.9299 64.7998 45.716 66.9416 45.1356C66.9572 45.1301 66.9713 45.1199 66.9827 45.106C66.994 45.092 67.0021 45.0748 67.0063 45.0559C67.0104 45.0371 67.0104 45.0173 67.0063 44.9985C67.0022 44.9796 66.9941 44.9623 66.9828 44.9484C66.1428 43.8909 65.1671 42.9263 64.0121 42.4166Z" fill="#F0F0F0"/>
<path d="M117.892 80.1834L119.582 78.6433L120.407 79.632L117.652 81.8938L117.892 80.1834Z" fill="#CCCCCC"/>
<path d="M116.315 84.4246H110.531L110.734 83.636C111.991 83.0899 111.285 81.9161 112.481 81.1986C115.406 79.4437 116.539 74.2068 116.11 72.1367L118.027 72.0394C118.027 72.0394 120.674 81.0599 116.315 84.4246Z" fill="#CCCCCC"/>
<path d="M121.252 80.7175C121.08 80.8997 120.859 81.0026 120.629 81.0078C120.399 81.0129 120.174 80.9201 119.996 80.7457L119.992 80.742L119.992 80.7362C119.99 80.6395 119.978 80.5437 119.955 80.4509C119.954 80.5177 119.946 80.584 119.931 80.6483L119.926 80.67L119.913 80.6539C119.902 80.64 119.891 80.6259 119.881 80.612C119.821 80.5303 119.77 80.439 119.731 80.3407C119.544 79.8792 119.273 79.4739 118.938 79.1548C118.879 79.0964 118.823 79.0322 118.772 78.9627C118.557 78.6691 118.436 78.2933 118.431 77.9024C118.426 77.5116 118.537 77.1313 118.744 76.8297C118.951 76.5281 119.241 76.3248 119.562 76.2563C119.882 76.1877 120.213 76.2584 120.494 76.4557L120.503 76.4617L120.498 76.4723C120.466 76.5534 120.423 76.6279 120.371 76.6929C120.442 76.6467 120.508 76.5895 120.567 76.5228L120.573 76.5157L120.58 76.5216C120.673 76.5982 120.757 76.6882 120.831 76.7894L120.839 76.8004C120.896 76.8781 120.966 76.9407 121.044 76.9839C121.122 77.0272 121.207 77.0502 121.293 77.0514C121.433 77.0543 121.571 77.0936 121.698 77.1666C121.824 77.2396 121.936 77.3447 122.025 77.4745C122.115 77.6043 122.18 77.7558 122.216 77.9186C122.252 78.0814 122.258 78.2517 122.234 78.4176L122.233 78.4253L122.226 78.4276C122.117 78.4725 122.002 78.4898 121.887 78.4784C121.983 78.5286 122.085 78.5593 122.189 78.5693L122.203 78.5706L122.198 78.586C122.144 78.7819 122.047 78.9569 121.918 79.0931L121.914 79.097L121.91 79.1011C121.814 79.2006 121.735 79.3221 121.679 79.4586C121.622 79.5951 121.589 79.7438 121.581 79.8959C121.574 80.0522 121.542 80.2054 121.486 80.3464C121.429 80.4875 121.35 80.6137 121.252 80.7175Z" fill="#CCCCCC"/>
<path opacity="0.15" d="M121.429 80.3426C121.428 80.3846 121.424 80.4264 121.418 80.468C121.513 80.2934 121.568 80.0919 121.576 79.8839C121.578 79.852 121.58 79.8203 121.584 79.7888C121.492 79.9534 121.439 80.1446 121.429 80.3426Z" fill="black"/>
<path opacity="0.15" d="M121.735 78.9251C121.812 78.9652 121.894 78.9928 121.977 79.0071C122.009 78.9665 122.039 78.9232 122.065 78.8774C121.959 78.9201 121.847 78.9363 121.735 78.9251Z" fill="black"/>
<path opacity="0.15" d="M122.091 78.5421C122.1 78.6429 122.098 78.7446 122.084 78.8447C122.131 78.7606 122.167 78.6696 122.194 78.574L122.198 78.5586L122.185 78.5573C122.153 78.5541 122.122 78.5491 122.091 78.5421Z" fill="black"/>
<path opacity="0.15" d="M122.001 77.4352C121.912 77.3134 121.802 77.2153 121.679 77.1472C121.557 77.079 121.423 77.0423 121.288 77.0394C121.202 77.0382 121.117 77.0152 121.039 76.9719C120.961 76.9287 120.891 76.8661 120.835 76.7884L120.827 76.7774C120.753 76.6762 120.668 76.5862 120.576 76.5096L120.569 76.5037L120.563 76.5108C120.504 76.5775 120.438 76.6347 120.366 76.6809C120.418 76.6159 120.461 76.5414 120.494 76.4603L120.498 76.4497L120.49 76.4437C120.303 76.3128 120.094 76.2366 119.878 76.2213C119.662 76.2061 119.447 76.2523 119.249 76.3561C119.051 76.4599 118.876 76.6183 118.739 76.8186C118.602 77.0188 118.506 77.2551 118.459 77.5082C118.549 77.3191 118.669 77.1532 118.813 77.0202C118.956 76.8872 119.12 76.7897 119.296 76.7333C119.471 76.677 119.653 76.6629 119.833 76.6919C120.013 76.7209 120.186 76.7924 120.343 76.9023L120.351 76.9084L120.347 76.919C120.314 77.0001 120.271 77.0745 120.219 77.1396C120.291 77.0934 120.357 77.0362 120.416 76.9694L120.422 76.9624L120.429 76.9682C120.521 77.0449 120.606 77.1349 120.68 77.2361L120.688 77.2471C120.744 77.3248 120.814 77.3873 120.892 77.4306C120.97 77.4738 121.055 77.4968 121.141 77.4981C121.366 77.5027 121.583 77.6007 121.754 77.7755C121.925 77.9503 122.041 78.191 122.081 78.4566C122.129 78.4464 122.176 78.4327 122.222 78.4156L122.228 78.4133L122.229 78.4056C122.254 78.2337 122.247 78.0572 122.208 77.8892C122.168 77.7212 122.098 77.5661 122.001 77.4352Z" fill="black"/>
<path d="M124.048 72.6332C124.048 73.522 123.785 74.382 123.306 75.0602C122.827 75.7385 122.164 76.191 121.433 76.3374L121.418 76.3405L121.406 76.3285C121.207 76.1292 120.987 75.9617 120.752 75.8302C120.884 75.9755 121 76.1401 121.098 76.3202L121.131 76.3803L121.071 76.3838C121.019 76.3868 120.968 76.3883 120.918 76.3883C120.626 76.3886 120.335 76.3402 120.054 76.2445C118.726 75.8056 117.334 75.7299 115.978 76.023C115.733 76.0723 115.486 76.0971 115.237 76.0971C114.189 76.0967 113.174 75.6482 112.376 74.8321C111.577 74.0159 111.047 72.8854 110.88 71.6428C110.713 70.4003 110.919 69.127 111.463 68.0509C112.007 66.9747 112.853 66.166 113.848 65.7696L113.879 65.7576L113.891 65.7931C113.985 66.0601 114.043 66.3432 114.064 66.632C114.123 66.3268 114.148 66.0137 114.139 65.7007L114.138 65.6676L114.164 65.6596C114.515 65.5546 114.876 65.5016 115.237 65.5016L115.277 65.5018C115.554 65.5028 115.828 65.4337 116.081 65.2991C116.334 65.1645 116.561 64.9673 116.747 64.7205C117.051 64.3193 117.424 64.002 117.84 63.7904C118.256 63.5787 118.705 63.4777 119.157 63.4944C119.609 63.511 120.052 63.6449 120.457 63.8868C120.861 64.1287 121.217 64.4729 121.5 64.8957L121.514 64.9153L121.505 64.9382C121.364 65.3502 121.152 65.7225 120.885 66.0317C121.19 65.8599 121.47 65.6287 121.712 65.3474L121.743 65.311L121.765 65.3562C122.044 65.9303 122.191 66.5831 122.191 67.2477L122.19 67.2666L122.19 67.2867C122.186 67.7776 122.264 68.2646 122.418 68.719C122.573 69.1735 122.801 69.5864 123.091 69.9334C123.392 70.2843 123.632 70.7039 123.796 71.1675C123.961 71.6311 124.046 72.1294 124.048 72.6332Z" fill="#CCCCCC"/>
<g opacity="0.15">
<path d="M120.222 63.7592C120.114 63.974 119.981 64.1694 119.828 64.3396C120.048 64.2156 120.254 64.0605 120.444 63.8775C120.371 63.8346 120.297 63.7952 120.222 63.7592Z" fill="black"/>
<path d="M122.033 68.2413C122.203 68.4395 122.354 68.6601 122.483 68.8991C122.289 68.3934 122.189 67.8432 122.19 67.2867L122.19 67.2665L122.191 67.2476C122.191 66.583 122.044 65.9302 121.765 65.3561L121.743 65.3109L121.712 65.3473C121.539 65.5474 121.348 65.7224 121.141 65.8688C121.186 66.7642 121.503 67.6085 122.033 68.2413Z" fill="black"/>
<path d="M121.133 65.5556L121.133 65.5745L121.133 65.5946C121.133 65.6315 121.133 65.6682 121.134 65.705C121.282 65.4671 121.406 65.2098 121.505 64.9382L121.514 64.9152L121.5 64.8956C121.335 64.6491 121.145 64.4284 120.934 64.2386C121.066 64.6598 121.133 65.1059 121.133 65.5556Z" fill="black"/>
<path d="M123.091 69.9333C122.94 69.7576 122.807 69.5623 122.692 69.3511C122.897 69.8754 122.998 70.4496 122.987 71.0286C122.977 71.6077 122.854 72.1759 122.63 72.6887C122.406 73.2016 122.085 73.6451 121.694 73.9845C121.303 74.324 120.852 74.5502 120.376 74.6453L120.36 74.6483L120.348 74.6364C120.149 74.4371 119.929 74.2696 119.694 74.1381C119.826 74.2834 119.942 74.448 120.04 74.6281L120.074 74.6882L120.014 74.6917C119.962 74.6947 119.91 74.6962 119.861 74.6962C119.568 74.6965 119.278 74.6481 118.996 74.5524C117.669 74.1135 116.276 74.0378 114.921 74.3308C114.676 74.3802 114.428 74.405 114.18 74.405C113.098 74.406 112.054 73.9282 111.247 73.063C111.605 73.9699 112.17 74.7364 112.876 75.2734C113.582 75.8105 114.401 76.0961 115.238 76.0971C115.486 76.0971 115.733 76.0723 115.978 76.0229C117.334 75.7299 118.726 75.8056 120.054 76.2445C120.335 76.3402 120.626 76.3886 120.918 76.3883C120.968 76.3883 121.02 76.3868 121.071 76.3837L121.131 76.3802L121.098 76.3201C121 76.1401 120.884 75.9755 120.752 75.8302C120.987 75.9616 121.207 76.1291 121.406 76.3285L121.418 76.3404L121.433 76.3374C122.005 76.2232 122.539 75.9207 122.976 75.4636C123.413 75.0064 123.735 74.4126 123.907 73.7484C124.079 73.0842 124.094 72.3758 123.95 71.7021C123.805 71.0284 123.508 70.4161 123.091 69.9333Z" fill="black"/>
</g>
<path d="M61.0431 78.1545L58.7518 76.0671L57.635 77.4072L61.3675 80.4722L61.0431 78.1545Z" fill="#CCCCCC"/>
<path d="M63.18 83.9018H71.0177L70.7428 82.8331C69.0391 82.093 69.9961 80.5023 68.3754 79.53C64.4115 77.1518 62.8769 70.055 63.4573 67.2497L60.8596 67.1179C60.8596 67.1179 57.2723 79.3421 63.18 83.9018Z" fill="#CCCCCC"/>
<path d="M56.0438 77.7647C56.0328 77.5585 55.9876 77.3571 55.9109 77.1721C55.8342 76.9871 55.7275 76.8224 55.597 76.6876L55.5917 76.682L55.5867 76.6768C55.4116 76.4921 55.2805 76.255 55.2068 75.9896L55.201 75.9687L55.2193 75.967C55.3607 75.9534 55.4992 75.9118 55.6293 75.8438C55.4735 75.8593 55.3168 75.8358 55.169 75.7749L55.1606 75.7718L55.1591 75.7614C55.1264 75.5365 55.1347 75.3058 55.1834 75.0852C55.2322 74.8646 55.3202 74.6592 55.4413 74.4833C55.5625 74.3073 55.714 74.165 55.8855 74.066C56.0569 73.9671 56.2441 73.9138 56.4343 73.91C56.5509 73.9083 56.6659 73.8771 56.7717 73.8185C56.8776 73.7599 56.9719 73.6751 57.0487 73.5698L57.0595 73.5549C57.16 73.4177 57.2742 73.2958 57.3994 73.1919L57.4089 73.184L57.4174 73.1936C57.4973 73.284 57.5867 73.3615 57.6834 73.4242C57.6131 73.336 57.5548 73.2351 57.5107 73.1252L57.5046 73.1108L57.5163 73.1026C57.8974 72.8353 58.3453 72.7395 58.78 72.8324C59.2146 72.9253 59.6074 73.2007 59.8882 73.6095C60.169 74.0182 60.3194 74.5336 60.3124 75.0632C60.3054 75.5928 60.1415 76.1022 59.8501 76.5001C59.7811 76.5942 59.7057 76.6813 59.6246 76.7604C59.1707 77.1928 58.8035 77.742 58.5501 78.3675C58.4971 78.5007 58.429 78.6244 58.3477 78.7351C58.3339 78.754 58.3192 78.7731 58.304 78.7919L58.2864 78.8137L58.2798 78.7844C58.2596 78.6972 58.2486 78.6073 58.2471 78.5168C58.2163 78.6425 58.1993 78.7724 58.1965 78.9034L58.1963 78.9112L58.1912 78.9162C58.0022 79.1013 57.7741 79.2198 57.5323 79.2583C57.2904 79.2969 57.0444 79.2541 56.8217 79.1346C56.599 79.0152 56.4083 78.8239 56.271 78.582C56.1336 78.3401 56.0549 78.0571 56.0438 77.7647Z" fill="#CCCCCC"/>
<path opacity="0.15" d="M56.2491 78.37C56.2515 78.4269 56.2564 78.4836 56.2639 78.5399C56.1355 78.3034 56.0617 78.0303 56.0499 77.7484C56.0481 77.7053 56.0443 77.6623 56.0393 77.6195C56.164 77.8426 56.2365 78.1018 56.2491 78.37Z" fill="black"/>
<path opacity="0.15" d="M55.8346 76.4491C55.73 76.5034 55.6198 76.5408 55.507 76.5602C55.4635 76.5051 55.4234 76.4464 55.387 76.3845C55.531 76.4423 55.6833 76.4643 55.8346 76.4491Z" fill="black"/>
<path opacity="0.15" d="M55.3518 75.9301C55.3402 76.0667 55.3433 76.2045 55.3612 76.3401C55.2987 76.2261 55.2489 76.1028 55.2129 75.9733L55.2071 75.9525L55.2254 75.9507C55.2678 75.9464 55.31 75.9395 55.3518 75.9301Z" fill="black"/>
<path opacity="0.15" d="M55.4737 74.4301C55.5949 74.265 55.7435 74.1321 55.91 74.0397C56.0764 73.9474 56.2571 73.8976 56.4404 73.8937C56.557 73.892 56.6719 73.8608 56.7778 73.8022C56.8837 73.7436 56.978 73.6588 57.0548 73.5535L57.0656 73.5386C57.1661 73.4014 57.2803 73.2795 57.4055 73.1756L57.415 73.1677L57.4235 73.1773C57.5034 73.2677 57.5928 73.3452 57.6895 73.4079C57.6192 73.3197 57.5609 73.2189 57.5168 73.1089L57.5107 73.0945L57.5223 73.0863C57.775 72.9089 58.059 72.8057 58.3513 72.785C58.6435 72.7644 58.9357 72.827 59.204 72.9676C59.4722 73.1083 59.709 73.323 59.8949 73.5944C60.0808 73.8657 60.2107 74.186 60.2738 74.529C60.1522 74.2727 59.9894 74.0479 59.7949 73.8676C59.6004 73.6874 59.378 73.5552 59.1406 73.4789C58.9032 73.4025 58.6555 73.3834 58.412 73.4227C58.1684 73.4621 57.9337 73.559 57.7216 73.7079L57.71 73.7161L57.716 73.7305C57.7601 73.8404 57.8184 73.9413 57.8887 74.0295C57.7921 73.9668 57.7026 73.8893 57.6227 73.7988L57.6143 73.7893L57.6047 73.7972C57.4795 73.9011 57.3654 74.023 57.2649 74.1602L57.254 74.1751C57.1773 74.2804 57.0829 74.3651 56.9771 74.4237C56.8712 74.4824 56.7562 74.5136 56.6397 74.5153C56.3349 74.5215 56.0413 74.6543 55.809 74.8912C55.5767 75.1281 55.42 75.4543 55.3658 75.8143C55.3013 75.8004 55.2377 75.7818 55.1751 75.7586L55.1667 75.7555L55.1652 75.7451C55.131 75.5122 55.1409 75.273 55.1943 75.0453C55.2478 74.8177 55.3432 74.6074 55.4737 74.4301Z" fill="black"/>
<path d="M53.9974 64.2639C54.3895 63.7936 54.6994 63.2341 54.909 62.6182C55.1185 62.0023 55.2234 61.3424 55.2176 60.6772C55.2176 60.6681 55.2176 60.659 55.2175 60.6499L55.2175 60.6242C55.2172 59.7236 55.4163 58.839 55.7944 58.0609L55.8241 57.9997L55.8664 58.049C56.1945 58.4303 56.573 58.7436 56.9865 58.9764C56.6242 58.5574 56.3382 58.0529 56.1466 57.4945L56.1348 57.4635L56.1526 57.4369C56.5363 56.864 57.0188 56.3976 57.5669 56.0697C58.1151 55.7419 58.716 55.5605 59.3282 55.5379C59.9404 55.5154 60.5494 55.6522 61.1134 55.939C61.6773 56.2259 62.1828 56.6559 62.595 57.1995C62.8463 57.534 63.1536 57.8012 63.4969 57.9836C63.8401 58.1661 64.2115 58.2597 64.5869 58.2583L64.6399 58.2581C65.1301 58.258 65.6185 58.3299 66.0941 58.4721L66.1304 58.483L66.1291 58.5278C66.1168 58.952 66.1508 59.3763 66.2301 59.79C66.2582 59.3985 66.3375 59.0149 66.4652 58.6531L66.4814 58.6049L66.5225 58.6213C67.8716 59.1585 69.0173 60.2544 69.7544 61.7127C70.4916 63.1711 70.772 64.8966 70.5455 66.5804C70.319 68.2642 69.6004 69.7963 68.5183 70.9023C67.4362 72.0083 66.0614 72.6161 64.6399 72.6167C64.3036 72.6167 63.9678 72.5831 63.6361 72.5162C61.7994 72.1191 59.9119 72.2217 58.1127 72.8165C57.7317 72.9461 57.3376 73.0117 56.9416 73.0113C56.8742 73.0113 56.8044 73.0093 56.7342 73.0051L56.6528 73.0004L56.6979 72.919C56.8307 72.675 56.9884 72.4519 57.1674 72.255C56.8488 72.4332 56.5509 72.6601 56.2809 72.9303L56.2647 72.9465L56.2438 72.9424C55.469 72.7877 54.7452 72.3777 54.1532 71.7582C53.5613 71.1387 53.1244 70.334 52.8914 69.4339C52.6585 68.5338 52.6385 67.5737 52.8338 66.6608C53.0291 65.7479 53.4319 64.918 53.9974 64.2639Z" fill="#CCCCCC"/>
<g opacity="0.15">
<path d="M57.8854 55.8969C58.0317 56.188 58.2116 56.4528 58.4198 56.6834C58.1216 56.5154 57.8414 56.3052 57.5849 56.0573C57.6833 55.9991 57.7835 55.9457 57.8854 55.8969Z" fill="black"/>
<path d="M55.4306 61.9709C55.2 62.2394 54.9954 62.5385 54.8208 62.8623C55.0836 62.177 55.2189 61.4314 55.2176 60.6772C55.2176 60.6681 55.2176 60.659 55.2175 60.6499L55.2175 60.6243C55.2172 59.7236 55.4163 58.839 55.7944 58.0609L55.8241 57.9998L55.8664 58.0491C56.1003 58.3202 56.3599 58.5574 56.6399 58.7558C56.579 59.9691 56.1487 61.1134 55.4306 61.9709Z" fill="black"/>
<path d="M56.6507 58.3313L56.6508 58.3569L56.6508 58.3842C56.6508 58.4341 56.6501 58.484 56.6489 58.5337C56.4492 58.2113 56.2807 57.8627 56.1466 57.4946L56.1348 57.4635L56.1526 57.437C56.3764 57.1029 56.6341 56.8038 56.9198 56.5466C56.7419 57.1174 56.6508 57.7219 56.6507 58.3313Z" fill="black"/>
<path d="M53.9974 64.2639C54.2014 64.0258 54.3827 63.7611 54.5379 63.4749C54.2599 64.1854 54.1229 64.9635 54.1375 65.7482C54.1521 66.533 54.3179 67.303 54.622 67.9979C54.926 68.6929 55.3601 69.2939 55.8901 69.7539C56.4202 70.214 57.0318 70.5204 57.677 70.6494L57.698 70.6535L57.7142 70.6373C57.9841 70.3672 58.2821 70.1402 58.6007 69.9621C58.4217 70.159 58.2639 70.382 58.1312 70.6261L58.086 70.7075L58.1674 70.7122C58.2376 70.7163 58.3075 70.7183 58.3748 70.7183C58.7708 70.7188 59.165 70.6532 59.5459 70.5235C61.3451 69.9287 63.2327 69.8261 65.0693 70.2232C65.401 70.2901 65.7368 70.3237 66.0732 70.3237C67.5393 70.325 68.9544 69.6775 70.0475 68.5051C69.5626 69.7341 68.7972 70.7728 67.84 71.5006C66.8828 72.2284 65.7731 72.6154 64.6399 72.6167C64.3036 72.6168 63.9678 72.5831 63.6361 72.5162C61.7994 72.1191 59.9119 72.2218 58.1127 72.8165C57.7317 72.9462 57.3376 73.0118 56.9416 73.0114C56.8742 73.0114 56.8044 73.0093 56.7342 73.0052L56.6528 73.0005L56.6979 72.9191C56.8307 72.6751 56.9884 72.452 57.1674 72.2551C56.8488 72.4333 56.5509 72.6602 56.2809 72.9303L56.2647 72.9465L56.2438 72.9424C55.4689 72.7878 54.7452 72.3778 54.1532 71.7583C53.5613 71.1387 53.1244 70.334 52.8914 69.4339C52.6585 68.5339 52.6385 67.5738 52.8338 66.6609C53.0291 65.748 53.4319 64.9181 53.9974 64.2639Z" fill="black"/>
</g>
<path d="M81.351 50.4493C81.5228 50.4493 81.6622 50.2822 81.6622 50.0759C81.6622 49.8697 81.5228 49.7025 81.351 49.7025C81.1791 49.7025 81.0398 49.8697 81.0398 50.0759C81.0398 50.2822 81.1791 50.4493 81.351 50.4493Z" fill="white"/>
<path d="M104.629 59.2619C104.732 59.2619 104.816 59.1616 104.816 59.0378C104.816 58.9141 104.732 58.8138 104.629 58.8138C104.526 58.8138 104.442 58.9141 104.442 59.0378C104.442 59.1616 104.526 59.2619 104.629 59.2619Z" fill="white"/>
<path d="M108.239 49.1797C108.342 49.1797 108.425 49.0794 108.425 48.9557C108.425 48.8319 108.342 48.7316 108.239 48.7316C108.136 48.7316 108.052 48.8319 108.052 48.9557C108.052 49.0794 108.136 49.1797 108.239 49.1797Z" fill="white"/>
<path d="M74.8158 42.4583C74.9189 42.4583 75.0025 42.358 75.0025 42.2342C75.0025 42.1105 74.9189 42.0102 74.8158 42.0102C74.7126 42.0102 74.629 42.1105 74.629 42.2342C74.629 42.358 74.7126 42.4583 74.8158 42.4583Z" fill="#CCCCCC"/>
<path d="M72.9486 51.4949C73.0517 51.4949 73.1353 51.3946 73.1353 51.2709C73.1353 51.1471 73.0517 51.0468 72.9486 51.0468C72.8454 51.0468 72.7618 51.1471 72.7618 51.2709C72.7618 51.3946 72.8454 51.4949 72.9486 51.4949Z" fill="white"/>
<path d="M63.8615 49.1797C63.9646 49.1797 64.0482 49.0794 64.0482 48.9557C64.0482 48.8319 63.9646 48.7316 63.8615 48.7316C63.7583 48.7316 63.6747 48.8319 63.6747 48.9557C63.6747 49.0794 63.7583 49.1797 63.8615 49.1797Z" fill="#CCCCCC"/>
<path d="M96.0397 51.0468C96.1428 51.0468 96.2264 50.9465 96.2264 50.8227C96.2264 50.699 96.1428 50.5987 96.0397 50.5987C95.9365 50.5987 95.8529 50.699 95.8529 50.8227C95.8529 50.9465 95.9365 51.0468 96.0397 51.0468Z" fill="white"/>
<path d="M115.147 43.8026C115.251 43.8026 115.334 43.7023 115.334 43.5785C115.334 43.4548 115.251 43.3545 115.147 43.3545C115.044 43.3545 114.961 43.4548 114.961 43.5785C114.961 43.7023 115.044 43.8026 115.147 43.8026Z" fill="#CCCCCC"/>
<path d="M107.728 78.3107C107.602 78.0523 107.537 77.7573 107.541 77.4578C107.545 77.1583 107.617 76.8657 107.749 76.6118C107.893 77.2379 108.216 77.7828 108.663 78.1502C108.835 78.2912 109.039 78.4264 109.098 78.6666C109.129 78.8197 109.11 78.9813 109.045 79.118C108.98 79.2529 108.9 79.3773 108.809 79.488L108.8 79.5256C108.358 79.2438 107.988 78.8241 107.728 78.3107Z" fill="#E6E7E8"/>
<path d="M87.8737 66.1375C87.7475 65.8791 87.6827 65.5841 87.6864 65.2846C87.6901 64.985 87.7621 64.6925 87.8946 64.4386C88.0382 65.0647 88.3618 65.6096 88.808 65.977C88.9805 66.1179 89.1846 66.2531 89.2436 66.4934C89.2747 66.6465 89.2556 66.8081 89.1902 66.9448C89.125 67.0797 89.0456 67.2041 88.954 67.3148L88.9456 67.3524C88.5037 67.0706 88.1334 66.6509 87.8737 66.1375Z" fill="#E6E7E8"/>
<path d="M68.9527 74.8007C68.8265 74.5422 68.7617 74.2472 68.7654 73.9477C68.7691 73.6482 68.8411 73.3556 68.9736 73.1017C69.1172 73.7278 69.4407 74.2728 69.887 74.6402C70.0595 74.7811 70.2636 74.9163 70.3226 75.1565C70.3537 75.3096 70.3345 75.4712 70.2692 75.6079C70.2039 75.7429 70.1245 75.8672 70.033 75.978L70.0246 76.0156C69.5827 75.7338 69.2124 75.314 68.9527 74.8007Z" fill="#E6E7E8"/>
<path d="M105.874 41.3381H105.189V85.3261H105.874V41.3381Z" fill="#CCCCCC"/>
<path d="M107.803 40.4419C107.803 38.957 106.8 37.7533 105.562 37.7533C104.325 37.7533 103.322 38.957 103.322 40.4419V40.4419C103.322 41.9267 104.325 43.1304 105.562 43.1304C106.8 43.1304 107.803 41.9267 107.803 40.4419Z" fill="#CCCCCC"/>
<path d="M96.6328 80.1286L94.8766 79.1989V78.3996L95.5025 78.3954C95.5996 78.3947 95.6941 78.3576 95.7728 78.2892C95.8514 78.2208 95.9102 78.1245 95.9409 78.014L96.3806 76.4312C96.4039 76.3474 96.4102 76.2581 96.3991 76.1707C96.388 76.0833 96.3598 76.0004 96.3167 75.9287C96.2736 75.857 96.217 75.7986 96.1514 75.7583C96.0858 75.718 96.0132 75.697 95.9396 75.697H94.8766V74.9532H96.211C96.3162 74.9532 96.4183 74.9104 96.5006 74.8318C96.5829 74.7532 96.6405 74.6434 96.6641 74.5204L96.9669 72.9399C96.9826 72.8581 96.9827 72.7732 96.9672 72.6914C96.9517 72.6096 96.9211 72.5331 96.8775 72.4675C96.834 72.4019 96.7787 72.3489 96.7157 72.3124C96.6527 72.276 96.5837 72.2571 96.5138 72.2571H94.8766V72.0712C94.8766 71.9725 94.8439 71.8779 94.7858 71.8082C94.7277 71.7385 94.6489 71.6993 94.5667 71.6993C94.4845 71.6993 94.4056 71.7385 94.3475 71.8082C94.2894 71.8779 94.2567 71.9725 94.2567 72.0712V72.2571H83.2802V72.0712C83.2802 71.9725 83.2476 71.8779 83.1895 71.8082C83.1313 71.7385 83.0525 71.6993 82.9703 71.6993C82.8881 71.6993 82.8093 71.7385 82.7512 71.8082C82.693 71.8779 82.6604 71.9725 82.6604 72.0712V72.2571H81.3589C81.289 72.2571 81.22 72.276 81.157 72.3124C81.0941 72.3489 81.0388 72.4019 80.9952 72.4675C80.9517 72.5331 80.921 72.6096 80.9056 72.6914C80.8901 72.7732 80.8902 72.8581 80.9058 72.9399L81.2086 74.5204C81.2322 74.6434 81.2898 74.7532 81.3721 74.8318C81.4544 74.9104 81.5565 74.9532 81.6617 74.9532H82.6604V75.697H81.9332C81.8599 75.697 81.7877 75.7178 81.7224 75.7576C81.6571 75.7975 81.6005 75.8553 81.5574 75.9264C81.5143 75.9975 81.4857 76.0797 81.4741 76.1666C81.4625 76.2534 81.4682 76.3422 81.4907 76.4259L81.9395 78.0971C81.9698 78.2099 82.0292 78.3083 82.1093 78.3778C82.1893 78.4473 82.2857 78.4845 82.3846 78.4838L82.6604 78.482V79.1989L81.2399 80.1286C81.1166 80.1286 80.9984 80.1874 80.9112 80.292C80.824 80.3966 80.775 80.5385 80.775 80.6864C80.775 80.8343 80.824 80.9762 80.9112 81.0808C80.9984 81.1855 81.1166 81.2442 81.2399 81.2442H82.6604V85.3349C82.6603 85.3838 82.6682 85.4323 82.6837 85.4776C82.6992 85.5228 82.7221 85.5639 82.7509 85.5986C82.7796 85.6332 82.8138 85.6607 82.8515 85.6795C82.8892 85.6982 82.9295 85.7079 82.9703 85.7079C83.0111 85.7079 83.0515 85.6982 83.0891 85.6795C83.1268 85.6607 83.161 85.6332 83.1898 85.5986C83.2186 85.5639 83.2414 85.5228 83.2569 85.4776C83.2724 85.4323 83.2804 85.3838 83.2802 85.3349V81.2442H94.2567V85.3349C94.2567 85.4336 94.2894 85.5281 94.3475 85.5979C94.4056 85.6676 94.4845 85.7068 94.5667 85.7068C94.6489 85.7068 94.7277 85.6676 94.7858 85.5979C94.8439 85.5281 94.8766 85.4336 94.8766 85.3349V81.2442H96.6328C96.7561 81.2442 96.8744 81.1855 96.9616 81.0808C97.0487 80.9762 97.0977 80.8343 97.0977 80.6864C97.0977 80.6132 97.0857 80.5406 97.0623 80.4729C97.039 80.4053 97.0047 80.3438 96.9616 80.292C96.9184 80.2402 96.8671 80.1991 96.8107 80.171C96.7543 80.143 96.6939 80.1286 96.6328 80.1286ZM83.2802 74.9532H94.2567V75.697H83.2802V74.9532ZM83.2802 79.1989V78.4778L94.2567 78.4038V79.1989H83.2802Z" fill="#CCCCCC"/>
<path d="M121.903 109.529H54.8458C54.6363 109.529 54.4288 109.48 54.2352 109.384C54.0416 109.288 53.8656 109.147 53.7174 108.969C53.5692 108.792 53.4516 108.581 53.3714 108.349C53.2911 108.116 53.2498 107.868 53.2498 107.616C53.2498 107.365 53.2911 107.116 53.3714 106.884C53.4516 106.651 53.5692 106.441 53.7174 106.263C53.8656 106.085 54.0416 105.944 54.2352 105.848C54.4288 105.753 54.6363 105.703 54.8458 105.704H121.903C122.112 105.703 122.32 105.753 122.513 105.848C122.707 105.944 122.883 106.085 123.031 106.263C123.179 106.441 123.297 106.651 123.377 106.884C123.457 107.116 123.499 107.365 123.499 107.616C123.499 107.868 123.457 108.116 123.377 108.349C123.297 108.581 123.179 108.792 123.031 108.969C122.883 109.147 122.707 109.288 122.513 109.384C122.32 109.48 122.112 109.529 121.903 109.529Z" fill="#E6E6E6"/>
<path d="M99.4026 118.162H77.3457C76.923 118.162 76.5175 117.961 76.2186 117.602C75.9197 117.243 75.7517 116.757 75.7517 116.25C75.7517 115.742 75.9197 115.256 76.2186 114.897C76.5175 114.539 76.923 114.337 77.3457 114.337H99.4026C99.8254 114.337 100.231 114.539 100.53 114.897C100.829 115.256 100.997 115.742 100.997 116.25C100.997 116.757 100.829 117.243 100.53 117.602C100.231 117.961 99.8254 118.162 99.4026 118.162Z" fill="#E6E6E6"/>
<path d="M99.4026 135.675H77.3457C76.9233 135.674 76.5184 135.473 76.2199 135.114C75.9214 134.755 75.7538 134.269 75.7538 133.762C75.7538 133.255 75.9214 132.769 76.2199 132.411C76.5184 132.052 76.9233 131.85 77.3457 131.85H99.4026C99.8254 131.85 100.231 132.051 100.53 132.41C100.829 132.769 100.997 133.255 100.997 133.762C100.997 134.27 100.829 134.756 100.53 135.115C100.231 135.473 99.8254 135.675 99.4026 135.675Z" fill="#E6E6E6"/>
<path d="M99.4026 144.645H77.3457C77.1363 144.645 76.9288 144.596 76.7352 144.5C76.5415 144.404 76.3656 144.263 76.2174 144.085C76.0691 143.908 75.9515 143.697 75.8713 143.465C75.7911 143.232 75.7498 142.984 75.7498 142.732C75.7498 142.481 75.7911 142.232 75.8713 142C75.9515 141.768 76.0691 141.557 76.2174 141.379C76.3656 141.201 76.5415 141.06 76.7352 140.965C76.9288 140.869 77.1363 140.819 77.3457 140.82H99.4026C99.6121 140.819 99.8196 140.869 100.013 140.965C100.207 141.06 100.383 141.201 100.531 141.379C100.679 141.557 100.797 141.768 100.877 142C100.957 142.232 100.999 142.481 100.999 142.732C100.999 142.984 100.957 143.232 100.877 143.465C100.797 143.697 100.679 143.908 100.531 144.085C100.383 144.263 100.207 144.404 100.013 144.5C99.8196 144.596 99.6121 144.645 99.4026 144.645Z" fill="#E6E6E6"/>
<path d="M111.773 126.796H64.9755C64.5528 126.796 64.1474 126.594 63.8484 126.236C63.5495 125.877 63.3816 125.39 63.3816 124.883C63.3816 124.376 63.5495 123.889 63.8484 123.531C64.1474 123.172 64.5528 122.971 64.9755 122.971H111.773C112.196 122.971 112.601 123.172 112.9 123.531C113.199 123.889 113.367 124.376 113.367 124.883C113.367 125.39 113.199 125.877 112.9 126.236C112.601 126.594 112.196 126.796 111.773 126.796Z" fill="#E6E6E6"/>
<path d="M181.441 40.7681C185.235 38.2796 186.629 32.5721 184.555 28.0199C182.482 23.4677 177.725 21.7947 173.931 24.2831C170.137 26.7716 168.743 32.4792 170.817 37.0313C172.891 41.5835 177.647 43.2565 181.441 40.7681Z" fill="#FFB8B8"/>
<path d="M176.904 44.4956L179.872 39.9174L184.106 39.6971L184.529 44.0029L186.627 45.1637C188.722 54.7133 189.045 64.6979 187.574 74.4137C187.293 74.7314 187.088 75.1333 186.979 75.578C186.871 76.0228 186.863 76.4942 186.957 76.9436L187.093 77.5943L187.08 77.6181C186.634 78.4633 186.483 79.4853 186.659 80.4634L190.494 88.641C182.349 92.6242 176.379 85.196 170.847 75.4613L167.424 61.2424L176.904 44.4956Z" fill="#24A4CC"/>
<path d="M176.377 21.1132H181.434C184.75 21.1132 187.437 24.7413 187.437 29.2167C189.939 32.2308 189.188 36.0068 187.203 40.0719C183.621 40.6066 180.117 41.7311 176.791 43.4136L176.319 40.9949L175.388 44.1802C174.56 44.6617 173.738 45.1881 172.924 45.7595C173.875 40.4033 174.266 35.0596 173.613 30.9085H171.9V28.6594L171.319 30.9085H168.214C168.214 29.6222 168.425 28.3484 168.835 27.16C169.245 25.9716 169.847 24.8918 170.605 23.9822C171.363 23.0726 172.263 22.3511 173.253 21.8588C174.244 21.3666 175.305 21.1132 176.377 21.1132Z" fill="#2F2E41"/>
<path d="M167.98 70.8197L167.181 61.2266L177.794 42.376L178.23 42.7296L167.724 61.3913L168.504 70.7568L167.98 70.8197Z" fill="#2F2E41"/>
<path d="M168.242 71.7362C168.679 71.7362 169.032 71.3118 169.032 70.7883C169.032 70.2647 168.679 69.8403 168.242 69.8403C167.806 69.8403 167.452 70.2647 167.452 70.7883C167.452 71.3118 167.806 71.7362 168.242 71.7362Z" fill="#2F2E41"/>
<path d="M183.121 24.8136C185.157 24.8136 186.808 22.833 186.808 20.3899C186.808 17.9467 185.157 15.9662 183.121 15.9662C181.085 15.9662 179.434 17.9467 179.434 20.3899C179.434 22.833 181.085 24.8136 183.121 24.8136Z" fill="#2F2E41"/>
<path d="M175.134 93.8211C175.292 93.8219 175.45 93.8398 175.605 93.8745L178.192 74.2225L175.601 55.3036C175.438 54.1135 175.657 52.8934 176.214 51.8895C176.771 50.8856 177.625 50.1725 178.603 49.8942C179.581 49.6158 180.61 49.7928 181.484 50.3895C182.357 50.9862 183.01 51.9582 183.31 53.1094C184.281 56.84 184.762 60.7296 184.735 64.638L184.644 77.5402L177.747 97.3554C177.687 97.9599 177.482 98.5306 177.158 98.9988C176.834 99.467 176.404 99.8128 175.919 99.9947C175.435 100.176 174.918 100.187 174.429 100.024C173.94 99.8607 173.501 99.5317 173.164 99.0763C172.827 98.6209 172.607 98.0585 172.531 97.4567C172.454 96.8549 172.524 96.2393 172.732 95.6841C172.94 95.1289 173.278 94.6577 173.704 94.3272C174.13 93.9967 174.627 93.8209 175.134 93.8211Z" fill="#FFB8B8"/>
<path d="M184.736 72.8292L177.686 73.2495L173.627 56.0674C173.626 55.0829 173.787 54.1079 174.101 53.1982C174.415 52.2884 174.875 51.4617 175.455 50.7654C176.034 50.069 176.723 49.5166 177.481 49.1397C178.239 48.7628 179.052 48.5688 179.872 48.5688C180.693 48.5688 181.505 48.7628 182.263 49.1397C183.021 49.5166 183.71 50.069 184.29 50.7654C184.869 51.4617 185.329 52.2884 185.643 53.1982C185.957 54.1079 186.118 55.0829 186.117 56.0674L184.736 72.8292Z" fill="#2F2E41"/>
</g>
<defs>
<clipPath id="clip0_11_218">
<rect width="223" height="186" fill="white"/>
</clipPath>
</defs>
</svg>
