<svg width="196" height="208" viewBox="0 0 196 208" fill="none" xmlns="http://www.w3.org/2000/svg">
<g clip-path="url(#clip0_11_87)">
<path d="M194.106 195.07H0.157787C0.137066 195.07 0.116548 195.066 0.0974047 195.057C0.078261 195.049 0.0608667 195.037 0.0462148 195.021C0.0315629 195.005 0.0199404 194.987 0.0120108 194.966C0.00408129 194.946 0 194.924 0 194.901C0 194.879 0.00408129 194.857 0.0120108 194.837C0.0199404 194.816 0.0315629 194.798 0.0462148 194.782C0.0608667 194.766 0.078261 194.754 0.0974047 194.745C0.116548 194.737 0.137066 194.732 0.157787 194.732H194.105C194.147 194.732 194.187 194.75 194.217 194.782C194.246 194.814 194.263 194.857 194.263 194.901C194.263 194.946 194.246 194.989 194.217 195.021C194.187 195.053 194.147 195.07 194.105 195.07H194.106Z" fill="#292A2E"/>
<g opacity="0.65">
<path d="M194.106 195.07H0.157787C0.137066 195.07 0.116548 195.066 0.0974047 195.057C0.078261 195.049 0.0608667 195.037 0.0462148 195.021C0.0315629 195.005 0.0199404 194.987 0.0120108 194.966C0.00408129 194.946 0 194.924 0 194.901C0 194.879 0.00408129 194.857 0.0120108 194.837C0.0199404 194.816 0.0315629 194.798 0.0462148 194.782C0.0608667 194.766 0.078261 194.754 0.0974047 194.745C0.116548 194.737 0.137066 194.732 0.157787 194.732H194.105C194.147 194.732 194.187 194.75 194.217 194.782C194.246 194.814 194.263 194.857 194.263 194.901C194.263 194.946 194.246 194.989 194.217 195.021C194.187 195.053 194.147 195.07 194.105 195.07H194.106Z" fill="#292A2E"/>
</g>
<path d="M13.6605 194.773L13.2178 194.682L20.137 121.058L20.5797 121.15L13.6605 194.773Z" fill="#494949"/>
<path d="M39.4245 194.773L38.9818 194.682L45.901 121.058L46.3434 121.15L39.4245 194.773Z" fill="#494949"/>
<path d="M96.3739 194.773L96.8166 194.682L89.8977 121.058L89.455 121.15L96.3739 194.773Z" fill="#494949"/>
<path d="M70.6102 194.773L71.0527 194.682L64.1337 121.058L63.691 121.15L70.6102 194.773Z" fill="#494949"/>
<path d="M61.4341 88.6568L60.9872 88.7207L65.0293 121.137L65.4761 121.073L61.4341 88.6568Z" fill="#494949"/>
<path d="M15.0391 88.6564L14.5922 88.7203L18.6343 121.136L19.0811 121.072L15.0391 88.6564Z" fill="#494949"/>
<path d="M65.4375 118.73H20.0579C18.8335 118.73 17.841 119.793 17.841 121.104V121.104C17.841 122.415 18.8335 123.478 20.0579 123.478H65.4375C66.6618 123.478 67.6544 122.415 67.6544 121.104V121.104C67.6544 119.793 66.6618 118.73 65.4375 118.73Z" fill="#292A2E"/>
<path opacity="0.8" d="M65.4375 118.73H20.0579C18.8335 118.73 17.841 119.793 17.841 121.104V121.104C17.841 122.415 18.8335 123.478 20.0579 123.478H65.4375C66.6618 123.478 67.6544 122.415 67.6544 121.104V121.104C67.6544 119.793 66.6618 118.73 65.4375 118.73Z" fill="white"/>
<path d="M65.4366 123.719H20.0579C19.4142 123.713 18.799 123.434 18.346 122.945C17.893 122.455 17.6388 121.793 17.6388 121.104C17.6388 120.415 17.893 119.753 18.346 119.264C18.799 118.774 19.4142 118.496 20.0579 118.489H65.4366C66.0803 118.496 66.6955 118.774 67.1485 119.264C67.6015 119.753 67.8557 120.415 67.8557 121.104C67.8557 121.793 67.6015 122.455 67.1485 122.945C66.6955 123.434 66.0803 123.713 65.4366 123.719ZM20.0579 118.972C19.5334 118.978 19.0322 119.205 18.6633 119.604C18.2943 120.003 18.0874 120.542 18.0874 121.104C18.0874 121.666 18.2943 122.205 18.6633 122.604C19.0322 123.003 19.5334 123.231 20.0579 123.237H65.4366C65.9611 123.231 66.4623 123.003 66.8312 122.604C67.2002 122.205 67.4071 121.666 67.4071 121.104C67.4071 120.542 67.2002 120.003 66.8312 119.604C66.4623 119.205 65.9611 118.978 65.4366 118.972H20.0579Z" fill="#292A2E"/>
<path d="M90.3442 118.73H44.9646C43.7403 118.73 42.7477 119.793 42.7477 121.104V121.104C42.7477 122.415 43.7403 123.478 44.9646 123.478H90.3442C91.5686 123.478 92.5611 122.415 92.5611 121.104V121.104C92.5611 119.793 91.5686 118.73 90.3442 118.73Z" fill="white"/>
<path d="M90.3444 123.719H44.9648C44.6421 123.723 44.322 123.658 44.0229 123.528C43.7239 123.398 43.4518 123.206 43.2225 122.962C42.9932 122.719 42.8112 122.43 42.687 122.111C42.5628 121.792 42.4988 121.45 42.4988 121.104C42.4988 120.759 42.5628 120.416 42.687 120.098C42.8112 119.779 42.9932 119.489 43.2225 119.246C43.4518 119.003 43.7239 118.811 44.0229 118.681C44.322 118.551 44.6421 118.486 44.9648 118.489H90.3444C90.6671 118.486 90.9873 118.551 91.2863 118.681C91.5854 118.811 91.8574 119.003 92.0867 119.246C92.316 119.489 92.498 119.779 92.6222 120.098C92.7465 120.416 92.8104 120.759 92.8104 121.104C92.8104 121.45 92.7465 121.792 92.6222 122.111C92.498 122.43 92.316 122.719 92.0867 122.962C91.8574 123.206 91.5854 123.398 91.2863 123.528C90.9873 123.658 90.6671 123.723 90.3444 123.719ZM44.9648 118.972C44.7015 118.969 44.4402 119.022 44.1961 119.127C43.952 119.233 43.73 119.39 43.5428 119.588C43.3556 119.786 43.207 120.023 43.1056 120.283C43.0041 120.543 42.9519 120.822 42.9519 121.104C42.9519 121.386 43.0041 121.665 43.1056 121.926C43.207 122.186 43.3556 122.422 43.5428 122.62C43.73 122.819 43.952 122.975 44.1961 123.081C44.4402 123.187 44.7015 123.24 44.9648 123.237H90.3444C90.6077 123.24 90.869 123.187 91.1131 123.081C91.3572 122.975 91.5792 122.819 91.7664 122.62C91.9536 122.422 92.1022 122.186 92.2037 121.926C92.3051 121.665 92.3573 121.386 92.3573 121.104C92.3573 120.822 92.3051 120.543 92.2037 120.283C92.1022 120.023 91.9536 119.786 91.7664 119.588C91.5792 119.39 91.3572 119.233 91.1131 119.127C90.869 119.022 90.6077 118.969 90.3444 118.972H44.9648Z" fill="#292A2E"/>
<path d="M58.9482 88.688H14.9375C14.218 88.688 13.523 88.4076 12.9824 87.8992C12.4418 87.3908 12.0924 86.6891 11.9995 85.9251L9.08832 61.9867C9.03388 61.5393 9.06921 61.0845 9.19196 60.6528C9.31471 60.2211 9.52205 59.8225 9.80015 59.4834C10.0782 59.1444 10.4207 58.8727 10.8046 58.6867C11.1885 58.5006 11.6051 58.4044 12.0265 58.4044H56.037C56.7565 58.4044 57.4515 58.6848 57.9921 59.1932C58.5327 59.7016 58.8821 60.4033 58.975 61.1673L61.8862 85.1057C61.9406 85.5531 61.9052 86.0079 61.7824 86.4395C61.6597 86.8712 61.4524 87.2698 61.1743 87.6088C60.8963 87.9479 60.5539 88.2195 60.17 88.4056C59.7861 88.5917 59.3696 88.688 58.9482 88.688Z" fill="#292A2E"/>
<path opacity="0.8" d="M58.9482 88.688H14.9375C14.218 88.688 13.523 88.4076 12.9824 87.8992C12.4418 87.3908 12.0924 86.6891 11.9995 85.9251L9.08832 61.9867C9.03388 61.5393 9.06921 61.0845 9.19196 60.6528C9.31471 60.2211 9.52205 59.8225 9.80015 59.4834C10.0782 59.1444 10.4207 58.8727 10.8046 58.6867C11.1885 58.5006 11.6051 58.4044 12.0265 58.4044H56.037C56.7565 58.4044 57.4515 58.6848 57.9921 59.1932C58.5327 59.7016 58.8821 60.4033 58.975 61.1673L61.8862 85.1057C61.9406 85.5531 61.9052 86.0079 61.7824 86.4395C61.6597 86.8712 61.4524 87.2698 61.1743 87.6088C60.8963 87.9479 60.5539 88.2195 60.17 88.4056C59.7861 88.5917 59.3696 88.688 58.9482 88.688Z" fill="white"/>
<path d="M58.9482 88.9294H14.9375C14.1638 88.9275 13.4169 88.6252 12.8355 88.0786C12.2541 87.5319 11.8776 86.778 11.7759 85.9568L8.86471 62.0183C8.80613 61.5369 8.84416 61.0475 8.97624 60.583C9.10832 60.1185 9.33143 59.6895 9.63066 59.3247C9.92989 58.9598 10.2984 58.6675 10.7115 58.4673C11.1246 58.2671 11.5728 58.1635 12.0263 58.1635H56.037C56.8108 58.1654 57.5578 58.4678 58.1392 59.0146C58.7207 59.5614 59.0972 60.3155 59.1988 61.1369L62.11 85.075C62.1685 85.5565 62.1304 86.0459 61.9983 86.5104C61.8661 86.9748 61.643 87.4038 61.3438 87.7686C61.0445 88.1335 60.6761 88.4258 60.263 88.626C59.8499 88.8262 59.4016 88.9298 58.9482 88.9299V88.9294ZM12.0263 58.6458C11.637 58.6458 11.2521 58.7347 10.8974 58.9067C10.5427 59.0786 10.2264 59.3296 9.96948 59.6428C9.71258 59.9561 9.52104 60.3244 9.40764 60.7232C9.29425 61.1221 9.26162 61.5422 9.31192 61.9556L12.2229 85.894C12.3102 86.5992 12.6335 87.2466 13.1327 87.716C13.6319 88.1854 14.2731 88.445 14.9375 88.4466H58.9482C59.3376 88.4466 59.7225 88.3577 60.0772 88.1857C60.432 88.0137 60.7484 87.7627 61.0053 87.4494C61.2623 87.136 61.4538 86.7676 61.5672 86.3687C61.6805 85.9698 61.7131 85.5496 61.6628 85.1361L58.7516 61.198C58.6642 60.4928 58.341 59.8455 57.8418 59.3762C57.3426 58.9068 56.7013 58.6473 56.037 58.6458H12.0263Z" fill="#292A2E"/>
<path d="M61.4369 88.688H17.4262C16.7067 88.688 16.0117 88.4077 15.471 87.8993C14.9304 87.3909 14.581 86.6892 14.488 85.9251L11.5768 61.9867C11.5225 61.5393 11.5579 61.0846 11.6806 60.6529C11.8034 60.2213 12.0108 59.8226 12.2888 59.4836C12.5669 59.1446 12.9093 58.8729 13.2932 58.6868C13.6771 58.5007 14.0937 58.4045 14.5151 58.4044H58.5257C59.2453 58.4044 59.9402 58.6848 60.4809 59.1932C61.0216 59.7016 61.371 60.4033 61.4639 61.1673L64.3751 85.1057C64.4295 85.5532 64.3941 86.0079 64.2713 86.4395C64.1485 86.8712 63.9412 87.2698 63.6631 87.6088C63.385 87.9479 63.0426 88.2195 62.6587 88.4056C62.2748 88.5917 61.8583 88.688 61.4369 88.688Z" fill="white"/>
<path d="M61.4369 88.9294H17.4263C16.6525 88.9276 15.9057 88.6253 15.3243 88.0786C14.7428 87.532 14.3664 86.7781 14.2647 85.9568L11.3535 62.0183C11.2949 61.5369 11.3329 61.0475 11.465 60.583C11.5971 60.1185 11.8202 59.6895 12.1194 59.3247C12.4187 58.9598 12.7871 58.6675 13.2002 58.4673C13.6134 58.2671 14.0616 58.1635 14.5151 58.1635H58.5257C59.2996 58.1654 60.0465 58.4678 60.628 59.0146C61.2094 59.5614 61.5858 60.3155 61.6874 61.1369L64.5985 85.075C64.6571 85.5565 64.6191 86.0459 64.487 86.5104C64.3549 86.9749 64.1318 87.4039 63.8326 87.7687C63.5333 88.1336 63.1649 88.4258 62.7518 88.6261C62.3386 88.8263 61.8904 88.9299 61.4369 88.9299V88.9294ZM14.5151 58.6458C14.1257 58.6458 13.7409 58.7347 13.3862 58.9067C13.0315 59.0786 12.7151 59.3296 12.4582 59.6428C12.2013 59.9561 12.0097 60.3244 11.8963 60.7232C11.7829 61.122 11.7502 61.5422 11.8005 61.9556L14.7116 85.894C14.7989 86.5992 15.1221 87.2467 15.6213 87.7161C16.1206 88.1855 16.7619 88.4451 17.4263 88.4466H61.4369C61.8264 88.4467 62.2113 88.3578 62.5661 88.1858C62.9209 88.0138 63.2373 87.7628 63.4943 87.4495C63.7512 87.1361 63.9428 86.7677 64.0562 86.3688C64.1695 85.9698 64.2021 85.5496 64.1518 85.1361L61.2406 61.198C61.1533 60.4927 60.8301 59.8452 60.3309 59.3758C59.8317 58.9063 59.1904 58.6467 58.526 58.6451L14.5151 58.6458Z" fill="#292A2E"/>
<path d="M123.507 182.46C123.507 182.46 124.716 189.168 130.581 189.542C136.447 189.915 135.175 194.919 135.175 194.919H112.759V182.928L123.507 182.46Z" fill="black"/>
<path d="M80.8621 178.224C80.8621 178.224 79.1812 184.815 84.2906 187.923C89.4 191.031 86.1957 194.919 86.1957 194.919L66.0819 184.324L71.0254 173.563L80.8621 178.224Z" fill="black"/>
<path d="M62.8126 21.9111C62.8126 21.9111 65.7371 19.5474 66.4618 14.1066C67.0228 9.89382 63.3937 12.6229 63.3937 12.6229C63.3937 12.6229 63.7701 9.5856 61.7031 9.88682C59.6361 10.188 58.4798 13.3793 58.4798 13.3793" fill="#0C0C0C"/>
<path d="M51.0212 10.2423C51.0212 10.2423 40.7661 11.4197 44.4732 26.2993L45.3807 26.3642L47.2228 26.4965" fill="#0C0C0C"/>
<path d="M61.0949 41.8387C61.0499 41.8324 60.5495 50.7209 50.9051 49.9466C44.2284 49.4113 41.8478 41.8262 41.6948 41.8262C42.4148 41.6623 43.3042 41.4137 43.6579 41.3282C44.4284 41.1367 45.1262 40.6985 45.6584 40.072C46.1906 39.4454 46.5321 38.6602 46.6374 37.8208C46.8328 36.5608 46.5021 30.1145 46.6033 28.8396L56.8521 31.2892C56.7089 33.9816 55.7065 40.2235 59.2189 41.3282C59.8042 41.511 60.4338 41.6789 61.0949 41.8387Z" fill="#E98862"/>
<path opacity="0.52" d="M56.9961 38.7773C56.8356 38.2233 56.7322 37.6522 56.6877 37.0742C56.5752 35.755 56.5979 34.4266 56.7554 33.1127C54.6723 32.8116 52.7098 31.891 51.091 30.4553C50.9008 31.2079 49.8542 34.4962 50.1443 35.2116C50.6909 36.5635 53.2644 38.7773 56.9961 38.7773Z" fill="#0C0C0C"/>
<path d="M54.8808 37.018C50.8374 36.6296 45.9981 33.8942 45.9284 28.0173L45.8653 22.7148C45.7957 16.8378 48.6216 12.0345 53.7894 11.9642C58.9569 11.8937 62.8761 16.6054 62.9458 22.4821L62.9737 24.8296C62.9702 25.6358 62.9153 26.4409 62.8094 27.2391C62.5443 29.3511 62.1332 32.5619 60.7949 34.7342C59.5308 36.7846 57.4638 37.2661 54.8808 37.018Z" fill="#E98862"/>
<path d="M56.7567 31.6462C57.5911 31.6867 58.4227 31.5166 59.1844 31.1497C59.2001 31.1425 59.2144 31.1321 59.2264 31.119C59.2384 31.1059 59.2478 31.0904 59.2542 31.0734C59.2606 31.0563 59.2638 31.0382 59.2636 31.0198C59.2634 31.0015 59.2599 30.9834 59.2531 30.9665C59.2464 30.9497 59.2367 30.9344 59.2244 30.9215C59.2122 30.9087 59.1977 30.8986 59.1818 30.8918C59.1659 30.8849 59.149 30.8815 59.1318 30.8817C59.1147 30.8819 59.0978 30.8857 59.082 30.8929C57.4411 31.6423 55.9509 31.5325 54.7729 30.5755C54.7491 30.5554 54.7243 30.5366 54.6987 30.5193C54.6691 30.5046 54.6354 30.5023 54.6043 30.5129C54.5732 30.5235 54.547 30.5461 54.5307 30.5764C54.5144 30.6067 54.5094 30.6424 54.5165 30.6765C54.5236 30.7106 54.5424 30.7406 54.5691 30.7606C54.5786 30.7669 54.5937 30.7797 54.6142 30.7973C55.2335 31.3024 55.9795 31.598 56.7567 31.6462Z" fill="#0C0C0C"/>
<path d="M56.7177 32.9701C56.8685 32.9801 57.0198 32.9763 57.1699 32.9585C57.2043 32.9546 57.2358 32.9362 57.2575 32.9074C57.2792 32.8786 57.2894 32.8418 57.2858 32.805C57.2821 32.7682 57.265 32.7344 57.2381 32.7112C57.2112 32.6879 57.1768 32.677 57.1424 32.6809C56.2392 32.7837 55.8082 32.3406 55.7899 32.3215C55.7653 32.2965 55.7324 32.2828 55.6985 32.2833C55.6645 32.2838 55.6321 32.2985 55.608 32.3242C55.584 32.3499 55.5702 32.3846 55.5697 32.421C55.5692 32.4574 55.582 32.4925 55.6053 32.519C55.9164 32.8023 56.3094 32.9617 56.7177 32.9701Z" fill="#0C0C0C"/>
<path d="M61.2392 25.9597C61.5908 25.9597 61.8758 25.6545 61.8758 25.278C61.8758 24.9016 61.5908 24.5964 61.2392 24.5964C60.8877 24.5964 60.6027 24.9016 60.6027 25.278C60.6027 25.6545 60.8877 25.9597 61.2392 25.9597Z" fill="#0C0C0C"/>
<path d="M55.0206 25.5419C55.3722 25.5419 55.6571 25.2367 55.6571 24.8603C55.6571 24.4838 55.3722 24.1786 55.0206 24.1786C54.669 24.1786 54.384 24.4838 54.384 24.8603C54.384 25.2367 54.669 25.5419 55.0206 25.5419Z" fill="#0C0C0C"/>
<path d="M46.2706 29.8034C44.7002 29.8248 43.4059 28.0431 43.3854 26.3615C43.3649 24.68 44.6274 23.7355 46.1978 23.714L47.0203 24.8296L47.6204 29.785L46.2706 29.8034Z" fill="#E98862"/>
<path d="M47.832 27.1013C47.832 27.1013 48.3624 18.7856 50.7173 18.2723C52.2857 17.9303 56.089 20.3123 59.6117 19.5928C61.1531 19.279 62.6162 19.6867 62.765 20.466C62.8238 20.7747 63.7841 16.3387 61.3706 12.9731C59.449 10.294 53.1605 9.53612 50.2996 10.4147C42.378 12.8481 45.8737 24.0802 45.8737 24.0802L46.2269 26.9469L47.832 27.1013Z" fill="#0C0C0C"/>
<path d="M57.705 29.6837C57.7084 29.6839 57.7118 29.6839 57.7152 29.6837C58.2212 29.6781 59.0694 29.6086 59.066 29.2031C59.0627 28.8671 58.17 25.2508 58.0679 24.8395C58.0567 24.8075 58.0347 24.781 58.0062 24.7654C57.9778 24.7497 57.9449 24.7459 57.914 24.7547C57.8831 24.7635 57.8564 24.7843 57.839 24.8131C57.8216 24.8418 57.8148 24.8764 57.82 24.9102C58.2165 26.5119 58.807 28.9777 58.8095 29.2065C58.7606 29.3031 58.2379 29.4023 57.7138 29.408C57.6808 29.4088 57.6492 29.4231 57.6258 29.448C57.6023 29.473 57.5887 29.5066 57.5877 29.542C57.5867 29.5773 57.5984 29.6118 57.6205 29.6381C57.6425 29.6645 57.6732 29.6808 57.7061 29.6837H57.705Z" fill="#0C0C0C"/>
<path d="M59.4325 21.5823C59.9644 21.4256 60.5259 21.4256 61.0578 21.5823C61.319 21.6575 61.5683 21.7743 61.7971 21.9289C62.0233 22.0802 62.2308 22.2616 62.4145 22.4686C62.4497 22.5051 62.4702 22.555 62.4715 22.6074C62.4728 22.6599 62.4549 22.7109 62.4215 22.7494C62.3882 22.7879 62.3421 22.8108 62.2932 22.8134C62.2442 22.816 62.1962 22.7979 62.1596 22.7631L62.1481 22.7524C61.9779 22.5838 61.7885 22.4387 61.5845 22.3206C61.3844 22.2032 61.1688 22.119 60.9451 22.0708C60.5047 21.9717 60.0477 21.999 59.6203 22.15L59.6023 22.1568C59.5318 22.1835 59.4542 22.1791 59.3868 22.1445C59.3193 22.11 59.2673 22.0482 59.2424 21.9727C59.2175 21.8972 59.2216 21.8142 59.2538 21.7419C59.2861 21.6697 59.3438 21.6141 59.4143 21.5874L59.4325 21.5823Z" fill="#0C0C0C"/>
<path d="M55.6664 21.9243C55.2617 21.7137 54.8123 21.6214 54.3635 21.6567C54.1358 21.6725 53.9116 21.7252 53.6986 21.8131C53.482 21.9011 53.2767 22.0179 53.0873 22.1606L53.0751 22.1693C53.0344 22.1972 52.9853 22.2073 52.9379 22.1974C52.8905 22.1875 52.8484 22.1585 52.8205 22.1163C52.7926 22.0741 52.781 22.022 52.788 21.9708C52.795 21.9196 52.8202 21.8733 52.8582 21.8415C53.0662 21.6626 53.2944 21.5124 53.5374 21.3945C53.7835 21.2742 54.045 21.194 54.3133 21.1565C54.5819 21.1161 54.8545 21.1154 55.1234 21.1544C55.3993 21.1911 55.669 21.2697 55.9243 21.3878C55.993 21.4198 56.0471 21.4797 56.0746 21.5544C56.102 21.6291 56.1007 21.7124 56.0708 21.786C56.0409 21.8596 55.9849 21.9175 55.9152 21.9469C55.8454 21.9764 55.7676 21.9749 55.6989 21.9429C55.6937 21.9405 55.6883 21.9378 55.6833 21.9349L55.6664 21.9243Z" fill="#0C0C0C"/>
<path d="M58.6758 15.8577C59.8382 15.5976 60.4907 13.9017 60.1333 12.0697C59.7758 10.2377 58.5437 8.96339 57.3813 9.22344C56.2189 9.48349 55.5663 11.1794 55.9238 13.0114C56.2812 14.8434 57.5133 16.1177 58.6758 15.8577Z" fill="#0C0C0C"/>
<path d="M68.4044 176.363L85.3662 119.066H54.6203C48.4441 119.066 45.8694 113.457 45.8694 106.845C45.8694 100.232 51.9411 94.4346 58.1169 94.4346H99.6126C103.379 94.4346 107.603 96.9014 109.671 100.273C111.738 103.645 111.179 108.87 109.681 112.571L82.5193 183.21" fill="#262626"/>
<path opacity="0.8" d="M68.4044 176.363L85.3662 119.066H54.6203C48.4441 119.066 45.8694 113.457 45.8694 106.845C45.8694 100.232 51.9411 94.4346 58.1169 94.4346H99.6126C103.379 94.4346 107.603 96.9014 109.671 100.273C111.738 103.645 111.179 108.87 109.681 112.571L82.5193 183.21" fill="#0A0A0A"/>
<path d="M111.47 188.69L83.1087 119.066L45.869 119.063C37.1431 118.33 33.1468 113.21 33.2739 106.598C33.3993 100.071 36.486 93.6232 42.5547 93.6232H92.7473C97.2375 93.7221 100.77 99.0353 102.436 103.501L126.014 184.427" fill="#262626"/>
<path d="M30.734 93.7033C30.734 93.7033 29.0802 105.252 31.7017 111.672C34.9744 119.688 47.2431 119.063 47.2431 119.063L46.5517 93.6237L30.734 93.7033Z" fill="#262626"/>
<path d="M103.503 93.4759L77.1976 87.6393C76.1014 87.3961 75.0803 86.8608 74.2286 86.0829C73.3769 85.305 72.7222 84.3097 72.3251 83.189L61.9788 53.9954C61.6637 53.1193 61.5135 52.1851 61.5366 51.2466C61.5597 50.3081 61.7558 49.3837 62.1135 48.5265C62.4713 47.6694 62.9836 46.8964 63.6212 46.2519C64.2588 45.6074 65.009 45.1042 65.8288 44.771C66.6485 44.4379 67.5216 44.2815 68.398 44.3108C69.2744 44.3401 70.1367 44.5545 70.9355 44.9417C71.7342 45.3289 72.4537 45.8812 73.0525 46.567C73.6513 47.2528 74.1177 48.0585 74.4248 48.9379L83.4755 74.4741L106.205 79.5172C106.205 79.5172 103.959 93.5771 103.503 93.4759Z" fill="#24A4CC"/>
<path d="M73.078 61.4101C72.7744 65.2316 70.621 89.0727 70.328 93.7798H30.7514C30.5239 89.5345 29.5028 70.971 28.6406 62.6681C27.8174 54.7463 26.6635 51.1413 27.6116 48.6794C29.2837 44.3375 34.6061 42.3984 38.2104 41.8761C40.4111 41.557 43.7212 41.3282 43.7212 41.3282C43.7212 41.3282 44.0016 47.3992 50.6846 47.7371C59.7819 48.1957 59.1745 41.3282 59.2195 41.3282C60.6933 41.3282 68.7156 42.4759 70.7216 43.8758C73.555 45.8533 74.3921 48.5479 74.4253 51.0238C74.4634 53.8743 73.4224 57.075 73.078 61.4101Z" fill="#24A4CC"/>
<path d="M71.5227 80.8898H71.5132C71.4984 80.8885 71.4841 80.8841 71.4709 80.8768C71.4577 80.8696 71.446 80.8596 71.4365 80.8475C71.4269 80.8354 71.4197 80.8214 71.4151 80.8063C71.4106 80.7912 71.4089 80.7753 71.4102 80.7595L72.4376 67.5439C72.4384 67.528 72.4423 67.5124 72.4489 67.4981C72.4556 67.4838 72.4648 67.4711 72.4762 67.4608C72.4876 67.4505 72.5008 67.4427 72.515 67.4381C72.5293 67.4334 72.5443 67.4319 72.5591 67.4336C72.5739 67.4349 72.5882 67.4393 72.6014 67.4466C72.6146 67.4538 72.6263 67.4638 72.6358 67.4759C72.6454 67.488 72.6526 67.502 72.6572 67.5171C72.6617 67.5322 72.6633 67.5481 72.6621 67.5639L71.6347 80.7795C71.6323 80.8096 71.6194 80.8376 71.5987 80.858C71.578 80.8784 71.5508 80.8898 71.5227 80.8898Z" fill="#0C0C0C"/>
<path d="M77.8853 91.1589L86.569 62.5759C86.7216 62.0736 87.0188 61.636 87.4179 61.3256C87.817 61.0152 88.2976 60.848 88.7909 60.848H124.169C124.538 60.848 124.902 60.9414 125.23 61.1207C125.559 61.3 125.843 61.5601 126.06 61.8796C126.277 62.1991 126.42 62.569 126.477 62.9591C126.535 63.3491 126.505 63.7483 126.391 64.1238L117.708 92.7067C117.555 93.209 117.258 93.6467 116.859 93.9571C116.46 94.2674 115.979 94.4346 115.486 94.4346H80.1072C79.7384 94.4347 79.3748 94.3412 79.0463 94.1619C78.7177 93.9826 78.4334 93.7226 78.2167 93.403C77.9999 93.0835 77.8569 92.7136 77.7993 92.3235C77.7418 91.9335 77.7712 91.5344 77.8853 91.1589Z" fill="#292A2E"/>
<path opacity="0.2" d="M77.8853 91.1589L86.569 62.5759C86.7216 62.0736 87.0188 61.636 87.4179 61.3256C87.817 61.0152 88.2976 60.848 88.7909 60.848H124.169C124.538 60.848 124.902 60.9414 125.23 61.1207C125.559 61.3 125.843 61.5601 126.06 61.8796C126.277 62.1991 126.42 62.569 126.477 62.9591C126.535 63.3491 126.505 63.7483 126.391 64.1238L117.708 92.7067C117.555 93.209 117.258 93.6467 116.859 93.9571C116.46 94.2674 115.979 94.4346 115.486 94.4346H80.1072C79.7384 94.4347 79.3748 94.3412 79.0463 94.1619C78.7177 93.9826 78.4334 93.7226 78.2167 93.403C77.9999 93.0835 77.8569 92.7136 77.7993 92.3235C77.7418 91.9335 77.7712 91.5344 77.8853 91.1589Z" fill="white"/>
<path d="M84.9691 92.1171H61.2866C60.6965 92.1171 60.2181 92.6293 60.2181 93.2611V93.2906C60.2181 93.9224 60.6965 94.4346 61.2866 94.4346H84.9691C85.5592 94.4346 86.0375 93.9224 86.0375 93.2906V93.2611C86.0375 92.6293 85.5592 92.1171 84.9691 92.1171Z" fill="#292A2E"/>
<path opacity="0.2" d="M84.9691 92.1171H61.2866C60.6965 92.1171 60.2181 92.6293 60.2181 93.2611V93.2906C60.2181 93.9224 60.6965 94.4346 61.2866 94.4346H84.9691C85.5592 94.4346 86.0375 93.9224 86.0375 93.2906V93.2611C86.0375 92.6293 85.5592 92.1171 84.9691 92.1171Z" fill="white"/>
<path d="M102.138 83.0087C104.188 83.0087 105.849 81.2299 105.849 79.0357C105.849 76.8414 104.188 75.0626 102.138 75.0626C100.089 75.0626 98.4279 76.8414 98.4279 79.0357C98.4279 81.2299 100.089 83.0087 102.138 83.0087Z" fill="white"/>
<path d="M73.4366 56.0823H64.0291V68.4362H73.4366V56.0823Z" fill="white"/>
<path d="M64.0291 66.3841C63.2672 66.3841 62.5223 66.1422 61.8888 65.6889C61.2553 65.2356 60.7615 64.5914 60.4699 63.8376C60.1783 63.0838 60.102 62.2544 60.2507 61.4542C60.3993 60.654 60.7662 59.919 61.305 59.3421C61.8438 58.7652 62.5302 58.3723 63.2775 58.2131C64.0249 58.0539 64.7995 58.1356 65.5034 58.4479C66.2074 58.7601 66.809 59.2888 67.2323 59.9672C67.6557 60.6456 67.8816 61.4431 67.8816 62.259C67.8805 63.3527 67.4742 64.4012 66.752 65.1746C66.0298 65.9479 65.0505 66.3829 64.0291 66.3841ZM64.0291 59.8236C63.5792 59.8236 63.1395 59.9665 62.7654 60.2341C62.3913 60.5018 62.0998 60.8822 61.9276 61.3272C61.7555 61.7723 61.7104 62.262 61.7982 62.7345C61.886 63.2069 62.1027 63.6409 62.4208 63.9815C62.7389 64.3222 63.1443 64.5541 63.5855 64.6481C64.0268 64.742 64.4841 64.6937 64.8997 64.5094C65.3154 64.325 65.6706 64.0128 65.9205 63.6122C66.1704 63.2116 66.3038 62.7407 66.3037 62.259C66.3031 61.6132 66.0633 60.9941 65.6368 60.5376C65.2104 60.081 64.6322 59.8242 64.0291 59.8236Z" fill="white"/>
<path d="M64.5717 64.0893C64.4859 63.8506 64.3245 63.6519 64.1157 63.528C63.9069 63.404 63.664 63.3627 63.4295 63.4113C63.434 63.3997 63.4364 63.3873 63.4365 63.3748L63.7521 63.2237C63.9732 63.1231 64.155 62.9437 64.2668 62.716C64.3785 62.4883 64.4134 62.2263 64.3654 61.9742C64.3323 61.8168 64.2669 61.6693 64.1741 61.5422C64.0813 61.4151 63.9633 61.3117 63.8286 61.2394C63.6939 61.167 63.5459 61.1276 63.3953 61.1239C63.2447 61.1202 63.0952 61.1523 62.9575 61.218L62.2132 61.5745C62.2132 61.5714 62.2132 61.5682 62.2116 61.5651C62.2087 61.5587 62.2051 61.5527 62.2008 61.5472C62.3842 61.3992 62.5153 61.189 62.5729 60.951C62.6304 60.7129 62.6109 60.461 62.5175 60.2364C62.3108 59.6376 61.5782 59.5898 61.0938 59.8212L59.1476 60.6619L59.7351 60.024C59.9191 59.816 60.0225 59.5409 60.0244 59.2544C60.0264 58.9679 59.9267 58.6913 59.7454 58.4805C59.6483 58.3752 59.5321 58.2922 59.404 58.2366C59.2759 58.181 59.1385 58.1539 59.0003 58.157C58.8621 58.1602 58.7259 58.1934 58.6001 58.2547C58.4743 58.3161 58.3615 58.4042 58.2685 58.5138L51.3484 66.6062L53.7153 69.0469C54.4502 69.805 55.3798 70.3108 56.3849 70.4994C57.3901 70.6881 58.4249 70.551 59.3568 70.1057L63.5747 68.0809C63.7958 67.9803 63.9776 67.801 64.0894 67.5732C64.2012 67.3455 64.236 67.0834 64.188 66.8314C64.1401 66.6051 64.026 66.4011 63.8623 66.2492C63.6986 66.0972 63.4938 66.0052 63.2778 65.9866C63.2802 65.9741 63.2803 65.9612 63.278 65.9486C63.2757 65.9361 63.271 65.9242 63.2644 65.9135C63.2577 65.9029 63.2492 65.8938 63.2392 65.8868C63.2293 65.8797 63.2181 65.8748 63.2064 65.8724L63.9852 65.5003C64.2318 65.3885 64.4295 65.1806 64.5384 64.9186C64.6473 64.6567 64.6592 64.3602 64.5717 64.0893Z" fill="#E98862"/>
<path opacity="0.2" d="M60.806 62.2592C60.7837 62.2593 60.762 62.2511 60.7448 62.2359C60.7276 62.2207 60.7159 62.1995 60.7117 62.176C60.7075 62.1526 60.7111 62.1283 60.7219 62.1074C60.7327 62.0865 60.75 62.0702 60.7708 62.0616L62.0872 61.5064C62.0989 61.5015 62.1114 61.4991 62.1239 61.4993C62.1365 61.4995 62.1489 61.5024 62.1604 61.5078C62.1719 61.5131 62.1823 61.5209 62.191 61.5305C62.1997 61.5402 62.2066 61.5516 62.2112 61.5641C62.2158 61.5766 62.2181 61.59 62.2178 61.6034C62.2176 61.6168 62.2149 61.6301 62.2099 61.6424C62.2049 61.6548 62.1977 61.6659 62.1887 61.6752C62.1797 61.6846 62.169 61.6919 62.1573 61.6969L60.8409 62.252C60.8298 62.2567 60.818 62.2592 60.806 62.2592Z" fill="#0C0C0C"/>
<path opacity="0.2" d="M61.5406 64.2524C61.5184 64.2524 61.497 64.244 61.4799 64.2289C61.4629 64.2138 61.4512 64.1928 61.447 64.1695C61.4428 64.1462 61.4463 64.1221 61.4569 64.1012C61.4674 64.0804 61.4844 64.0641 61.505 64.0552L63.3056 63.2797C63.3288 63.271 63.3542 63.2722 63.3766 63.2831C63.3991 63.294 63.4167 63.3137 63.4259 63.3381C63.435 63.3626 63.4351 63.3899 63.4259 63.4143C63.4168 63.4388 63.3992 63.4585 63.3768 63.4694L61.5764 64.2452C61.565 64.2499 61.5529 64.2524 61.5406 64.2524Z" fill="#0C0C0C"/>
<path opacity="0.2" d="M62.3259 66.4165C62.3035 66.4165 62.2818 66.4081 62.2647 66.3927C62.2475 66.3774 62.2359 66.356 62.2319 66.3324C62.2279 66.3088 62.2317 66.2845 62.2428 66.2636C62.2538 66.2428 62.2714 66.2268 62.2923 66.2183L63.1507 65.8734C63.1744 65.8638 63.2007 65.8647 63.2239 65.8759C63.247 65.8871 63.265 65.9076 63.274 65.9331C63.283 65.9585 63.2821 65.9866 63.2717 66.0114C63.2613 66.0362 63.2421 66.0555 63.2183 66.0651L62.36 66.41C62.3491 66.4143 62.3375 66.4165 62.3259 66.4165Z" fill="#0C0C0C"/>
<path d="M66.5733 48.2242C66.5318 48.2243 66.4911 48.212 66.4556 48.1889C66.4202 48.1657 66.3914 48.1325 66.3725 48.0929C65.8592 47.0215 65.2206 45.6877 65.2927 44.2895C65.35 43.1776 65.8369 42.1897 66.3071 41.2356C66.611 40.6588 66.8699 40.0563 67.0814 39.434C67.3394 38.5754 67.4044 37.6636 67.2713 36.773C67.1381 35.8823 66.8104 35.0379 66.315 34.3084C66.2964 34.283 66.2828 34.2539 66.275 34.2228C66.2671 34.1916 66.2651 34.1591 66.2692 34.1272C66.2733 34.0952 66.2833 34.0645 66.2986 34.0367C66.314 34.009 66.3344 33.9848 66.3586 33.9656C66.3828 33.9465 66.4104 33.9327 66.4397 33.9251C66.469 33.9176 66.4994 33.9164 66.5291 33.9216C66.5588 33.9268 66.5872 33.9384 66.6127 33.9556C66.6382 33.9728 66.6602 33.9952 66.6774 34.0217C67.2156 34.8133 67.5717 35.7298 67.7166 36.6966C67.8615 37.6634 67.7913 38.6532 67.5115 39.5854C67.2925 40.2333 67.0236 40.8607 66.7076 41.461C66.2388 42.4117 65.7961 43.3096 65.7442 44.3163C65.6789 45.5837 66.2613 46.7999 66.775 47.8728C66.7926 47.9096 66.8011 47.9506 66.7997 47.9919C66.7982 48.0332 66.7869 48.0734 66.7668 48.1086C66.7467 48.1439 66.7185 48.1731 66.6848 48.1933C66.6512 48.2135 66.6132 48.2242 66.5747 48.2242H66.5733Z" fill="white"/>
<path d="M70.1927 51.9914C70.1428 51.9914 70.0942 51.9736 70.0547 51.9409C70.0152 51.9081 69.987 51.8622 69.9745 51.8104C69.962 51.7586 69.9659 51.7038 69.9857 51.6547C70.0055 51.6055 70.0399 51.5648 70.0836 51.5389C70.919 51.0455 71.0125 49.6724 70.6201 48.63C70.4254 48.1508 70.1977 47.6879 69.9387 47.245C69.5925 46.6712 69.311 46.0555 69.1002 45.4107C68.8849 44.6246 68.8714 43.7909 69.061 42.9972C69.2507 42.2036 69.6366 41.4793 70.1781 40.9006C70.2211 40.8567 70.2786 40.8327 70.338 40.8339C70.3974 40.8352 70.454 40.8615 70.4954 40.9071C70.5367 40.9528 70.5596 41.0141 70.559 41.0778C70.5584 41.1414 70.5343 41.2022 70.4921 41.2469C70.0093 41.763 69.6652 42.4089 69.4961 43.1166C69.327 43.8243 69.339 44.5677 69.5309 45.2688C69.7314 45.8771 69.9984 46.4578 70.3264 46.9988C70.5976 47.4623 70.8354 47.9471 71.038 48.4492C71.4976 49.6698 71.3953 51.3154 70.3012 51.9613C70.268 51.9809 70.2307 51.9913 70.1927 51.9914Z" fill="white"/>
<path d="M59.2829 73.0306L26.0912 87.7392C24.8945 88.2638 23.5811 88.4037 22.3113 88.1419C21.0415 87.8801 19.8705 87.228 18.9412 86.2652C18.0119 85.3024 17.3647 84.0706 17.0785 82.7203C16.7924 81.37 16.8798 79.9598 17.33 78.6618L27.2296 49.7093C28.5094 46.0194 32.1149 43.8975 35.5612 45.2682C37.216 45.9264 38.5589 47.2615 39.2944 48.9798C40.03 50.6981 40.0979 52.6589 39.4833 54.4309L34.9679 68.1343L54.4208 60.1039" fill="#24A4CC"/>
<path d="M59.202 73.1618C59.1843 73.1617 59.1671 73.156 59.1524 73.1454C59.1377 73.1349 59.1263 73.1199 59.1195 73.1025L54.2901 60.2619L34.9023 68.2738C34.8863 68.2804 34.8687 68.2819 34.8519 68.2781C34.8351 68.2743 34.8196 68.2653 34.8075 68.2523C34.7953 68.2392 34.787 68.2226 34.7835 68.2046C34.78 68.1866 34.7815 68.1678 34.7878 68.1507L37.7857 59.9115C37.7943 59.888 37.8112 59.8692 37.8327 59.859C37.8543 59.8489 37.8787 59.8484 37.9006 59.8575C37.9225 59.8667 37.9401 59.8848 37.9496 59.9079C37.959 59.9309 37.9595 59.9571 37.951 59.9805L35.026 68.0186L54.3079 60.0505C54.3296 60.0415 54.3538 60.0421 54.3752 60.052C54.3965 60.0619 54.4134 60.0805 54.4221 60.1036L59.2842 73.0313C59.2927 73.0547 59.2923 73.0807 59.2831 73.1038C59.274 73.127 59.2567 73.1453 59.2351 73.1551C59.2246 73.1595 59.2133 73.1618 59.202 73.1618Z" fill="#0C0C0C"/>
<path d="M28.8133 70.8233C28.7925 70.8235 28.7724 70.8159 28.7563 70.8017C28.7403 70.7876 28.7294 70.7679 28.7255 70.7461C28.7216 70.7242 28.725 70.7016 28.7352 70.6822C28.7453 70.6628 28.7615 70.6478 28.7808 70.6398L34.8532 68.0814C34.8641 68.0766 34.8757 68.0742 34.8875 68.0743C34.8993 68.0743 34.9109 68.0769 34.9217 68.0819C34.9326 68.0868 34.9424 68.094 34.9506 68.103C34.9588 68.112 34.9653 68.1227 34.9696 68.1345C34.9739 68.1462 34.976 68.1587 34.9757 68.1713C34.9755 68.1839 34.9729 68.1964 34.9682 68.2079C34.9634 68.2194 34.9565 68.2298 34.948 68.2385C34.9394 68.2471 34.9293 68.2539 34.9183 68.2583L28.8458 70.8168C28.8354 70.8211 28.8244 70.8233 28.8133 70.8233Z" fill="#0C0C0C"/>
<path d="M30.2275 86.0217C30.2069 86.0218 30.187 86.0142 30.171 86.0003C30.1551 85.9863 30.1442 85.9669 30.1402 85.9453C30.1362 85.9236 30.1394 85.9012 30.1491 85.8818C30.1589 85.8624 30.1747 85.8473 30.1937 85.839L59.1691 72.9791C59.1798 72.9744 59.1914 72.9719 59.203 72.972C59.2146 72.972 59.2262 72.9744 59.2369 72.9792C59.2477 72.984 59.2574 72.991 59.2656 72.9998C59.2739 73.0087 59.2804 73.0191 59.2848 73.0307C59.2893 73.0422 59.2915 73.0545 59.2915 73.067C59.2915 73.0795 59.2892 73.0918 59.2847 73.1033C59.2803 73.1148 59.2737 73.1253 59.2655 73.1341C59.2572 73.1429 59.2475 73.1499 59.2367 73.1546L30.2613 86.0144C30.2506 86.0193 30.2391 86.0217 30.2275 86.0217Z" fill="#0C0C0C"/>
<path d="M177.333 163.418C177.273 163.418 177.216 163.392 177.173 163.347C176.856 163.007 176.338 156.768 174.944 138.191C174.373 130.59 173.834 123.411 173.441 119.048C173.413 118.736 173.3 118.7 173.263 118.688C172.725 118.514 171.087 119.896 170.173 121.107C170.136 121.157 170.081 121.188 170.022 121.195C169.962 121.202 169.903 121.183 169.856 121.143C169.81 121.103 169.78 121.044 169.774 120.981C169.767 120.917 169.785 120.853 169.823 120.803C170.427 120.003 172.397 117.905 173.393 118.225C173.593 118.29 173.843 118.477 173.89 119.001C174.283 123.368 174.822 130.55 175.393 138.153C176.24 149.441 177.2 162.23 177.516 163.035C177.54 163.071 177.554 163.114 177.558 163.158C177.561 163.203 177.552 163.247 177.533 163.286C177.514 163.326 177.486 163.359 177.45 163.382C177.415 163.405 177.374 163.418 177.333 163.418Z" fill="#494949"/>
<path d="M172.862 127.054C176.602 123.843 177.842 118.846 175.631 115.893C173.42 112.939 168.595 113.147 164.855 116.357C161.114 119.568 159.875 124.565 162.086 127.519C164.297 130.472 169.121 130.264 172.862 127.054Z" fill="#24A4CC"/>
<path opacity="0.2" d="M172.862 127.054C176.602 123.843 177.842 118.846 175.631 115.893C173.42 112.939 168.595 113.147 164.855 116.357C161.114 119.568 159.875 124.565 162.086 127.519C164.297 130.472 169.121 130.264 172.862 127.054Z" fill="white"/>
<path d="M163.134 128.27C163.113 128.27 163.092 128.264 163.074 128.251C163.056 128.239 163.041 128.221 163.032 128.201C163.023 128.18 163.02 128.157 163.022 128.134C163.025 128.111 163.034 128.09 163.048 128.072L173.707 114.308C173.717 114.295 173.728 114.285 173.742 114.277C173.755 114.269 173.769 114.265 173.784 114.263C173.799 114.261 173.814 114.263 173.828 114.268C173.843 114.272 173.856 114.28 173.867 114.29C173.879 114.3 173.888 114.313 173.895 114.327C173.902 114.341 173.906 114.357 173.908 114.373C173.909 114.389 173.907 114.405 173.903 114.42C173.898 114.435 173.891 114.45 173.881 114.462L163.221 128.226C163.21 128.24 163.197 128.251 163.182 128.259C163.167 128.266 163.151 128.27 163.134 128.27Z" fill="white"/>
<path d="M179.658 160.467C179.622 160.467 179.586 160.458 179.554 160.44C179.522 160.422 179.495 160.397 179.474 160.365C179.453 160.334 179.44 160.298 179.435 160.259C179.429 160.221 179.433 160.182 179.445 160.146L183.449 147.815C183.567 147.453 183.768 147.128 184.033 146.871C184.299 146.613 184.62 146.431 184.969 146.341C185.317 146.251 185.681 146.256 186.027 146.355C186.373 146.455 186.69 146.646 186.949 146.911L189.066 149.076C189.109 149.121 189.134 149.181 189.136 149.245C189.137 149.309 189.115 149.371 189.073 149.418C189.032 149.464 188.975 149.491 188.916 149.492C188.856 149.494 188.798 149.47 188.755 149.425L186.638 147.26C186.433 147.051 186.183 146.9 185.91 146.822C185.637 146.743 185.349 146.739 185.075 146.81C184.8 146.881 184.546 147.025 184.336 147.228C184.127 147.432 183.968 147.688 183.875 147.974L179.871 160.305C179.855 160.352 179.827 160.393 179.788 160.422C179.75 160.451 179.705 160.467 179.658 160.467Z" fill="#494949"/>
<path d="M194.981 155.903C197.753 153.554 197.588 148.387 194.613 144.362C191.638 140.337 186.979 138.979 184.207 141.328C181.435 143.678 181.599 148.845 184.575 152.87C187.55 156.895 192.209 158.253 194.981 155.903Z" fill="#24A4CC"/>
<path d="M175.514 162.631C175.463 162.631 175.414 162.613 175.374 162.579C175.334 162.546 175.306 162.499 175.295 162.446L168.575 132.361C168.529 132.156 168.431 131.969 168.292 131.82C168.153 131.67 167.978 131.565 167.787 131.515C167.596 131.465 167.395 131.473 167.208 131.537C167.02 131.601 166.853 131.719 166.724 131.879L164.652 134.442C164.633 134.466 164.61 134.485 164.583 134.5C164.557 134.514 164.528 134.522 164.498 134.525C164.469 134.527 164.439 134.523 164.411 134.513C164.383 134.503 164.357 134.487 164.334 134.466C164.312 134.446 164.294 134.42 164.28 134.392C164.267 134.364 164.259 134.333 164.257 134.301C164.255 134.27 164.259 134.238 164.268 134.208C164.277 134.178 164.292 134.15 164.311 134.126L166.383 131.563C166.566 131.336 166.804 131.169 167.071 131.078C167.337 130.987 167.622 130.976 167.894 131.047C168.165 131.118 168.414 131.268 168.611 131.48C168.808 131.693 168.947 131.959 169.013 132.25L175.732 162.335C175.746 162.397 175.736 162.463 175.705 162.517C175.674 162.572 175.623 162.611 175.565 162.626C175.548 162.63 175.531 162.632 175.514 162.631Z" fill="#494949"/>
<path d="M173.035 141.125C173.852 136.067 171.69 131.444 168.207 130.799C164.723 130.154 161.237 133.731 160.42 138.789C159.603 143.847 161.765 148.47 165.249 149.115C168.732 149.76 172.218 146.183 173.035 141.125Z" fill="#24A4CC"/>
<path d="M177.333 163.418C177.324 163.418 177.314 163.417 177.305 163.416C177.246 163.408 177.192 163.375 177.155 163.325C177.118 163.274 177.102 163.21 177.109 163.147L181.4 125.842C181.447 125.436 181.602 125.052 181.847 124.738C182.093 124.424 182.418 124.192 182.783 124.071C183.149 123.95 183.539 123.944 183.907 124.055C184.275 124.166 184.606 124.388 184.859 124.696L189.763 130.643C189.803 130.691 189.823 130.754 189.819 130.818C189.816 130.882 189.788 130.942 189.744 130.984C189.699 131.027 189.64 131.048 189.58 131.044C189.521 131.04 189.465 131.011 189.425 130.963L184.521 125.015C184.325 124.777 184.07 124.606 183.785 124.52C183.5 124.434 183.198 124.439 182.916 124.532C182.634 124.626 182.382 124.805 182.193 125.048C182.003 125.292 181.883 125.588 181.847 125.902L177.556 163.206C177.549 163.264 177.523 163.318 177.482 163.357C177.441 163.396 177.388 163.417 177.333 163.418Z" fill="#494949"/>
<path d="M194.793 133.949C196.504 130.636 194.49 125.937 190.296 123.452C186.101 120.968 181.313 121.639 179.602 124.951C177.891 128.264 179.904 132.963 184.099 135.448C188.294 137.932 193.081 137.261 194.793 133.949Z" fill="#24A4CC"/>
<path opacity="0.2" d="M194.981 155.903C197.753 153.554 197.588 148.387 194.613 144.362C191.638 140.337 186.979 138.979 184.207 141.328C181.435 143.678 181.599 148.845 184.575 152.87C187.55 156.895 192.209 158.253 194.981 155.903Z" fill="white"/>
<path opacity="0.5" d="M173.035 141.125C173.852 136.067 171.69 131.444 168.207 130.799C164.723 130.154 161.237 133.731 160.42 138.789C159.603 143.847 161.765 148.47 165.249 149.115C168.732 149.76 172.218 146.183 173.035 141.125Z" fill="white"/>
<path opacity="0.5" d="M194.793 133.949C196.504 130.636 194.49 125.937 190.296 123.452C186.101 120.968 181.313 121.639 179.602 124.951C177.891 128.264 179.904 132.963 184.099 135.448C188.294 137.932 193.081 137.261 194.793 133.949Z" fill="white"/>
<path d="M182.821 195.07H171.844L170.026 157.465H184.64L182.821 195.07Z" fill="#292A2E"/>
<path opacity="0.3" d="M182.821 195.07H171.844L170.026 157.465H184.64L182.821 195.07Z" fill="white"/>
<path d="M194.981 156.023C194.964 156.023 194.947 156.019 194.932 156.011C194.916 156.003 194.903 155.991 194.892 155.977L184.118 141.402C184.099 141.377 184.091 141.345 184.094 141.313C184.098 141.281 184.113 141.252 184.136 141.232C184.16 141.212 184.189 141.203 184.219 141.207C184.249 141.211 184.276 141.227 184.294 141.252L195.069 155.827C195.082 155.845 195.091 155.866 195.093 155.888C195.095 155.911 195.092 155.934 195.082 155.954C195.073 155.975 195.059 155.992 195.041 156.004C195.023 156.016 195.002 156.023 194.981 156.023Z" fill="white"/>
<path d="M194.076 135.116C194.052 135.116 194.029 135.108 194.01 135.092L180.222 124.313C180.21 124.304 180.2 124.292 180.192 124.279C180.185 124.265 180.18 124.25 180.177 124.234C180.175 124.219 180.176 124.203 180.179 124.187C180.183 124.172 180.189 124.157 180.198 124.145C180.206 124.132 180.217 124.121 180.23 124.113C180.243 124.104 180.257 124.099 180.271 124.096C180.286 124.094 180.301 124.095 180.315 124.098C180.33 124.102 180.343 124.109 180.355 124.118L194.143 134.898C194.162 134.913 194.175 134.934 194.183 134.958C194.19 134.983 194.19 135.008 194.182 135.032C194.175 135.056 194.161 135.077 194.142 135.092C194.123 135.107 194.1 135.115 194.076 135.115V135.116Z" fill="white"/>
<path d="M164.688 148.958C164.679 148.958 164.669 148.957 164.659 148.954C164.63 148.946 164.606 148.926 164.591 148.898C164.576 148.87 164.572 148.837 164.579 148.806L168.969 131.198C168.972 131.183 168.979 131.168 168.988 131.155C168.997 131.142 169.008 131.131 169.021 131.123C169.034 131.115 169.048 131.11 169.063 131.108C169.078 131.106 169.093 131.107 169.107 131.111C169.122 131.115 169.135 131.122 169.147 131.132C169.159 131.142 169.169 131.154 169.176 131.168C169.183 131.182 169.188 131.197 169.19 131.213C169.192 131.229 169.19 131.245 169.186 131.26L164.797 148.869C164.791 148.894 164.777 148.917 164.757 148.933C164.737 148.949 164.713 148.958 164.688 148.958Z" fill="white"/>
</g>
<defs>
<clipPath id="clip0_11_87">
<rect width="196" height="208" fill="white"/>
</clipPath>
</defs>
</svg>
