<svg width="267" height="197" viewBox="0 0 267 197" fill="none" xmlns="http://www.w3.org/2000/svg">
<g clip-path="url(#clip0_12_67)">
<path d="M123.128 42.0264H57.2624C56.939 42.0261 56.629 41.9004 56.4003 41.6769C56.1716 41.4534 56.043 41.1505 56.0426 40.8345V24.868C56.043 24.552 56.1716 24.249 56.4003 24.0256C56.629 23.8021 56.939 23.6764 57.2624 23.676H123.128C123.451 23.6764 123.761 23.8021 123.99 24.0256C124.219 24.249 124.347 24.552 124.348 24.868V40.8345C124.347 41.1505 124.219 41.4534 123.99 41.6769C123.761 41.9004 123.451 42.0261 123.128 42.0264ZM57.2624 24.1528C57.0683 24.153 56.8823 24.2284 56.7451 24.3625C56.6079 24.4966 56.5307 24.6784 56.5305 24.868V40.8345C56.5307 41.0241 56.6079 41.2059 56.7451 41.3399C56.8823 41.474 57.0683 41.5494 57.2624 41.5496H123.128C123.322 41.5494 123.508 41.474 123.645 41.3399C123.782 41.2059 123.86 41.0241 123.86 40.8345V24.868C123.86 24.6784 123.782 24.4966 123.645 24.3625C123.508 24.2284 123.322 24.153 123.128 24.1528L57.2624 24.1528Z" fill="#3F3D56"/>
<path d="M67.4965 37.094C70.2406 37.094 72.4651 34.9202 72.4651 32.2386C72.4651 29.557 70.2406 27.3832 67.4965 27.3832C64.7525 27.3832 62.528 29.557 62.528 32.2386C62.528 34.9202 64.7525 37.094 67.4965 37.094Z" fill="#24A4CC"/>
<path d="M78.9715 29.0016C78.7518 29.0016 78.5412 29.0868 78.3859 29.2386C78.2306 29.3904 78.1434 29.5962 78.1434 29.8108C78.1434 30.0254 78.2306 30.2313 78.3859 30.383C78.5412 30.5348 78.7518 30.6201 78.9715 30.6201H118.01C118.23 30.6201 118.44 30.5348 118.596 30.383C118.751 30.2313 118.838 30.0254 118.838 29.8108C118.838 29.5962 118.751 29.3904 118.596 29.2386C118.44 29.0868 118.23 29.0016 118.01 29.0016H78.9715Z" fill="#E6E6E6"/>
<path d="M78.9715 33.8571C78.7518 33.8571 78.5412 33.9423 78.3859 34.0941C78.2306 34.2458 78.1434 34.4517 78.1434 34.6663C78.1434 34.8809 78.2306 35.0867 78.3859 35.2385C78.5412 35.3903 78.7518 35.4755 78.9715 35.4755H95.7699C95.8787 35.4757 95.9866 35.4549 96.0872 35.4144C96.1879 35.3738 96.2793 35.3142 96.3564 35.239C96.4334 35.1639 96.4946 35.0746 96.5363 34.9763C96.578 34.878 96.5994 34.7727 96.5994 34.6663C96.5994 34.5599 96.578 34.4545 96.5363 34.3563C96.4946 34.258 96.4334 34.1687 96.3564 34.0936C96.2793 34.0184 96.1879 33.9588 96.0872 33.9182C95.9866 33.8776 95.8787 33.8569 95.7699 33.8571H78.9715Z" fill="#E6E6E6"/>
<path d="M94.5331 98.9396H65.2594C64.936 98.9393 64.626 98.8136 64.3973 98.5901C64.1687 98.3666 64.0401 98.0637 64.0397 97.7477V67.9544C64.0401 67.6384 64.1687 67.3354 64.3973 67.112C64.626 66.8885 64.936 66.7628 65.2594 66.7625H94.5331C94.8564 66.7628 95.1665 66.8885 95.3951 67.112C95.6238 67.3354 95.7524 67.6384 95.7528 67.9544V97.7477C95.7524 98.0637 95.6238 98.3666 95.3951 98.5901C95.1665 98.8136 94.8564 98.9393 94.5331 98.9396ZM65.2594 67.2392C65.0654 67.2394 64.8793 67.3149 64.7421 67.4489C64.6049 67.583 64.5278 67.7648 64.5276 67.9544V97.7477C64.5278 97.9373 64.6049 98.1191 64.7421 98.2531C64.8793 98.3872 65.0654 98.4626 65.2594 98.4628H94.5331C94.7271 98.4626 94.9131 98.3872 95.0503 98.2531C95.1875 98.1191 95.2647 97.9373 95.2649 97.7477V67.9544C95.2647 67.7648 95.1875 67.583 95.0503 67.4489C94.9131 67.3149 94.7271 67.2394 94.5331 67.2392H65.2594Z" fill="#3F3D56"/>
<path d="M71.497 72.9064C71.2774 72.9064 71.0668 72.9916 70.9115 73.1434C70.7562 73.2952 70.6689 73.501 70.6689 73.7156C70.6689 73.9302 70.7562 74.1361 70.9115 74.2878C71.0668 74.4396 71.2774 74.5248 71.497 74.5248H88.2954C88.515 74.5248 88.7257 74.4396 88.881 74.2878C89.0363 74.1361 89.1235 73.9302 89.1235 73.7156C89.1235 73.501 89.0363 73.2952 88.881 73.1434C88.7257 72.9916 88.515 72.9064 88.2954 72.9064H71.497Z" fill="#E6E6E6"/>
<path d="M71.4971 77.6742C71.3882 77.674 71.2803 77.6948 71.1797 77.7354C71.079 77.776 70.9876 77.8355 70.9105 77.9107C70.8335 77.9859 70.7723 78.0751 70.7306 78.1734C70.6889 78.2717 70.6674 78.377 70.6674 78.4834C70.6674 78.5898 70.6889 78.6952 70.7306 78.7935C70.7723 78.8917 70.8335 78.981 70.9105 79.0562C70.9876 79.1313 71.079 79.1909 71.1797 79.2315C71.2803 79.2721 71.3882 79.2929 71.4971 79.2927H88.2954C88.5151 79.2927 88.7257 79.2074 88.881 79.0557C89.0363 78.9039 89.1235 78.6981 89.1235 78.4834C89.1235 78.2688 89.0363 78.063 88.881 77.9112C88.7257 77.7595 88.5151 77.6742 88.2954 77.6742H71.4971Z" fill="#E6E6E6"/>
<path d="M79.8963 92.7957C78.8654 92.7957 77.8576 92.497 77.0004 91.9373C76.1432 91.3775 75.4751 90.582 75.0806 89.6512C74.6861 88.7205 74.5829 87.6963 74.784 86.7082C74.9851 85.7201 75.4816 84.8125 76.2105 84.1001C76.9395 83.3877 77.8683 82.9026 78.8794 82.706C79.8905 82.5095 80.9386 82.6104 81.891 82.9959C82.8435 83.3814 83.6575 84.0343 84.2303 84.872C84.803 85.7097 85.1087 86.6945 85.1087 87.7019C85.1072 89.0524 84.5575 90.3472 83.5803 91.3021C82.6031 92.257 81.2782 92.7942 79.8963 92.7957Z" fill="#24A4CC"/>
<path d="M142.488 0H171.762C172.085 0.000371072 172.395 0.126071 172.624 0.349527C172.853 0.572983 172.981 0.875949 172.982 1.19196V30.9852C172.981 31.3012 172.853 31.6042 172.624 31.8277C172.395 32.0511 172.085 32.1768 171.762 32.1772H142.488C142.165 32.1768 141.855 32.0511 141.626 31.8277C141.397 31.6042 141.269 31.3012 141.268 30.9852V1.19196C141.269 0.875949 141.397 0.572983 141.626 0.349527C141.855 0.126071 142.165 0.000371072 142.488 0ZM171.762 31.7004C171.956 31.7002 172.142 31.6248 172.279 31.4907C172.416 31.3566 172.493 31.1748 172.494 30.9852V1.19196C172.493 1.00235 172.416 0.820561 172.279 0.686484C172.142 0.552407 171.956 0.476992 171.762 0.476785H142.488C142.294 0.476992 142.108 0.552407 141.971 0.686484C141.834 0.820561 141.757 1.00235 141.756 1.19196V30.9852C141.757 31.1748 141.834 31.3566 141.971 31.4907C142.108 31.6248 142.294 31.7002 142.488 31.7004H171.762Z" fill="#3F3D56"/>
<path d="M165.524 26.0333C165.744 26.0333 165.954 25.948 166.11 25.7963C166.265 25.6445 166.352 25.4387 166.352 25.224C166.352 25.0094 166.265 24.8036 166.11 24.6518C165.954 24.5001 165.744 24.4148 165.524 24.4148H148.726C148.506 24.4148 148.296 24.5001 148.14 24.6518C147.985 24.8036 147.898 25.0094 147.898 25.224C147.898 25.4387 147.985 25.6445 148.14 25.7963C148.296 25.948 148.506 26.0333 148.726 26.0333H165.524Z" fill="#E6E6E6"/>
<path d="M165.524 21.2655C165.744 21.2655 165.954 21.1802 166.11 21.0284C166.265 20.8767 166.352 20.6708 166.352 20.4562C166.352 20.2416 166.265 20.0358 166.11 19.884C165.954 19.7322 165.744 19.647 165.524 19.647H148.726C148.506 19.647 148.296 19.7322 148.14 19.884C147.985 20.0358 147.898 20.2416 147.898 20.4562C147.898 20.6708 147.985 20.8767 148.14 21.0284C148.296 21.1802 148.506 21.2655 148.726 21.2655H165.524Z" fill="#E6E6E6"/>
<path d="M157.125 6.14392C158.156 6.14392 159.164 6.44267 160.021 7.00238C160.878 7.56209 161.546 8.35763 161.941 9.2884C162.335 10.2192 162.438 11.2434 162.237 12.2314C162.036 13.2195 161.54 14.1272 160.811 14.8396C160.082 15.5519 159.153 16.0371 158.142 16.2336C157.131 16.4302 156.083 16.3293 155.13 15.9437C154.178 15.5582 153.364 14.9053 152.791 14.0677C152.218 13.23 151.912 12.2452 151.912 11.2377C151.914 9.88722 152.464 8.59248 153.441 7.63754C154.418 6.6826 155.743 6.14545 157.125 6.14392Z" fill="#24A4CC"/>
<path d="M56.4188 61.6376C61.599 57.7169 67.6511 55.0432 74.0852 53.8332C80.5704 52.6255 87.2579 52.9613 93.5823 54.8122C96.7615 55.7373 99.8161 57.0307 102.681 58.6649C105.6 60.3324 108.237 62.3852 110.775 64.5587C113.346 66.7604 115.832 69.0602 118.516 71.133C126.178 77.118 135.69 80.3879 145.498 80.4088C146.309 80.4101 147.119 80.3883 147.928 80.3434C148.366 80.3198 148.369 79.6498 147.928 79.6736C137.929 80.2116 128.056 77.296 120.035 71.437C117.254 69.4044 114.714 67.0804 112.121 64.8283C109.607 62.6449 107.026 60.521 104.174 58.7668C97.1986 54.4721 89.0831 52.2798 80.8405 52.4634C72.5979 52.647 64.5931 55.1984 57.8248 59.7992C57.1812 60.2365 56.5526 60.6935 55.9341 61.164C55.5864 61.4284 56.0746 61.8994 56.4188 61.6376Z" fill="#3F3D56"/>
<path d="M56.0549 64.8755C58.0222 64.8755 59.6171 63.3169 59.6171 61.3944C59.6171 59.4718 58.0222 57.9132 56.0549 57.9132C54.0875 57.9132 52.4926 59.4718 52.4926 61.3944C52.4926 63.3169 54.0875 64.8755 56.0549 64.8755Z" fill="#3F3D56"/>
<path d="M188.578 111.096C190.545 111.096 192.14 109.537 192.14 107.614C192.14 105.692 190.545 104.133 188.578 104.133C186.61 104.133 185.015 105.692 185.015 107.614C185.015 109.537 186.61 111.096 188.578 111.096Z" fill="#3F3D56"/>
<path d="M207.239 87.7841H149.114C148.791 87.7838 148.481 87.6581 148.252 87.4346C148.024 87.2112 147.895 86.9082 147.895 86.5922V57.0373C147.895 56.7213 148.024 56.4183 148.252 56.1949C148.481 55.9714 148.791 55.8457 149.114 55.8453H207.239C207.563 55.8457 207.873 55.9714 208.101 56.1949C208.33 56.4183 208.459 56.7213 208.459 57.0373V86.5922C208.459 86.9082 208.33 87.2111 208.101 87.4346C207.873 87.6581 207.563 87.7838 207.239 87.7841ZM149.114 56.3221C148.92 56.3223 148.734 56.3978 148.597 56.5318C148.46 56.6659 148.383 56.8477 148.382 57.0373V86.5922C148.383 86.7818 148.46 86.9636 148.597 87.0976C148.734 87.2317 148.92 87.3071 149.114 87.3073H207.239C207.433 87.3071 207.619 87.2317 207.757 87.0976C207.894 86.9636 207.971 86.7818 207.971 86.5922V57.0373C207.971 56.8477 207.894 56.6659 207.757 56.5318C207.619 56.3978 207.433 56.3223 207.239 56.3221H149.114Z" fill="#3F3D56"/>
<path d="M158.861 71.1706C161.605 71.1706 163.829 68.9967 163.829 66.3151C163.829 63.6336 161.605 61.4597 158.861 61.4597C156.117 61.4597 153.892 63.6336 153.892 66.3151C153.892 68.9967 156.117 71.1706 158.861 71.1706Z" fill="#24A4CC"/>
<path d="M170.336 63.0781C170.227 63.0779 170.119 63.0987 170.018 63.1393C169.918 63.1799 169.826 63.2395 169.749 63.3146C169.672 63.3898 169.611 63.4791 169.569 63.5773C169.527 63.6756 169.506 63.781 169.506 63.8874C169.506 63.9938 169.527 64.0991 169.569 64.1974C169.611 64.2957 169.672 64.3849 169.749 64.4601C169.826 64.5353 169.918 64.5948 170.018 64.6354C170.119 64.676 170.227 64.6968 170.336 64.6966H201.634C201.853 64.6966 202.064 64.6113 202.219 64.4596C202.374 64.3078 202.462 64.102 202.462 63.8874C202.462 63.6727 202.374 63.4669 202.219 63.3151C202.064 63.1634 201.853 63.0781 201.634 63.0781H170.336Z" fill="#E6E6E6"/>
<path d="M170.336 67.9336C170.227 67.9334 170.119 67.9542 170.018 67.9948C169.918 68.0353 169.826 68.0949 169.749 68.1701C169.672 68.2453 169.611 68.3345 169.569 68.4328C169.527 68.5311 169.506 68.6364 169.506 68.7428C169.506 68.8492 169.527 68.9546 169.569 69.0529C169.611 69.1511 169.672 69.2404 169.749 69.3156C169.826 69.3907 169.918 69.4503 170.018 69.4909C170.119 69.5315 170.227 69.5523 170.336 69.5521H187.134C187.354 69.5521 187.564 69.4668 187.719 69.3151C187.875 69.1633 187.962 68.9575 187.962 68.7428C187.962 68.5282 187.875 68.3224 187.719 68.1706C187.564 68.0189 187.354 67.9336 187.134 67.9336H170.336Z" fill="#E6E6E6"/>
<path d="M155.05 75.696C154.42 75.696 153.907 76.0591 153.907 76.5053C153.907 76.9514 154.42 77.3145 155.05 77.3145H201.17C201.8 77.3145 202.313 76.9514 202.313 76.5053C202.313 76.0591 201.8 75.696 201.17 75.696H155.05Z" fill="#E6E6E6"/>
<path d="M155.05 80.5514C154.42 80.5514 153.907 80.9145 153.907 81.3606C153.907 81.8068 154.42 82.1699 155.05 82.1699H201.17C201.8 82.1699 202.313 81.8068 202.313 81.3606C202.313 80.9145 201.8 80.5514 201.17 80.5514H155.05Z" fill="#E6E6E6"/>
<path d="M144.442 110.855C147.721 109.465 151.382 110.677 154.473 111.958C156.065 112.618 157.64 113.323 159.287 113.844C160.673 114.281 162.092 114.61 163.531 114.827C166.42 115.259 169.357 115.276 172.25 114.879C175.159 114.482 177.993 113.677 180.665 112.488C183.322 111.311 185.778 109.742 187.947 107.835C188.223 107.591 188.494 107.342 188.759 107.088C189.074 106.785 188.59 106.312 188.274 106.614C186.185 108.603 183.788 110.258 181.17 111.515C178.563 112.767 175.782 113.64 172.916 114.106C170.041 114.58 167.109 114.629 164.219 114.253C162.777 114.062 161.353 113.76 159.96 113.348C158.36 112.839 156.791 112.244 155.26 111.564C152.14 110.255 148.674 108.973 145.246 109.876C144.853 109.982 144.469 110.116 144.096 110.277C143.692 110.448 144.041 111.025 144.442 110.855Z" fill="#3F3D56"/>
<path d="M143.175 119.071H115.714L122.176 108.132C122.292 107.936 122.459 107.773 122.659 107.66C122.86 107.547 123.088 107.487 123.319 107.487C123.551 107.487 123.778 107.547 123.979 107.66C124.18 107.773 124.346 107.936 124.462 108.132L127.223 112.805L131.917 104.86C132.062 104.614 132.271 104.41 132.522 104.269C132.773 104.127 133.058 104.052 133.348 104.052C133.638 104.052 133.923 104.127 134.174 104.269C134.425 104.41 134.634 104.614 134.779 104.86L143.175 119.071Z" fill="#24A4CC"/>
<path d="M143.201 119.068H113.927C113.604 119.068 113.294 118.942 113.065 118.719C112.837 118.495 112.708 118.192 112.708 117.876V101.91C112.708 101.594 112.837 101.291 113.065 101.067C113.294 100.844 113.604 100.718 113.927 100.718H143.201C143.524 100.718 143.834 100.844 144.063 101.067C144.292 101.291 144.42 101.594 144.421 101.91V117.876C144.42 118.192 144.292 118.495 144.063 118.719C143.834 118.942 143.524 119.068 143.201 119.068ZM113.927 101.195C113.733 101.195 113.547 101.27 113.41 101.404C113.273 101.538 113.196 101.72 113.195 101.91V117.876C113.196 118.066 113.273 118.248 113.41 118.382C113.547 118.516 113.733 118.591 113.927 118.591H143.201C143.395 118.591 143.581 118.516 143.718 118.382C143.855 118.248 143.933 118.066 143.933 117.876V101.91C143.933 101.72 143.855 101.538 143.718 101.404C143.581 101.27 143.395 101.195 143.201 101.195H113.927Z" fill="#3F3D56"/>
<path d="M200.617 105.016L195.399 107.605C193.537 108.53 191.74 108.372 191.051 106.444C190.888 105.986 190.827 105.498 190.874 105.014C190.921 104.531 191.074 104.063 191.324 103.643C191.573 103.222 191.912 102.86 192.318 102.579C192.724 102.299 193.187 102.108 193.676 102.019L198.635 101.114L219.874 94.2278L232.74 85.3125L237.456 92.6555L222.59 100.495L200.617 105.016Z" fill="#FFB8B8"/>
<path d="M224.975 190.964L220.983 190.314L221.426 182.945H225.641L224.975 190.964Z" fill="#FFB8B8"/>
<path d="M263.722 183.767L259.858 184.944L256.856 178.171L260.618 176.315L263.722 183.767Z" fill="#FFB8B8"/>
<path d="M261.571 177.309L256.691 179.26L233.403 149.35L226.084 184.462L221.205 183.595C218.075 153.324 215.522 122.447 218.654 107.844L236.73 107.085L244.936 132.661L248.928 150L261.571 177.309Z" fill="#2F2E41"/>
<path d="M224.755 196.924C224.025 197.077 223.265 196.998 222.584 196.698L220.212 195.656C218.224 195.556 216.87 195.943 215.763 194.531C215.45 194.127 215.254 193.649 215.194 193.147C215.135 192.644 215.214 192.135 215.424 191.672C215.632 191.208 215.962 190.806 216.382 190.508C216.801 190.21 217.294 190.026 217.81 189.976L221.067 187.97L221.238 189.473C222.727 190.298 224.494 189.942 226.367 189.139L227.39 192.636C227.522 193.087 227.557 193.56 227.494 194.024C227.432 194.489 227.272 194.937 227.025 195.339C226.778 195.741 226.449 196.089 226.059 196.362C225.668 196.634 225.225 196.826 224.755 196.924Z" fill="#2F2E41"/>
<path d="M265.303 189.751C264.663 190.127 263.917 190.294 263.174 190.227L260.585 189.993C258.671 190.53 257.519 191.325 256.002 190.341C255.573 190.059 255.228 189.669 255.005 189.212C254.782 188.756 254.687 188.249 254.732 187.745C254.774 187.24 254.953 186.755 255.251 186.34C255.548 185.925 255.954 185.595 256.425 185.383L258.839 182.452L259.501 183.82C261.183 184.128 262.736 183.23 264.241 181.877L266.37 184.86C266.644 185.244 266.835 185.68 266.93 186.139C267.025 186.599 267.023 187.073 266.923 187.532C266.823 187.99 266.627 188.424 266.349 188.806C266.07 189.187 265.714 189.509 265.303 189.751Z" fill="#2F2E41"/>
<path d="M230.076 76.308C234.486 76.308 238.061 72.8146 238.061 68.5053C238.061 64.196 234.486 60.7026 230.076 60.7026C225.667 60.7026 222.092 64.196 222.092 68.5053C222.092 72.8146 225.667 76.308 230.076 76.308Z" fill="#FFB8B8"/>
<path d="M239.835 84.9778L229.411 82.8104L228.08 74.3575L235.399 72.8403L239.835 84.9778Z" fill="#FFB8B8"/>
<path d="M236.952 108.169H218.321L222.521 97.8659C222.216 94.3208 223.753 91.7133 225.954 89.4432L228.746 82.5935C233.256 79.6922 236.657 79.909 240.279 83.6772C244.572 89.6181 241.6 98.5486 236.952 108.169Z" fill="#24A4CC"/>
<path d="M228.524 130.06L227.994 135.755C227.805 137.788 226.712 139.192 224.676 138.737C224.192 138.629 223.737 138.42 223.343 138.124C222.948 137.828 222.624 137.452 222.393 137.022C222.161 136.592 222.027 136.119 222 135.634C221.973 135.149 222.053 134.664 222.236 134.212L224.088 129.626L229.411 108.386L228.524 92.9971H237.395L236.286 109.469L228.524 130.06Z" fill="#FFB8B8"/>
<path d="M238.061 93.4306H227.858L228.574 86.9267C228.621 85.8018 229.096 84.7347 229.907 83.935C230.718 83.1353 231.805 82.6607 232.956 82.6045C233.566 82.5747 234.176 82.6634 234.75 82.8654C235.324 83.0674 235.852 83.3787 236.303 83.7814C236.753 84.184 237.117 84.6699 237.374 85.2111C237.631 85.7522 237.776 86.3378 237.8 86.9339L238.061 93.4306Z" fill="#24A4CC"/>
<path d="M239.958 60.4825C241.616 60.4825 242.959 59.1694 242.959 57.5496C242.959 55.9299 241.616 54.6168 239.958 54.6168C238.301 54.6168 236.957 55.9299 236.957 57.5496C236.957 59.1694 238.301 60.4825 239.958 60.4825Z" fill="#2F2E41"/>
<path d="M236.866 56.8317C236.915 56.0876 237.253 55.3898 237.81 54.8805C238.367 54.3712 239.102 54.0887 239.865 54.0905C239.804 54.0829 239.742 54.0735 239.679 54.0695C238.885 54.0201 238.103 54.2808 237.506 54.7944C236.908 55.308 236.544 56.0323 236.493 56.8083C236.442 57.5842 236.708 58.3482 237.234 58.9323C237.759 59.5164 238.5 59.8727 239.294 59.9231C239.357 59.9271 239.419 59.9255 239.482 59.9256C238.725 59.8319 238.033 59.4597 237.547 58.8849C237.061 58.3101 236.817 57.5758 236.866 56.8317Z" fill="#2F2E41"/>
<path d="M236.849 58.084C234.172 55.9142 226.495 58.6719 226 60.1307C222.38 60.6128 219.64 62.6764 219.64 66.3457C221.792 67.2072 224.239 67.101 226.885 66.3457C231.102 69.7043 231.391 73.9264 228.826 78.7757L231.982 78.8374L235.893 73.2513L236.08 78.9175L243.313 78.7757V70.6557C243.336 67.9559 242.7 65.2895 241.458 62.878C240.331 60.7381 238.582 59.4887 236.849 58.084Z" fill="#2F2E41"/>
<path d="M230.114 72.4304C230.906 72.4304 231.549 71.5513 231.549 70.4669C231.549 69.3825 230.906 68.5034 230.114 68.5034C229.321 68.5034 228.679 69.3825 228.679 70.4669C228.679 71.5513 229.321 72.4304 230.114 72.4304Z" fill="#FFB8B8"/>
<path d="M49.5379 72.9584C49.5379 72.9584 50.4018 58.3458 54.8868 61.6661C59.3717 64.9865 52.9281 74.3136 52.9281 74.3136L49.5379 72.9584Z" fill="#FFB9B9"/>
<path d="M32.852 116.303C32.852 116.303 42.8145 127.233 37.2406 127.984C31.6668 128.735 29.4742 117.688 29.4742 117.688L32.852 116.303Z" fill="#FFB9B9"/>
<path d="M19.8516 64.5674C21.102 64.8889 22.2274 65.5644 23.0862 66.5089C23.9451 67.4533 24.4993 68.6247 24.6792 69.876L27.8482 91.9182L32.2907 109.501C32.2907 109.501 34.512 111.455 33.6235 112.54C32.735 113.625 34.7341 118.184 34.7341 118.184L29.181 119.92C29.181 119.92 28.5146 115.362 27.404 115.145C26.4279 114.954 15.5016 86.4303 12.8679 79.5203C12.5048 78.5676 12.2993 78.0257 12.2993 78.0257C12.2993 78.0257 12.7436 63.482 19.8516 64.5674Z" fill="#575A89"/>
<path d="M20.8659 179.515L24.2769 185.422C26.9183 190.933 24.571 191.934 18.0946 189.202L16.6183 182.227L20.8659 179.515Z" fill="#FFB9B9"/>
<path d="M22.5869 187.366C22.5869 187.366 24.2062 184.79 24.7918 185.221C25.3774 185.652 27.793 187.521 27.793 187.521L30.9394 190.466C30.9394 190.466 41.5698 191.564 34.815 195.204C28.0603 198.844 24.3274 195.826 24.3274 195.826C24.3274 195.826 14.8667 196.306 15.0193 193.727C15.1719 191.147 18.223 187.067 18.223 187.067C18.223 187.067 22.0685 189.586 22.5869 187.366Z" fill="#2F2E41"/>
<path d="M5.73004 112.746L8.92778 150.557C8.92778 150.557 9.03437 173.161 12.4453 177.536C15.8562 181.911 15.9628 184.098 15.9628 184.098L22.9978 180.557C22.9978 180.557 19.3737 174.655 20.1198 173.752C20.5798 173.179 20.907 172.515 21.0791 171.807L19.1605 148.474L22.7846 107.85L5.73004 112.746Z" fill="#2F2E41"/>
<path d="M14.4704 179.515L11.4858 187.223L4.71729 184.458L8.28816 178.682L14.4704 179.515Z" fill="#FFB9B9"/>
<path d="M9.49138 184.627C9.49138 184.627 12.0299 183.077 12.3472 183.697C12.6646 184.317 13.9338 186.953 13.9338 186.953L15.3618 190.829C15.3618 190.829 24.088 196.256 16.6311 196.566C9.17406 196.876 7.27014 192.689 7.27014 192.689C7.27014 192.689 -1.1388 189.123 0.130484 186.953C1.39977 184.782 5.84222 182.531 5.84222 182.531C5.84222 182.531 8.06345 186.333 9.49138 184.627Z" fill="#2F2E41"/>
<path d="M32.8042 112.85L34.5096 147.641C34.5096 147.641 18.9473 179.098 17.2419 179.932C16.7337 180.188 16.2832 180.541 15.9171 180.971C15.5509 181.4 15.2765 181.897 15.11 182.432L5.73004 180.14L9.99369 173.474L19.3737 151.182C19.3737 151.182 20.866 150.557 21.2923 148.474C21.7187 146.391 22.5714 146.391 20.4396 145.974C18.3078 145.557 18.3078 143.474 18.3078 143.474L11.2728 111.808L32.8042 112.85Z" fill="#2F2E41"/>
<path d="M33.5468 51.2694C34.3012 46.7266 31.1442 42.4463 26.4955 41.709C21.8469 40.9718 17.4668 44.0569 16.7124 48.5998C15.9581 53.1426 19.115 57.4229 23.7637 58.1601C28.4124 58.8973 32.7924 55.8123 33.5468 51.2694Z" fill="#FFB9B9"/>
<path d="M17.5616 50.4554C17.5616 50.4554 16.9221 61.0802 16.0694 62.1219C15.2167 63.1635 25.023 62.9552 25.023 62.9552C25.023 62.9552 24.3835 53.997 25.023 53.1637C25.6626 52.3304 17.5616 50.4554 17.5616 50.4554Z" fill="#FFB9B9"/>
<path d="M33.4429 115.142C33.4429 115.142 9.35331 113.059 4.87762 115.142C4.87762 115.142 6.52525 109.169 6.09952 108.545C5.7899 108.088 6.64412 91.0738 6.37597 81.2591C6.22392 75.7209 4.91633 70.3124 8.71748 66.2007C10.0113 64.804 11.4543 63.6315 12.9775 63.0588C12.9775 63.0588 12.5518 59.101 14.6832 58.893C14.6832 58.893 22.7859 58.0582 25.7688 60.5599C26.7225 61.3541 27.3224 63.7747 27.386 65.8603C25.9097 72.9545 26.4322 80.8268 27.7868 88.9936C27.8698 89.5123 27.961 90.0337 28.0522 90.5551C29.4897 98.6543 31.6626 107.005 33.4429 115.142Z" fill="#575A89"/>
<path d="M20.6748 52.3901C21.396 52.3481 22.1001 52.5862 22.8163 52.6792C25.3785 53.0116 28.0439 51.1947 28.6096 48.7301C28.655 48.4019 28.7551 48.0832 28.906 47.7866C29.3003 47.1575 30.1984 47.0375 30.9387 47.1822C31.679 47.3268 32.3808 47.6654 33.1347 47.7041C34.2988 47.7638 35.4164 47.0634 36.0368 46.099C36.6231 45.104 36.8724 43.9534 36.7491 42.8116L36.1911 43.384C35.9643 42.9151 35.8767 42.3935 35.9384 41.8785C35.6426 41.8015 35.3316 41.8 35.0351 41.8742C34.7387 41.9483 34.4666 42.0956 34.2451 42.3019C33.753 42.3531 34.1244 41.4099 33.7588 41.084C33.581 40.9773 33.3691 40.9385 33.1638 40.9752C32.117 40.9851 31.2701 40.2026 30.4452 39.5727C29.0159 38.4838 27.3444 37.7387 25.5659 37.3978C24.3839 37.1725 23.1268 37.1363 22.0058 37.5664C21.1008 37.9634 20.2841 38.5296 19.6016 39.2331C17.8464 40.8823 16.2923 42.8201 15.5621 45.09C14.9685 46.9493 14.9517 48.9387 15.5138 50.8073C15.808 51.7777 16.6947 55.1012 17.9928 55.1785C19.6239 55.2758 18.6446 52.5085 20.6748 52.3901Z" fill="#2F2E41"/>
<path d="M24.2044 65.5901L27.2595 65.9099C27.2595 65.9099 30.2584 71.5957 30.0407 72.7817C29.8229 73.9676 29.3486 73.2476 30.6984 75.1451C32.0482 77.0425 35.8783 81.947 36.3526 82.667C36.8269 83.387 49.7572 73.7461 48.9533 70.8575C48.9533 70.8575 53.0371 73.7205 54.7866 74.1016C54.7866 74.1016 41.461 91.1802 39.604 93.3658C37.747 95.5515 36.2525 95.1026 33.7005 93.8067C31.1485 92.5108 18.2381 79.5847 18.2381 79.5847L24.2044 65.5901Z" fill="#575A89"/>
<path opacity="0.1" d="M28.0522 90.555L17.4338 80.1784L20.1209 79.322L27.7868 88.9935C27.8697 89.5123 27.961 90.0336 28.0522 90.555Z" fill="black"/>
</g>
<defs>
<clipPath id="clip0_12_67">
<rect width="267" height="197" fill="white"/>
</clipPath>
</defs>
</svg>
