<svg width="210" height="191" viewBox="0 0 210 191" fill="none" xmlns="http://www.w3.org/2000/svg">
<g clip-path="url(#clip0_12_4)">
<path d="M200.121 180.029C198.812 180.404 197.406 180.498 196.04 180.302C194.673 180.105 193.392 179.626 192.319 178.909C189.586 177.04 188.728 173.961 188.032 171.11L185.97 162.677L190.287 165.099C193.392 166.841 196.566 168.639 198.716 171.162C200.865 173.685 201.804 177.129 200.077 179.859" fill="#E6E6E6"/>
<path d="M199.752 190.239C200.189 187.645 200.638 185.019 200.332 182.398C200.059 180.07 199.188 177.796 197.413 175.932C196.472 174.944 195.325 174.098 194.027 173.431C193.688 173.257 193.376 173.694 193.714 173.868C195.961 175.025 197.699 176.734 198.677 178.748C199.758 180.987 199.931 183.429 199.744 185.808C199.631 187.247 199.393 188.676 199.152 190.104C199.132 190.169 199.144 190.237 199.184 190.295C199.225 190.352 199.291 190.396 199.369 190.415C199.448 190.433 199.533 190.424 199.604 190.391C199.676 190.358 199.728 190.303 199.751 190.238L199.752 190.239Z" fill="#F2F2F2"/>
<path d="M184.106 147.164H3.50198V0H184.106V147.164Z" fill="white"/>
<path d="M184.106 147.164H3.50198V0H184.106V147.164ZM6.17037 144.99H181.438V2.17434H6.17037V144.99Z" fill="#E5E5E5"/>
<path d="M152.112 23.0239H73.9024V25.0091H152.112V23.0239Z" fill="#E5E5E5"/>
<path d="M152.112 28.1853H73.9024V30.1705H152.112V28.1853Z" fill="#E5E5E5"/>
<path d="M152.112 33.3468H73.9024V35.332H152.112V33.3468Z" fill="#E5E5E5"/>
<path d="M152.112 67.3441H73.9024V69.3293H152.112V67.3441Z" fill="#E5E5E5"/>
<path d="M152.112 72.5056H73.9024V74.4908H152.112V72.5056Z" fill="#E5E5E5"/>
<path d="M152.112 77.667H73.9024V79.6522H152.112V77.667Z" fill="#E5E5E5"/>
<path d="M152.112 111.664H73.9024V113.649H152.112V111.664Z" fill="#E5E5E5"/>
<path d="M152.112 116.826H73.9024V118.811H152.112V116.826Z" fill="#E5E5E5"/>
<path d="M152.112 121.987H73.9024V123.972H152.112V121.987Z" fill="#E5E5E5"/>
<path d="M42.5934 38.8407C41.2573 38.267 39.8627 37.7887 38.4252 37.4114L38.2419 35.7592L30.8082 35.1066L29.8635 37.2184L27.1957 38.0341C27.1002 38.0636 27.0094 38.1022 26.925 38.149H26.9221C26.7732 38.231 26.6464 38.3369 26.5494 38.4601C26.4525 38.5834 26.3873 38.7215 26.3581 38.866C26.3296 39.0096 26.3363 39.1565 26.3779 39.298L26.5189 39.7691C26.7219 39.8679 26.9306 39.9621 27.1393 40.0517L27.2719 40.1069C27.5764 40.2355 27.8867 40.3573 28.2053 40.4699C28.2702 40.4929 28.3407 40.5159 28.4055 40.5389C28.4112 40.5412 28.4139 40.5412 28.4196 40.5435C28.5691 40.594 28.7185 40.6423 28.8708 40.6882C29.3711 40.8439 29.8813 40.9774 30.3993 41.0881C31.7213 41.3752 33.0836 41.5204 34.4518 41.5201C34.9509 41.5201 35.4444 41.5017 35.9323 41.4626C37.0471 41.3788 38.1476 41.1977 39.2149 40.9226C39.2177 40.9226 39.2206 40.9203 39.2233 40.9203C39.8976 40.7453 40.5563 40.5326 41.1946 40.2838C41.1974 40.2815 41.203 40.2815 41.2059 40.2792C41.3497 40.224 41.4879 40.1643 41.6289 40.1069L41.6965 40.0793C41.8093 40.031 41.9222 39.9828 42.035 39.9322C42.317 39.8058 42.5934 39.6725 42.8668 39.5301C42.943 39.4933 43.0164 39.4542 43.0925 39.4129C43.1997 39.3554 43.3068 39.2957 43.4112 39.2336C43.1489 39.0958 42.8754 38.9648 42.5934 38.8407Z" fill="#3F3D56"/>
<path d="M28.6424 39.8587L28.1771 38.1467H26.9616C26.9494 38.1469 26.9371 38.1476 26.925 38.149H26.9221C26.4853 38.1791 26.0646 38.2976 25.6982 38.4937C25.4497 38.623 25.2288 38.7844 25.044 38.9717C25.4049 39.1946 25.78 39.4014 26.1664 39.599L26.1834 39.6059C26.2932 39.6611 26.4062 39.7162 26.5189 39.7691C26.7219 39.8679 26.9307 39.9621 27.1393 40.0517L27.2719 40.1069C27.5765 40.2355 27.8867 40.3573 28.2053 40.4699C28.2702 40.4929 28.3407 40.5159 28.4056 40.5389C28.4112 40.5412 28.414 40.5412 28.4196 40.5435C28.5692 40.594 28.7186 40.6423 28.8708 40.6882L28.6424 39.8587Z" fill="#3F3D56"/>
<path d="M34.2334 34.062C37.1902 34.062 39.5872 32.1088 39.5872 29.6994C39.5872 27.2901 37.1902 25.3369 34.2334 25.3369C31.2765 25.3369 28.8796 27.2901 28.8796 29.6994C28.8796 32.1088 31.2765 34.062 34.2334 34.062Z" fill="#FFB8B8"/>
<path d="M30.6389 27.5746C31.1931 28.109 32.131 28.2598 32.9962 28.3216C35.019 28.4127 37.0476 28.2777 39.0255 27.9205C39.148 28.8884 38.8139 29.932 39.5136 30.7283C39.8415 29.7643 40.0322 28.7728 40.0819 27.7733C40.1342 27.3445 40.0654 26.9116 39.881 26.5078C39.7824 26.3053 39.6161 26.1295 39.401 26.0003C39.1859 25.8711 38.9306 25.7936 38.6642 25.7767C39.063 25.5302 39.5303 25.3674 40.0246 25.3028L38.3246 24.6067L38.7612 24.2415L35.6835 24.088L36.5749 23.6266C35.2333 23.4764 33.876 23.4415 32.5254 23.5224C31.8942 23.5227 31.2751 23.6629 30.7343 23.9281C30.2262 24.2242 29.9326 24.8127 30.248 25.2474C29.8531 25.3003 29.4812 25.4344 29.1677 25.6371C28.8542 25.8398 28.6093 26.1044 28.4564 26.4058C28.263 26.8848 28.2163 27.3952 28.3204 27.8923C28.4363 28.6899 28.6638 29.474 28.9984 30.2295L30.6389 27.5746Z" fill="#2F2E41"/>
<path d="M49.2882 24.9704C48.537 23.212 47.3242 21.6082 45.7342 20.271C44.1442 18.9338 42.2154 17.8953 40.0823 17.2279C37.9492 16.5605 35.663 16.2803 33.3833 16.4069C31.1037 16.5334 28.8853 17.0636 26.8829 17.9605C24.8805 18.8574 23.1423 20.0994 21.7896 21.6C20.4368 23.1005 19.502 24.8234 19.0504 26.6486C18.5988 28.4738 18.6412 30.3572 19.1747 32.1677C19.7081 33.9781 20.7199 35.6719 22.1393 37.131C22.2803 37.2758 22.4269 37.4206 22.5765 37.5607C22.5877 37.5699 22.5961 37.5791 22.6074 37.5883C22.975 37.9335 23.3657 38.2618 23.7777 38.5718C23.885 38.6523 23.9978 38.735 24.1105 38.8131C24.3248 38.9694 24.5449 39.1187 24.7733 39.2612C24.8635 39.3187 24.9509 39.3761 25.044 39.4313C25.4049 39.6542 25.78 39.861 26.1664 40.0586L26.1833 40.0655C26.2932 40.1206 26.4061 40.1758 26.5189 40.2286C26.7219 40.3275 26.9306 40.4217 27.1393 40.5113L27.2719 40.5664C27.5764 40.6951 27.8867 40.8169 28.2053 40.9295C28.2702 40.9525 28.3407 40.9755 28.4055 40.9985C28.4112 41.0008 28.4139 41.0007 28.4196 41.003C28.5691 41.0536 28.7185 41.1019 28.8708 41.1478C29.3711 41.3035 29.8813 41.437 30.3993 41.5477C31.7213 41.8348 33.0836 41.98 34.4518 41.9797C34.9509 41.9797 35.4445 41.9613 35.9323 41.9222C37.0471 41.8384 38.1476 41.6573 39.2149 41.3822C39.2177 41.3822 39.2206 41.3799 39.2233 41.3799C39.8976 41.2049 40.5563 40.9922 41.1946 40.7434C41.1974 40.7411 41.203 40.7411 41.2059 40.7388C41.3497 40.6836 41.4879 40.6239 41.629 40.5664L41.6966 40.5389C41.8093 40.4906 41.9222 40.4423 42.035 40.3918C42.317 40.2654 42.5934 40.1321 42.8669 39.9897C42.943 39.9529 43.0164 39.9138 43.0926 39.8725C43.1997 39.815 43.3068 39.7553 43.4112 39.6932C43.5493 39.6151 43.6875 39.5347 43.8229 39.4519C43.8652 39.4267 43.9104 39.4014 43.9526 39.3738C46.5947 37.7397 48.5339 35.466 49.4924 32.8785C50.4509 30.291 50.3794 27.5227 49.2882 24.9704ZM43.4338 38.8154C43.3407 38.8752 43.2449 38.9326 43.1489 38.9855C43.0558 39.0429 42.9628 39.0981 42.8669 39.1486C42.7851 39.1969 42.7033 39.2428 42.6187 39.2865L42.5934 39.3003C42.5313 39.3347 42.4693 39.3669 42.4072 39.3991C42.1731 39.5186 41.9362 39.6335 41.6966 39.7438L41.6204 39.7782C41.5133 39.8265 41.4062 39.8725 41.299 39.9184C41.2848 39.9253 41.2679 39.9299 41.2539 39.9368L41.2369 39.9437C41.1016 40.0012 40.9633 40.0563 40.8252 40.1092C40.292 40.3184 39.7428 40.4995 39.1811 40.6515C39.1077 40.6721 39.0344 40.6928 38.9612 40.7112C37.9509 40.973 36.909 41.1456 35.8534 41.226C35.3909 41.2604 34.9227 41.2788 34.4518 41.2788C33.1577 41.281 31.8691 41.1434 30.6193 40.8698C29.978 40.7334 29.3494 40.5598 28.7384 40.3504C28.7072 40.3389 28.6734 40.3298 28.6424 40.3183C28.6087 40.3068 28.5775 40.2976 28.5465 40.2861C28.5127 40.2746 28.4817 40.2631 28.4478 40.2493C28.1827 40.1551 27.9204 40.0517 27.6639 39.9437L27.5398 39.8909C27.2267 39.7576 26.9194 39.6151 26.6204 39.4634C26.533 39.4198 26.4428 39.3738 26.3581 39.3256C26.3356 39.3141 26.3158 39.3026 26.2932 39.2911C26.093 39.1831 25.8928 39.0705 25.6982 38.9533C25.5658 38.8729 25.4332 38.7924 25.3034 38.7097C25.0863 38.5764 24.8775 38.434 24.6746 38.2869C24.5674 38.2134 24.4631 38.1329 24.3616 38.0571C23.9617 37.7563 23.5832 37.4371 23.2279 37.1012C23.1095 36.9909 22.9938 36.8806 22.8838 36.7657C22.8588 36.7429 22.8352 36.7192 22.8133 36.6944C20.981 34.8104 19.8789 32.5244 19.6475 30.1279C19.4162 27.7314 20.066 25.333 21.5142 23.2387C22.9624 21.1444 25.1434 19.449 27.7789 18.3687C30.4144 17.2885 33.385 16.8724 36.3119 17.1735C39.2388 17.4745 41.9893 18.4791 44.2127 20.0591C46.4361 21.6391 48.0316 23.7229 48.7957 26.0448C49.5597 28.3667 49.4578 30.8214 48.5028 33.0959C47.5479 35.3703 45.7832 37.3615 43.4338 38.8154Z" fill="#3F3D56"/>
<path d="M49.2883 69.2906C48.5371 67.5322 47.3243 65.9285 45.7343 64.5913C44.1443 63.2541 42.2156 62.2156 40.0824 61.5482C37.9493 60.8808 35.6632 60.6006 33.3835 60.7271C31.1038 60.8536 28.8854 61.3838 26.883 62.2807C24.8807 63.1777 23.1425 64.4197 21.7897 65.9202C20.437 67.4207 19.5022 69.1437 19.0505 70.9688C18.5989 72.794 18.6413 74.6775 19.1748 76.4879C19.7083 78.2983 20.72 79.9922 22.1394 81.4513C22.2804 81.596 22.427 81.7408 22.5764 81.881C22.5877 81.8902 22.5961 81.8994 22.6074 81.9085C22.9751 82.2537 23.3658 82.582 23.7779 82.8921C23.885 82.9725 23.9978 83.0552 24.1105 83.1333C24.3249 83.2896 24.5448 83.439 24.7733 83.5814C25.2193 83.8679 25.6844 84.1341 26.1664 84.3788L26.1833 84.3857C26.4963 84.5443 26.815 84.6913 27.1394 84.8315L27.2718 84.8867C27.5764 85.0154 27.8867 85.1371 28.2053 85.2497C28.2702 85.2727 28.3407 85.2957 28.4055 85.3187C28.4112 85.321 28.4141 85.321 28.4197 85.3233C29.0636 85.5414 29.725 85.7234 30.3994 85.8679C31.7214 86.155 33.0837 86.3002 34.4518 86.2999C34.9509 86.2999 35.4444 86.2815 35.9323 86.2424C37.0471 86.1586 38.1476 85.9776 39.2149 85.7024C39.2178 85.7024 39.2206 85.7001 39.2233 85.7001C39.8976 85.5251 40.5563 85.3124 41.1946 85.0636C41.1974 85.0613 41.2032 85.0613 41.2059 85.059C41.3497 85.0039 41.4879 84.9441 41.6289 84.8867L41.6967 84.8591C41.8094 84.8108 41.9222 84.7626 42.035 84.712C42.317 84.5856 42.5934 84.4523 42.867 84.3099C42.9431 84.2731 43.0164 84.234 43.0925 84.1927C43.3407 84.0594 43.586 83.9169 43.8229 83.7722C43.8653 83.7469 43.9103 83.7216 43.9527 83.694C46.5947 82.0599 48.5339 79.7861 49.4924 77.1987C50.4509 74.6112 50.3794 71.843 49.2883 69.2906Z" fill="white"/>
<path d="M39.6362 78.7752C40.9365 78.7752 41.9907 77.9162 41.9907 76.8567C41.9907 75.7971 40.9365 74.9381 39.6362 74.9381C38.3358 74.9381 37.2817 75.7971 37.2817 76.8567C37.2817 77.9162 38.3358 78.7752 39.6362 78.7752Z" fill="#2F2E41"/>
<path d="M40.2921 74.9909C40.6997 74.9909 41.1002 75.0771 41.4546 75.241C41.809 75.4049 42.1051 75.641 42.314 75.9261C42.5229 76.2112 42.6374 76.5357 42.6463 76.8676C42.6552 77.1996 42.5583 77.5278 42.3649 77.8201C42.569 77.612 42.7176 77.3715 42.8013 77.114C42.885 76.8565 42.902 76.5876 42.8512 76.3245C42.8003 76.0613 42.6828 75.8097 42.506 75.5856C42.3292 75.3615 42.0971 75.1699 41.8244 75.023C41.5518 74.876 41.2445 74.777 40.9223 74.7321C40.6 74.6872 40.2698 74.6976 39.9527 74.7624C39.6357 74.8273 39.3386 74.9453 39.0806 75.1088C38.8226 75.2724 38.6092 75.478 38.454 75.7124C38.6741 75.4872 38.9537 75.3054 39.272 75.1805C39.5903 75.0556 39.9388 74.9908 40.2921 74.9909Z" fill="#2F2E41"/>
<path d="M35.2363 76.8525C39.0562 76.8525 42.1528 74.3292 42.1528 71.2166C42.1528 68.104 39.0562 65.5807 35.2363 65.5807C31.4164 65.5807 28.3198 68.104 28.3198 71.2166C28.3198 74.3292 31.4164 76.8525 35.2363 76.8525Z" fill="#2F2E41"/>
<path d="M29.8079 67.7199C30.9997 66.6277 32.6656 65.9556 34.454 65.8453C36.2424 65.735 38.0135 66.1952 39.3934 67.1288C39.337 67.0849 39.2806 67.0408 39.2222 66.9983C37.8559 66.0009 36.0593 65.4867 34.2277 65.5687C32.3961 65.6507 30.6795 66.3222 29.4555 67.4355C28.2315 68.5488 27.6004 70.0128 27.701 71.5052C27.8016 72.9977 28.6257 74.3965 29.992 75.3939C30.0051 75.4034 30.0183 75.413 30.0315 75.4225C30.0902 75.465 30.1505 75.5052 30.2106 75.5459C28.9112 74.5386 28.1428 73.1593 28.0678 71.6992C27.9927 70.239 28.6164 68.8122 29.8079 67.7199Z" fill="#2F2E41"/>
<path d="M35.1776 76.8047C37.6378 76.8047 39.6322 75.1795 39.6322 73.1749C39.6322 71.1702 37.6378 69.545 35.1776 69.545C32.7174 69.545 30.723 71.1702 30.723 73.1749C30.723 75.1795 32.7174 76.8047 35.1776 76.8047Z" fill="#A0616A"/>
<path d="M43.149 82.6324V83.8503C42.8754 83.9928 42.599 84.1261 42.317 84.2525C42.2042 84.303 42.0915 84.3513 41.9787 84.3995L41.9109 84.4271C41.7699 84.4846 41.6317 84.5443 41.4879 84.5995C41.4852 84.6018 41.4794 84.6018 41.4766 84.604C40.8383 84.8529 40.1796 85.0656 39.5053 85.2406C39.5026 85.2406 39.4998 85.2429 39.4969 85.2429C38.4296 85.518 37.3291 85.699 36.2143 85.7829C35.7264 85.822 35.2329 85.8403 34.7338 85.8403C33.3657 85.8406 32.0034 85.6954 30.6814 85.4083C30.007 85.2638 29.3456 85.0819 28.7017 84.8637C28.6961 84.8614 28.6932 84.8614 28.6875 84.8591C28.6227 84.8361 28.5522 84.8132 28.4873 84.7902C28.1687 84.6776 27.8584 84.5558 27.5539 84.4271L27.4214 84.372C27.097 84.2318 26.7783 84.0847 26.4653 83.9262L26.4484 83.9193C25.9664 83.6745 25.5013 83.4083 25.0553 83.1219C24.8269 82.9794 24.607 82.83 24.3926 82.6738C24.2798 82.5956 24.167 82.5129 24.0599 82.4325C23.6478 82.1224 23.2571 81.7941 22.8894 81.449C22.9382 81.2096 23.0099 80.9738 23.1038 80.7435L23.1066 80.7412C23.1234 80.702 23.1432 80.6636 23.1658 80.6263C23.1813 80.5933 23.1992 80.5611 23.2194 80.5298C23.7242 79.76 24.6379 79.5693 25.7716 79.5279C26.4118 79.5049 27.1195 79.5302 27.867 79.5233C28.2618 79.521 28.6706 79.5095 29.0796 79.4797C31.6599 79.2889 31.1919 78.0481 31.3074 77.3793C31.4231 76.7313 32.1394 77.292 32.1873 77.3288L32.1901 77.3311C33.6503 77.8879 35.2658 78.1187 36.8714 77.9998C37.1478 77.9722 37.4241 77.9561 37.7005 77.9492C38.4281 77.9423 38.2702 78.1124 38.0193 78.2526C37.8975 78.3179 37.7703 78.3763 37.6386 78.4272C37.6386 78.4272 37.5229 79.0017 37.4045 79.8611C37.2917 80.6838 39.2262 81.0698 39.3869 81.0997C39.3902 81.1015 39.3942 81.1023 39.3982 81.102C40.1047 80.9527 40.8485 80.9686 41.5444 81.148H41.5472C41.9448 81.2671 42.2995 81.4653 42.5793 81.7245C42.859 81.9838 43.0548 82.2959 43.149 82.6324Z" fill="#24A4CC"/>
<path d="M28.7298 84.11C28.7298 84.28 28.7243 84.4432 28.7158 84.5972C28.713 84.6891 28.7074 84.7787 28.7017 84.8637C28.6961 84.8614 28.6932 84.8614 28.6875 84.8591C28.6227 84.8361 28.5522 84.8132 28.4873 84.7902C28.1687 84.6776 27.8585 84.5558 27.5539 84.4271L27.4214 84.372C27.097 84.2318 26.7783 84.0847 26.4654 83.9262C26.4738 83.8457 26.4879 83.7653 26.502 83.6849C26.5329 83.5079 26.5584 83.3287 26.5754 83.1518C26.6862 81.9087 26.4098 80.6629 25.7716 79.5302V79.5279C25.7152 79.436 25.6814 79.3855 25.6814 79.3855C25.6814 79.3855 26.502 78.811 27.6723 79.3855C27.747 79.4213 27.813 79.468 27.867 79.5233C28.572 80.2012 28.7637 82.4808 28.7298 84.11Z" fill="#2F2E41"/>
<path d="M41.5359 83.7974C41.5246 84.0548 41.5076 84.3237 41.4879 84.5971V84.5994C41.4852 84.6017 41.4794 84.6017 41.4766 84.604C40.8383 84.8528 40.1796 85.0655 39.5053 85.2405C39.5026 85.2405 39.4998 85.2428 39.4969 85.2428L39.466 84.5971L39.4631 84.5121L39.3137 81.3685C39.3097 81.2974 39.3234 81.2263 39.3541 81.1596C39.3847 81.0928 39.4316 81.0319 39.492 80.9803C39.5523 80.9288 39.6249 80.8878 39.7052 80.8597C39.7856 80.8316 39.8721 80.8171 39.9595 80.817H41.3892C41.4597 80.817 41.5105 80.9342 41.5444 81.1456V81.1479C41.6137 82.0303 41.6109 82.9154 41.5359 83.7974Z" fill="#2F2E41"/>
<path d="M31.3677 68.6376V72.2683H32.3993L33.7121 71.1221L33.5364 72.2683H38.0964L37.8144 71.1221L38.3784 72.2683H39.1055V68.6376H31.3677Z" fill="#2F2E41"/>
<path d="M30.6644 72.9361C30.8586 72.9361 31.016 72.7009 31.016 72.4108C31.016 72.1207 30.8586 71.8855 30.6644 71.8855C30.4702 71.8855 30.3127 72.1207 30.3127 72.4108C30.3127 72.7009 30.4702 72.9361 30.6644 72.9361Z" fill="#A0616A"/>
<path d="M39.6912 72.9361C39.8854 72.9361 40.0428 72.7009 40.0428 72.4108C40.0428 72.1207 39.8854 71.8855 39.6912 71.8855C39.497 71.8855 39.3395 72.1207 39.3395 72.4108C39.3395 72.7009 39.497 72.9361 39.6912 72.9361Z" fill="#A0616A"/>
<path d="M44.1049 83.3126C43.8681 83.4574 43.6227 83.5998 43.3746 83.7331C43.2984 83.7745 43.2251 83.8135 43.149 83.8503C42.8754 83.9928 42.599 84.1261 42.317 84.2524C42.2042 84.303 42.0915 84.3513 41.9787 84.3995V81.8672C41.9787 81.8672 42.4298 82.1613 43.149 82.6508C43.2392 82.7128 43.3323 82.7772 43.431 82.8461C43.6396 82.9886 43.8653 83.1448 44.1049 83.3126Z" fill="#24A4CC"/>
<path d="M49.2883 69.2906C48.5371 67.5322 47.3243 65.9285 45.7343 64.5913C44.1443 63.2541 42.2156 62.2156 40.0824 61.5482C37.9493 60.8808 35.6632 60.6006 33.3835 60.7271C31.1038 60.8536 28.8854 61.3838 26.883 62.2807C24.8807 63.1777 23.1425 64.4197 21.7897 65.9202C20.437 67.4207 19.5022 69.1437 19.0505 70.9688C18.5989 72.794 18.6413 74.6775 19.1748 76.4879C19.7083 78.2983 20.72 79.9922 22.1394 81.4513C22.2804 81.596 22.427 81.7408 22.5764 81.881C22.5877 81.8902 22.5961 81.8994 22.6074 81.9085C22.9751 82.2537 23.3658 82.582 23.7779 82.8921C23.885 82.9725 23.9978 83.0552 24.1105 83.1333C24.3249 83.2896 24.5448 83.439 24.7733 83.5814C25.2193 83.8679 25.6844 84.1341 26.1664 84.3788L26.1833 84.3857C26.4963 84.5443 26.815 84.6913 27.1394 84.8315L27.2718 84.8867C27.5764 85.0154 27.8867 85.1371 28.2053 85.2497C28.2702 85.2727 28.3407 85.2957 28.4055 85.3187C28.4112 85.321 28.4141 85.321 28.4197 85.3233C29.0636 85.5414 29.725 85.7234 30.3994 85.8679C31.7214 86.155 33.0837 86.3002 34.4518 86.2999C34.9509 86.2999 35.4444 86.2815 35.9323 86.2424C37.0471 86.1586 38.1476 85.9776 39.2149 85.7024C39.2178 85.7024 39.2206 85.7001 39.2233 85.7001C39.8976 85.5251 40.5563 85.3124 41.1946 85.0636C41.1974 85.0613 41.2032 85.0613 41.2059 85.059C41.3497 85.0039 41.4879 84.9441 41.6289 84.8867L41.6967 84.8591C41.8094 84.8108 41.9222 84.7626 42.035 84.712C42.317 84.5856 42.5934 84.4523 42.867 84.3099C42.9431 84.2731 43.0164 84.234 43.0925 84.1927C43.3407 84.0594 43.586 83.9169 43.8229 83.7722C43.8653 83.7469 43.9103 83.7216 43.9527 83.694C46.5947 82.0599 48.5339 79.7861 49.4924 77.1987C50.4509 74.6112 50.3794 71.843 49.2883 69.2906ZM43.4337 83.1356C43.3407 83.1954 43.2448 83.2528 43.149 83.3057C43.0559 83.3631 42.9628 83.4183 42.867 83.4688C42.7852 83.5171 42.7034 83.5631 42.6187 83.6067C42.5482 83.6458 42.4777 83.6826 42.4072 83.7193C42.1733 83.8388 41.9364 83.9537 41.6967 84.064L41.6204 84.0985C41.5132 84.1467 41.4061 84.1927 41.299 84.2386C41.2848 84.2455 41.2679 84.2501 41.2538 84.257L41.2369 84.2639C41.1016 84.3214 40.9634 84.3765 40.8252 84.4294C40.292 84.6386 39.7428 84.8198 39.1811 84.9717C39.1078 84.9924 39.0344 85.013 38.9612 85.0314C37.9509 85.2932 36.909 85.4658 35.8534 85.5462C35.3909 85.5806 34.9227 85.599 34.4518 85.599C33.1577 85.6012 31.869 85.4636 30.6193 85.19C29.978 85.0536 29.3494 84.88 28.7383 84.6707C28.6735 84.65 28.6086 84.627 28.5465 84.6063C28.5128 84.5948 28.4817 84.5833 28.4478 84.5695C28.1827 84.4753 27.9206 84.3719 27.6639 84.2639L27.5398 84.2111C27.2268 84.0778 26.9193 83.9353 26.6204 83.7837C26.5105 83.7285 26.4005 83.671 26.2934 83.6113C25.9549 83.4298 25.625 83.2344 25.3034 83.0299C25.0863 82.8966 24.8777 82.7542 24.6746 82.6071C24.5674 82.5336 24.463 82.4531 24.3616 82.3773C23.9617 82.0764 23.5832 81.7573 23.2279 81.4214C23.1095 81.3111 22.9938 81.2008 22.8838 81.0859C22.8588 81.0632 22.8352 81.0394 22.8133 81.0146C20.981 79.1306 19.8789 76.8446 19.6475 74.4481C19.4162 72.0516 20.066 69.6532 21.5142 67.5589C22.9624 65.4646 25.1434 63.7692 27.7788 62.689C30.4143 61.6087 33.385 61.1926 36.3119 61.4937C39.2388 61.7947 41.9893 62.7993 44.2127 64.3793C46.4361 65.9593 48.0316 68.0432 48.7956 70.365C49.5597 72.6869 49.4578 75.1416 48.5028 77.4161C47.5478 79.6906 45.7831 81.6817 43.4337 83.1356Z" fill="#3F3D56"/>
<path d="M34.5405 123.572C37.94 123.572 40.6958 121.327 40.6958 118.557C40.6958 115.787 37.94 113.541 34.5405 113.541C31.1411 113.541 28.3853 115.787 28.3853 118.557C28.3853 121.327 31.1411 123.572 34.5405 123.572Z" fill="#2F2E41"/>
<path d="M29.736 115.852C30.7307 115.042 30.9323 113.892 30.1863 113.284C29.4403 112.676 28.0292 112.841 27.0345 113.651C26.0398 114.462 25.8383 115.611 26.5843 116.219C27.3303 116.827 28.7413 116.663 29.736 115.852Z" fill="#2F2E41"/>
<path d="M40.9559 114.26C41.3703 113.469 40.6576 112.463 39.364 112.013C38.0704 111.563 36.6858 111.839 36.2714 112.629C35.857 113.42 36.5697 114.426 37.8633 114.876C39.1568 115.326 40.5415 115.05 40.9559 114.26Z" fill="#2F2E41"/>
<path d="M41.9031 128.286L41.1779 127.356C40.8702 126.796 40.3026 126.358 39.5994 126.138C38.8962 125.918 38.1148 125.934 37.4263 126.183C36.7377 126.432 36.1982 126.893 35.9259 127.465C35.6536 128.037 35.6707 128.674 35.9734 129.236L36.1796 129.838L36.4143 130.522C37.3644 130.424 38.3019 130.257 39.2156 130.024C39.2183 130.023 39.2208 130.022 39.2227 130.021C39.8981 129.847 40.5574 129.634 41.1958 129.383C41.1993 129.38 41.2027 129.38 41.2064 129.378C41.3485 129.323 41.4872 129.265 41.6294 129.207C41.6526 129.198 41.6752 129.189 41.6969 129.178C41.8106 129.131 41.9245 129.082 42.0347 129.033C42.1484 128.984 42.2586 128.931 42.3652 128.876L41.9031 128.286Z" fill="#CACACA"/>
<path d="M34.7357 124.011C37.6208 124.011 39.9596 122.105 39.9596 119.754C39.9596 117.403 37.6208 115.497 34.7357 115.497C31.8506 115.497 29.5118 117.403 29.5118 119.754C29.5118 122.105 31.8506 124.011 34.7357 124.011Z" fill="#FFB6B6"/>
<path d="M42.28 128.103C41.7037 127.322 40.9885 126.616 40.1576 126.006C39.5885 125.591 38.8519 125.363 38.0887 125.363H30.7298C30.3058 125.363 29.8862 125.433 29.4971 125.571C29.1079 125.708 28.7574 125.909 28.4672 126.16C28.177 126.412 27.9533 126.71 27.8099 127.035C27.6665 127.36 27.6064 127.706 27.6334 128.051C27.6495 128.245 27.6925 128.438 27.7616 128.625C27.814 128.76 27.8794 128.892 27.957 129.018L28.3196 129.609C28.3481 129.618 28.3765 129.63 28.4048 129.638C28.4119 129.641 28.4156 129.641 28.4191 129.644C28.5683 129.693 28.7178 129.743 28.8705 129.789C29.3708 129.945 29.8811 130.078 30.3993 130.189C31.2333 130.371 32.0847 130.496 32.9445 130.562C33.4458 130.6 33.9471 130.62 34.4519 130.62C34.9532 130.62 35.4437 130.6 35.9343 130.562C36.0943 130.551 36.2542 130.536 36.4142 130.522C37.3643 130.424 38.3018 130.257 39.2155 130.024C39.2182 130.023 39.2207 130.022 39.2226 130.021C39.898 129.847 40.5573 129.634 41.1957 129.383C41.1992 129.381 41.2027 129.381 41.2063 129.378C41.3485 129.323 41.4872 129.265 41.6293 129.207C41.6526 129.198 41.6751 129.189 41.6969 129.178C41.8106 129.131 41.9244 129.082 42.0346 129.033C42.1483 128.984 42.2585 128.932 42.3651 128.877C42.479 128.827 42.5856 128.772 42.6958 128.717C42.5608 128.5 42.4221 128.297 42.28 128.103Z" fill="#CACACA"/>
<path d="M32.0629 126.139C31.3819 125.88 30.6025 125.85 29.8951 126.058C29.1876 126.265 28.6097 126.692 28.2877 127.246L27.6334 128.051L27.3207 128.436L26.8443 129.021C26.9438 129.065 27.0398 129.108 27.1394 129.152L27.2708 129.207C27.5767 129.334 27.8858 129.456 28.2059 129.569C28.2413 129.583 28.2806 129.595 28.3196 129.609C28.3481 129.618 28.3766 129.63 28.4048 129.638C28.412 129.641 28.4156 129.641 28.4191 129.644C28.5684 129.693 28.7178 129.743 28.8705 129.789C29.3708 129.945 29.8811 130.078 30.3993 130.189C31.2333 130.371 32.0847 130.496 32.9445 130.562L33.1934 129.876L33.4352 129.221C33.7539 128.664 33.7884 128.027 33.5311 127.449C33.2739 126.871 32.7459 126.4 32.0629 126.139Z" fill="#CACACA"/>
<path d="M29.2466 117.077C30.4404 117.747 31.8573 118.104 33.3071 118.099C32.7899 118.391 32.2011 118.589 31.5814 118.678C33.509 119.014 35.5012 119.024 37.4333 118.704C37.8628 118.648 38.2772 118.532 38.6584 118.361C38.8483 118.275 39.0138 118.157 39.1441 118.015C39.2743 117.873 39.3665 117.71 39.4145 117.537C39.5429 116.94 38.9714 116.397 38.3774 116.031C37.4681 115.479 36.4196 115.099 35.3078 114.918C34.196 114.737 33.0487 114.76 31.949 114.984C31.2162 115.104 30.5494 115.411 30.0451 115.861C29.801 116.09 29.6537 116.376 29.6249 116.678C29.596 116.981 29.6872 117.282 29.8849 117.539L29.2466 117.077Z" fill="#2F2E41"/>
<path d="M49.2902 113.611C48.5392 111.852 47.3265 110.248 45.7365 108.911C44.1466 107.573 42.2177 106.535 40.0845 105.867C37.9512 105.2 35.6649 104.919 33.3851 105.046C31.1052 105.172 28.8867 105.702 26.8841 106.599C24.8816 107.496 23.1433 108.739 21.7905 110.239C20.4377 111.74 19.5029 113.463 19.0513 115.288C18.5997 117.114 18.6422 118.997 19.1759 120.808C19.7096 122.618 20.7215 124.312 22.1411 125.771C22.2797 125.916 22.4291 126.061 22.5784 126.2C22.587 126.21 22.5965 126.22 22.6069 126.229C22.975 126.574 23.3667 126.902 23.7799 127.211C23.8865 127.292 23.9968 127.376 24.1106 127.454C24.3238 127.611 24.5442 127.758 24.7753 127.9C24.8641 127.958 24.953 128.016 25.0455 128.071C25.4045 128.294 25.7813 128.5 26.1653 128.7C26.1719 128.7 26.1782 128.702 26.183 128.706C26.2932 128.761 26.4071 128.816 26.5208 128.868C26.6274 128.92 26.7376 128.972 26.8444 129.021C26.9438 129.065 27.0398 129.108 27.1395 129.152L27.2709 129.207C27.5767 129.334 27.8859 129.456 28.2059 129.569C28.2414 129.583 28.2806 129.595 28.3196 129.609C28.3481 129.618 28.3766 129.63 28.4049 129.638C28.412 129.641 28.4156 129.641 28.4191 129.644C28.5684 129.693 28.7178 129.743 28.8706 129.789C29.3708 129.945 29.8812 130.078 30.3993 130.189C31.2334 130.371 32.0848 130.496 32.9445 130.562C33.4458 130.6 33.9471 130.62 34.4519 130.62C34.9532 130.62 35.4438 130.6 35.9343 130.562C36.0944 130.551 36.2542 130.536 36.4143 130.522C37.3644 130.424 38.3019 130.257 39.2155 130.024C39.2182 130.023 39.2207 130.022 39.2226 130.021C39.898 129.847 40.5574 129.634 41.1957 129.383C41.1992 129.381 41.2027 129.381 41.2063 129.378C41.3485 129.323 41.4872 129.265 41.6294 129.207C41.6526 129.198 41.6751 129.189 41.6969 129.178C41.8106 129.131 41.9244 129.082 42.0347 129.033C42.1484 128.984 42.2585 128.932 42.3652 128.877C42.479 128.827 42.5856 128.772 42.6958 128.717C42.7528 128.688 42.8097 128.659 42.8665 128.63C42.9448 128.593 43.0158 128.555 43.094 128.512C43.2006 128.456 43.3074 128.396 43.4103 128.335C43.549 128.257 43.6877 128.175 43.8227 128.091C43.8683 128.067 43.9122 128.041 43.9543 128.013C46.5943 126.378 48.5321 124.104 49.4904 121.518C50.4488 118.931 50.3788 116.163 49.2902 113.611ZM43.4353 127.454C43.3428 127.515 43.2468 127.573 43.151 127.625C43.0548 127.683 42.9625 127.738 42.8665 127.79C42.7847 127.837 42.703 127.883 42.6178 127.926C42.61 127.932 42.6017 127.937 42.5928 127.941C42.5323 127.976 42.4683 128.008 42.4079 128.039C42.3652 128.06 42.3227 128.083 42.28 128.103C42.1555 128.167 42.0311 128.228 41.9031 128.286C41.8356 128.32 41.7644 128.352 41.6969 128.384C41.6721 128.396 41.6471 128.407 41.6222 128.419C41.512 128.468 41.4054 128.512 41.2987 128.558C41.2846 128.567 41.2668 128.569 41.2562 128.578C41.2495 128.578 41.2432 128.58 41.2383 128.584C41.1032 128.642 40.9646 128.697 40.826 128.749C40.2923 128.958 39.7424 129.139 39.1799 129.291C39.109 129.311 39.0343 129.334 38.9632 129.352C38.0565 129.586 37.1244 129.749 36.1796 129.838C36.073 129.85 35.9628 129.859 35.8526 129.867C35.3905 129.902 34.9248 129.919 34.4519 129.919C34.0324 129.919 33.6094 129.905 33.1935 129.876C32.324 129.817 31.4626 129.695 30.6198 129.511C29.9782 129.375 29.3496 129.2 28.7392 128.99C28.7071 128.978 28.6752 128.969 28.6432 128.958C28.6076 128.946 28.5792 128.937 28.5472 128.926C28.5116 128.914 28.4832 128.903 28.4476 128.888C28.2166 128.807 27.9855 128.717 27.7616 128.625C27.7295 128.61 27.6975 128.598 27.6656 128.584L27.5412 128.532C27.4665 128.5 27.3919 128.468 27.3207 128.436C27.0826 128.332 26.8479 128.219 26.6205 128.103C26.5351 128.06 26.4427 128.013 26.3573 127.967L26.2933 127.932C26.0942 127.822 25.8953 127.712 25.6996 127.593C25.568 127.512 25.433 127.434 25.3051 127.35C25.0883 127.217 24.8784 127.075 24.6758 126.927C24.5691 126.855 24.4625 126.773 24.3631 126.698C23.9627 126.398 23.5841 126.078 23.229 125.742C23.1117 125.632 22.9944 125.522 22.8841 125.406C22.8593 125.383 22.838 125.36 22.813 125.334C20.9803 123.45 19.8778 121.163 19.6462 118.767C19.4146 116.37 20.0643 113.971 21.5126 111.876C22.9608 109.782 25.1419 108.086 27.7777 107.005C30.4135 105.925 33.3845 105.509 36.3118 105.81C39.2391 106.111 41.9901 107.115 44.2138 108.695C46.4376 110.276 48.0334 112.36 48.7976 114.682C49.5619 117.004 49.46 119.459 48.505 121.734C47.5499 124.009 45.785 126 43.4353 127.454Z" fill="#3F3D56"/>
<path d="M60.7351 51.0663C55.2648 47.3051 48.5707 44.9205 41.4675 44.2027C34.3643 43.485 27.1582 44.465 20.7261 47.0236C14.294 49.5822 8.91316 53.609 5.23842 58.614C1.56369 63.619 -0.246524 69.3864 0.0280558 75.2145C0.302635 81.0426 2.65017 86.6799 6.785 91.4407C10.9198 96.2014 16.6637 99.8802 23.3176 102.029C29.9715 104.179 37.2486 104.706 44.2634 103.546C51.2782 102.387 57.7282 99.5911 62.8285 95.4991L108.119 126.639C108.808 127.111 109.699 127.341 110.597 127.279C111.494 127.217 112.325 126.867 112.906 126.307C113.488 125.746 113.773 125.021 113.699 124.289C113.625 123.558 113.198 122.88 112.512 122.405L112.507 122.401L67.2169 91.2613C72.4782 85.1083 74.73 77.5761 73.531 70.1407C72.332 62.7054 67.7686 55.9029 60.7351 51.0663ZM57.8155 88.2627C54.2871 91.67 49.5981 94.1482 44.3413 95.3839C39.0845 96.6197 33.4961 96.5575 28.2826 95.2052C23.0692 93.8529 18.465 91.2713 15.0522 87.7868C11.6394 84.3023 9.57131 80.0714 9.10944 75.6291C8.64758 71.1869 9.8127 66.7328 12.4575 62.8301C15.1022 58.9274 19.1078 55.7514 23.9677 53.7038C28.8277 51.6561 34.3236 50.8287 39.7606 51.3262C45.1976 51.8238 50.3315 53.6239 54.513 56.4989C60.1202 60.3542 63.6182 65.8666 64.2375 71.8235C64.8569 77.7803 62.5468 83.6937 57.8155 88.2627Z" fill="#3F3D56"/>
<path opacity="0.3" d="M18.8339 90.9538C13.5271 87.3047 10.0985 82.1628 9.22889 76.5492C8.35928 70.9355 10.1123 65.2607 14.1398 60.6515C13.6109 61.0855 13.0996 61.5401 12.6058 62.0152C10.2631 64.2775 8.49019 66.8937 7.38829 69.7144C6.28639 72.535 5.87709 75.5049 6.18375 78.4544C6.49041 81.404 7.50704 84.2754 9.17559 86.9048C10.8441 89.5342 13.1319 91.8701 15.9083 93.779C18.6847 95.688 21.8954 97.1326 25.3569 98.0305C28.8185 98.9284 32.4633 99.2619 36.083 99.012C39.7028 98.7621 43.2267 97.9337 46.4536 96.5741C49.6804 95.2145 52.5471 93.3503 54.8898 91.088C55.3824 90.6123 55.8463 90.1251 56.2814 89.6265C51.3831 93.6369 44.8129 95.9997 37.8756 96.2455C30.9383 96.4914 24.1412 94.6025 18.8339 90.9538Z" fill="black"/>
<path d="M152.04 127.803C152.394 127.451 152.649 127.04 152.787 126.6C152.924 126.159 152.942 125.699 152.838 125.252C152.734 124.805 152.511 124.382 152.185 124.013C151.858 123.643 151.437 123.337 150.949 123.115L142.694 95.5818L136.672 97.1483L145.586 124.494C145.183 125.185 145.105 125.974 145.367 126.709C145.629 127.445 146.213 128.076 147.009 128.484C147.805 128.892 148.756 129.048 149.683 128.923C150.611 128.797 151.449 128.399 152.04 127.803Z" fill="#FFB6B6"/>
<path d="M147.773 110.192L143.372 113.285L137.215 117.611L134.496 106.273L134.211 105.094L133.987 104.158L140.226 95.3027L145.427 95.5458L145.783 95.5631L145.79 95.6272L145.871 96.221L146.938 104.036L146.963 104.225L147.773 110.192Z" fill="#3F3D56"/>
<path d="M119.007 187.151L114.649 187.151L112.575 173.452L119.008 173.453L119.007 187.151Z" fill="#FFB6B6"/>
<path d="M120.119 190.593L106.066 190.593V190.448C106.066 189.266 106.642 188.132 107.668 187.296C108.694 186.461 110.085 185.991 111.535 185.991H111.536L120.119 185.991L120.119 190.593Z" fill="#2F2E41"/>
<path d="M164.51 187.44L160.152 187.44L158.079 173.742L164.511 173.742L164.51 187.44Z" fill="#FFB6B6"/>
<path d="M165.622 190.883L151.569 190.882V190.738C151.569 189.556 152.145 188.422 153.171 187.586C154.197 186.75 155.588 186.281 157.039 186.281H157.039L165.622 186.281L165.622 190.883Z" fill="#2F2E41"/>
<path d="M167.994 181.988L156.263 183.436L139.195 136.37L121.068 183.726L107.915 182.277L124.979 127.239V122.894L127.29 116.376L127.048 114.612L125.366 102.275L124.638 96.9248L124.59 96.5792C124.551 96.2892 124.645 95.9975 124.855 95.7609C125.065 95.5244 125.375 95.36 125.725 95.2997L131.2 94.3612H140.148L145.427 95.546L145.79 95.6271L145.953 95.6647L145.871 96.2209L144.634 104.674L144.567 105.137L143.372 113.286L143.109 115.073C153.419 121.156 153.774 127.239 153.774 127.239L167.994 181.988Z" fill="#2F2E41"/>
<path d="M134.593 90.6963C139.415 90.6963 143.324 87.5109 143.324 83.5816C143.324 79.6523 139.415 76.4669 134.593 76.4669C129.771 76.4669 125.861 79.6523 125.861 83.5816C125.861 87.5109 129.771 90.6963 134.593 90.6963Z" fill="#FFB6B6"/>
<path d="M143.763 113.438L126.491 115.278L126.814 117.289L144.086 115.449L143.763 113.438Z" fill="#3F3D56"/>
<path d="M103.323 115.885C103.488 115.972 103.645 116.069 103.791 116.176L120.875 112.628L122.04 109.269L128.49 110.04L127.136 116.149C127.026 116.642 126.724 117.094 126.273 117.435C125.822 117.776 125.247 117.989 124.635 118.041L104.688 119.753C104.363 120.311 103.837 120.775 103.18 121.083C102.524 121.392 101.767 121.53 101.012 121.479C100.257 121.429 99.5384 121.192 98.9522 120.801C98.366 120.41 97.9399 119.882 97.7305 119.289C97.5211 118.695 97.5384 118.064 97.7802 117.479C98.0219 116.894 98.4765 116.382 99.0836 116.013C99.6907 115.643 100.422 115.433 101.179 115.41C101.936 115.387 102.684 115.553 103.323 115.885Z" fill="#FFB6B6"/>
<path d="M129.6 97.1131L126.579 95.2302C125.762 94.9777 124.642 95.6951 124.446 96.3889L120.18 110.583L129.067 115.797L130.311 114.204L129.6 97.1131Z" fill="#3F3D56"/>
<g opacity="0.2">
<path d="M146.938 104.036C146.184 104.28 145.415 104.493 144.634 104.674C144.385 104.734 144.13 104.792 143.877 104.847C142.213 105.224 140.504 105.449 138.779 105.519C138.037 105.545 137.293 105.529 136.554 105.47C135.76 105.406 134.976 105.28 134.211 105.094C134.186 105.088 134.158 105.082 134.133 105.076C132.543 104.708 131.086 104.034 129.885 103.109C129.616 102.896 129.366 102.669 129.135 102.429C128.471 101.766 127.984 100.998 127.705 100.174C127.426 99.3492 127.36 98.4864 127.514 97.6403C127.543 97.487 127.584 97.3351 127.635 97.1855C127.768 96.7779 127.946 96.3805 128.164 95.9978C128.26 95.8182 128.367 95.6416 128.481 95.4678L132.498 94.3612H140.148L145.427 95.546L145.783 95.5634L145.79 95.6271L145.953 95.6647L145.871 96.2209L146.938 104.036Z" fill="black"/>
</g>
<path d="M127.902 77.6915C126.269 77.5284 124.477 77.6437 123.205 78.4931C121.932 79.3425 121.521 81.1082 122.726 82.0208C123.793 82.8288 125.461 82.6388 126.89 82.8685C128.121 83.0933 129.224 83.6481 130.022 84.4441C130.82 85.2401 131.267 86.2313 131.292 87.259C131.271 90.2062 127.8 92.438 127.176 95.3411C126.751 97.3225 127.776 99.4076 129.549 100.807C131.322 102.207 133.759 102.963 136.215 103.168C138.671 103.373 141.154 103.06 143.54 102.546C145.937 102.03 148.296 101.297 150.307 100.116C152.318 98.9349 153.966 97.2699 154.612 95.3197C155.257 93.3696 154.794 91.1337 153.13 89.6363C151.225 87.9218 148.056 87.3321 146.408 85.4489C144.56 83.3378 145.244 80.3315 143.749 78.0427C142.751 76.5147 140.861 75.4724 138.846 74.9234C136.831 74.3743 134.68 74.2659 132.556 74.2128C131.44 74.1848 130.29 74.1755 129.25 74.5071C128.21 74.8386 127.296 75.5943 127.242 76.5031C127.189 77.4119 127.902 77.6915 127.902 77.6915Z" fill="#2F2E41"/>
<path d="M209.645 191H74.2005C74.1062 191 74.0158 190.969 73.9492 190.915C73.8825 190.861 73.845 190.787 73.845 190.71C73.845 190.634 73.8825 190.56 73.9492 190.505C74.0158 190.451 74.1062 190.421 74.2005 190.421H209.645C209.739 190.421 209.829 190.451 209.896 190.505C209.963 190.56 210 190.634 210 190.71C210 190.787 209.963 190.861 209.896 190.915C209.829 190.969 209.739 191 209.645 191Z" fill="#CACACA"/>
</g>
<defs>
<clipPath id="clip0_12_4">
<rect width="210" height="191" fill="white"/>
</clipPath>
</defs>
</svg>
