<svg width="557" height="416" viewBox="0 0 557 416" fill="none" xmlns="http://www.w3.org/2000/svg">
<g clip-path="url(#clip0_8_2)">
<path d="M55.0175 385.487C55.2579 395.189 56.7612 404.806 59.4831 414.054C59.5435 414.269 59.6105 414.48 59.6756 414.695H76.3392C76.3217 414.503 76.3036 414.288 76.2861 414.054C75.1751 400.245 81.5224 317.197 89.1816 302.824C88.5105 303.99 53.7255 341.608 55.0175 385.487Z" fill="#E6E6E6"/>
<path d="M56.2679 414.054C56.4073 414.269 56.5521 414.484 56.7005 414.695H69.202C69.1072 414.512 68.9974 414.298 68.8701 414.054C66.805 410.025 60.6925 397.977 55.0187 385.487C48.9237 372.065 43.3271 358.134 43.7984 353.092C43.6524 354.229 39.4329 388.896 56.2679 414.054Z" fill="#E6E6E6"/>
<path d="M258.899 399.856C259.021 404.785 259.785 409.671 261.168 414.37C261.198 414.479 261.232 414.586 261.266 414.695H269.732C269.723 414.597 269.714 414.488 269.705 414.37C269.14 407.354 272.365 365.16 276.256 357.858C275.915 358.45 258.242 377.562 258.899 399.856Z" fill="#E6E6E6"/>
<path d="M259.534 414.37C259.605 414.479 259.679 414.588 259.754 414.695H266.105C266.057 414.602 266.002 414.493 265.937 414.37C264.888 412.322 261.782 406.201 258.899 399.856C255.803 393.037 252.959 385.959 253.199 383.397C253.125 383.975 250.981 401.587 259.534 414.37Z" fill="#E6E6E6"/>
<path d="M208.778 118.847L187.228 135.419L200.637 136.972L219.314 119.884L208.778 118.847Z" fill="#3F3D56"/>
<path d="M124.467 401.803L137.428 401.803L143.594 347.752L124.464 347.752L124.467 401.803Z" fill="#9F616A"/>
<path d="M121.16 397.228L146.686 397.227H146.687C151.001 397.227 155.139 399.08 158.189 402.378C161.24 405.676 162.954 410.15 162.954 414.814V415.385L121.161 415.387L121.16 397.228Z" fill="#2F2E41"/>
<path d="M116.318 208.745C116.318 208.745 110.701 215.611 120.002 242.371L118.364 389.107L148.507 388.471L155.133 316.895L167.196 212.444L116.318 208.745Z" fill="#2F2E41"/>
<path d="M86.2228 185.582C84.4419 185.577 82.733 184.821 81.4588 183.476C80.1845 182.131 79.4453 180.302 79.3979 178.377L77.9833 120.742L102.188 71.0958C102.737 69.9778 103.541 69.0298 104.524 68.3414C105.507 67.653 106.636 67.2468 107.804 67.1614L126.25 65.881L124.657 182.058L86.8227 185.554C86.6219 185.573 86.422 185.582 86.2228 185.582Z" fill="#4FD1C5"/>
<path d="M177.535 229.033L177.205 228.978C138.643 222.62 109.544 216.524 109.255 216.463L108.893 216.387L119.002 189.806C118.922 187.028 116.734 109.028 120.922 86.6178C124.978 64.9234 144.092 61.3681 146.27 61.0336L148.457 53.1989L176.088 68.7438L180.907 86.6754L181.886 135.822L177.535 229.033Z" fill="#3F3D56"/>
<path d="M139.563 154.629C121.76 154.629 107.277 133.702 107.277 107.979C107.277 82.2565 121.76 61.3296 139.563 61.3296C157.365 61.3296 171.848 82.2565 171.848 107.979C171.848 133.702 157.365 154.629 139.563 154.629ZM139.563 65.8967C124.09 65.8967 111.501 84.7748 111.501 107.979C111.501 131.184 124.09 150.062 139.563 150.062C155.036 150.062 167.624 131.184 167.624 107.979C167.624 84.7748 155.036 65.8967 139.563 65.8967Z" fill="#4FD1C5"/>
<path d="M194.177 127.879C192.932 127.878 191.701 128.156 190.561 128.696C189.421 129.235 188.397 130.023 187.552 131.011H141.109L124.097 134.926L126.89 158.217L187.406 144.146C188.408 145.37 189.678 146.302 191.099 146.859C192.52 147.415 194.047 147.578 195.541 147.332C197.035 147.086 198.449 146.44 199.652 145.452C200.856 144.464 201.812 143.165 202.432 141.675C203.052 140.185 203.317 138.551 203.203 136.921C203.088 135.292 202.598 133.719 201.777 132.348C200.957 130.976 199.831 129.848 198.503 129.067C197.175 128.287 195.688 127.878 194.177 127.879Z" fill="#9F616A"/>
<path d="M190.766 49.8985C199.508 40.4479 199.508 25.1255 190.766 15.6749C182.025 6.22429 167.853 6.2243 159.112 15.6749C150.371 25.1255 150.371 40.4479 159.112 49.8985C167.853 59.3491 182.025 59.3491 190.766 49.8985Z" fill="#9F616A"/>
<path d="M153.887 13.4402L152.802 11.079L158.262 8.14598C158.262 8.14598 164.286 -2.45003 175.185 0.527683C186.085 3.5054 190.988 5.2875 190.988 5.2875L196.435 8.25027L193.701 11.1907L198.605 12.9729L195.329 14.7326L199.141 17.1014L197.089 29.2442C197.089 29.2442 193.681 20.0343 187.129 23.5539C180.577 27.0734 168.592 21.7345 168.592 21.7345L158.18 43.5205C158.18 43.5205 156.032 35.8834 152.202 37.9198C152.202 37.9198 142.418 21.0734 153.887 13.4402Z" fill="#2F2E41"/>
<path d="M348.377 162.424L347.421 143.025L337.765 134.543L332.171 152.507L300.886 197.619C299.407 197.875 298.027 198.584 296.909 199.662C295.79 200.74 294.981 202.141 294.577 203.701C294.172 205.26 294.189 206.912 294.626 208.461C295.063 210.01 295.901 211.392 297.041 212.442C298.181 213.493 299.576 214.168 301.06 214.388C302.544 214.609 304.055 214.365 305.415 213.686C306.775 213.006 307.927 211.92 308.733 210.556C309.54 209.191 309.968 207.605 309.968 205.985C309.968 205.871 309.956 205.76 309.952 205.647L348.377 162.424Z" fill="#FFB7B7"/>
<path d="M366.97 406.92L359.572 406.919L356.052 376.066L366.971 376.067L366.97 406.92Z" fill="#FFB7B7"/>
<path d="M368.857 414.673L345.002 414.672V414.346C345.002 411.683 345.98 409.13 347.721 407.248C349.463 405.365 351.824 404.307 354.287 404.307L368.857 404.308L368.857 414.673Z" fill="#2F2E41"/>
<path d="M401.368 406.92L393.97 406.919L390.45 376.066L401.369 376.067L401.368 406.92Z" fill="#FFB7B7"/>
<path d="M403.255 414.673L379.399 414.672V414.346C379.399 411.683 380.378 409.13 382.119 407.248C383.86 405.365 386.222 404.307 388.684 404.307L403.255 404.308L403.255 414.673Z" fill="#2F2E41"/>
<path d="M393.548 81.3831C396.68 67.4004 399.334 51.6294 393.427 38.7512C389.328 29.8156 374.165 26.8065 365.473 30.0256C356.781 33.2448 350.497 41.9785 347.733 51.501C344.969 61.0236 345.291 71.2848 346.495 81.1841C362.481 80.8521 378.467 80.5201 393.548 81.3831Z" fill="#2F2E41"/>
<path d="M375.513 78.9096C384.547 73.5707 387.867 61.3252 382.928 51.5585C377.99 41.7919 366.664 38.2025 357.63 43.5415C348.597 48.8804 345.277 61.1259 350.215 70.8925C355.153 80.6592 366.48 84.2485 375.513 78.9096Z" fill="#FFB8B8"/>
<path d="M389.36 57.0739C389.419 53.6819 388.847 50.3117 387.678 47.1634C386.509 44.0151 384.766 41.1531 382.554 38.7473C380.341 36.3416 377.704 34.4412 374.799 33.1591C371.894 31.877 368.78 31.2394 365.642 31.2841C362.504 31.3288 359.407 32.055 356.534 33.4194C353.661 34.7838 351.071 36.7587 348.918 39.2267C346.765 41.6947 345.093 44.6054 344.001 47.7859C342.909 50.9664 342.419 54.3518 342.561 57.7409C358.516 57.7776 374.471 57.8142 389.36 57.0739Z" fill="#2F2E41"/>
<path d="M336.637 182.648C336.637 182.648 333.604 230.283 335.25 244.815C336.896 259.346 354.82 386.384 354.82 386.384L368.341 386.357L372.355 236.652L388.343 387.813L402.325 386.241L410.257 238.378C410.257 238.378 409.013 183.02 398.904 177.469L336.637 182.648Z" fill="#2F2E41"/>
<path d="M357.845 229.868C347.914 229.864 338.127 227.302 329.295 222.393L329.102 222.286L336.575 168.674L336.09 104.778C336.077 103.024 336.387 101.285 337.002 99.6621C337.617 98.0392 338.524 96.565 339.672 95.3254C340.82 94.0859 342.184 93.1059 343.686 92.4426C345.188 91.7793 346.796 91.4459 348.419 91.462L388.519 91.8599C390.295 91.8775 392.048 92.29 393.67 93.0716C395.291 93.8531 396.747 94.9872 397.946 96.4031C399.145 97.819 400.061 99.4865 400.639 101.302C401.216 103.117 401.441 105.042 401.301 106.955L397.549 158.179L409.959 199.755L407.802 202.855C401.986 211.242 394.444 218.049 385.773 222.738C377.102 227.427 367.54 229.868 357.845 229.868Z" fill="#3F3D56"/>
<path d="M332.061 146.586L336.263 100.229L337.613 98.1511C338.538 96.7281 339.714 95.5166 341.074 94.5863C342.433 93.6559 343.949 93.0249 345.534 92.7296C347.12 92.4343 348.744 92.4804 350.313 92.8654C351.881 93.2503 353.365 93.9664 354.677 94.9727L355.834 95.8606L354.692 142.84L332.061 146.586Z" fill="#3F3D56"/>
<path d="M504.245 373.07C515.108 369.826 519.743 387.661 508.908 391.009C498.045 394.253 493.409 376.418 504.245 373.07Z" fill="#3F3D56"/>
<path d="M444.014 396.025C454.877 392.781 459.513 410.616 448.677 413.964C437.815 417.208 433.179 399.373 444.014 396.025Z" fill="#3F3D56"/>
<path d="M419.638 207.921L419.806 207.87L447.787 290.001L451.476 288.88L423.294 206.16C423.233 204.885 422.771 203.671 421.984 202.72C421.196 201.768 420.132 201.136 418.967 200.929C404.974 198.537 399.302 211.966 399.302 211.966L399.357 212.056L427.965 296.025L431.654 294.903L403.888 213.405C412.341 204.366 419.638 207.921 419.638 207.921Z" fill="#3F3D56"/>
<path d="M451.707 400.645C447.714 400.608 443.837 399.193 440.641 396.608C437.444 394.022 435.094 390.4 433.934 386.27C428.593 367.372 415.993 322.092 414.324 309.804C412.15 293.805 424.399 289.255 424.672 289.157C425.001 289.038 429.926 287.547 436.742 285.485C448.328 281.979 465.837 276.681 466.48 276.368C469.193 275.349 472.072 274.946 474.935 275.185C477.799 275.424 480.586 276.3 483.122 277.758C485.736 279.245 488.042 281.29 489.902 283.771C491.762 286.251 493.135 289.114 493.94 292.186L511.962 361.51C513.075 365.76 512.763 370.298 511.082 374.323C509.401 378.349 506.459 381.603 502.776 383.512C488.869 390.736 468.474 400.371 451.981 400.643C451.89 400.645 451.797 400.645 451.707 400.645Z" fill="#4FD1C5"/>
<path d="M416.663 205.08L407.603 147.863L406.591 128.552L391.944 133.739L404.298 208.662C403.799 210.12 403.681 211.699 403.956 213.224C404.231 214.75 404.889 216.165 405.858 217.314C406.826 218.463 408.069 219.301 409.448 219.738C410.828 220.175 412.293 220.193 413.682 219.791C415.071 219.389 416.331 218.581 417.324 217.457C418.317 216.333 419.005 214.935 419.312 213.416C419.62 211.898 419.536 210.317 419.068 208.847C418.601 207.377 417.769 206.074 416.663 205.08Z" fill="#FFB7B7"/>
<path d="M410.081 144.274L387.219 142.929L381.848 96.2938L382.371 95.8036C383.658 94.5963 385.153 93.6758 386.771 93.095C388.388 92.5141 390.095 92.2843 391.795 92.4187C393.494 92.5531 395.153 93.0491 396.675 93.8782C398.196 94.7073 399.552 95.8533 400.663 97.2502L401.72 98.5799L401.736 98.664L410.081 144.274Z" fill="#3F3D56"/>
<path d="M503.176 372.077L479.81 286.573L424.865 303.361L424.537 302.105L480.63 284.966L480.798 285.585L504.334 371.707L503.176 372.077Z" fill="#3F3D56"/>
<path d="M87.9668 179.452L85.4787 120.796L110.964 66.9347L112.038 67.5291L86.6995 121.082L89.1725 179.392L87.9668 179.452Z" fill="#3F3D56"/>
<path d="M556.396 416H0.603467C0.443418 416 0.289923 415.931 0.176751 415.809C0.0635789 415.687 0 415.521 0 415.348C0 415.175 0.0635789 415.009 0.176751 414.886C0.289923 414.764 0.443418 414.695 0.603467 414.695H556.396C556.557 414.695 556.71 414.764 556.823 414.886C556.936 415.009 557 415.175 557 415.348C557 415.521 556.936 415.687 556.823 415.809C556.71 415.931 556.557 416 556.396 416Z" fill="#CCCCCC"/>
<path d="M127.187 162.583L121.876 145.503L120.591 88.5649L122.854 80.4865C123.669 77.5789 125.018 74.879 126.821 72.5487C128.624 70.2183 130.843 68.3054 133.346 66.9247C135.849 65.5439 138.584 64.7236 141.387 64.5131C144.19 64.3025 147.004 64.706 149.66 65.6993C152.315 66.6926 154.758 68.2553 156.841 70.2937C158.925 72.3322 160.606 74.8044 161.785 77.5623C162.964 80.3202 163.615 83.3069 163.7 86.3435C163.786 89.3801 163.303 92.4041 162.282 95.2343L150.152 128.839L150.769 130.133L177.047 129.903L186.382 148.068L127.187 162.583Z" fill="#3F3D56"/>
<path d="M294.592 284.133L294.574 284.137L265.448 290.442L240.392 301.351C240.068 301.492 239.722 301.562 239.373 301.559C239.023 301.555 238.678 301.477 238.357 301.329C238.036 301.181 237.745 300.966 237.5 300.697C237.256 300.427 237.063 300.108 236.932 299.758C236.902 299.675 236.874 299.592 236.851 299.507L218.547 233.243C218.355 232.557 218.408 231.817 218.696 231.171C218.983 230.525 219.485 230.019 220.102 229.754L245.615 218.645L245.634 218.641L274.76 212.337L299.815 201.428C300.469 201.143 301.202 201.151 301.85 201.45C302.499 201.748 303.012 202.313 303.275 203.021C303.306 203.103 303.333 203.187 303.357 203.272L321.66 269.535C321.853 270.222 321.8 270.961 321.512 271.608C321.224 272.254 320.722 272.76 320.106 273.025L294.592 284.133Z" fill="#E5E5E5"/>
<path d="M263.338 239.623C256.659 237.075 249.755 234.843 242.821 232.989L242.473 232.896L245.994 245.641L263.931 239.85L263.338 239.623ZM246.268 245.091L243.07 233.512C249.67 235.288 256.238 237.407 262.608 239.815L246.268 245.091ZM298.337 256.853C295.227 254.952 292.074 253.132 288.875 251.393C287.993 250.912 287.109 250.439 286.221 249.973C280.805 247.124 275.307 244.527 269.725 242.182L269.66 242.154L247.047 249.455L253.222 271.811L298.755 257.109L298.337 256.853ZM253.497 271.26L247.556 249.753L269.643 242.621C275.025 244.884 280.346 247.391 285.605 250.142C286.518 250.619 287.428 251.103 288.335 251.595C291.502 253.309 294.629 255.105 297.716 256.983L253.497 271.26ZM298.337 256.853C295.227 254.952 292.074 253.132 288.875 251.393C287.993 250.912 287.109 250.439 286.221 249.973C280.805 247.124 275.307 244.527 269.725 242.182L269.66 242.154L247.047 249.455L253.222 271.811L298.755 257.109L298.337 256.853ZM253.497 271.26L247.556 249.753L269.643 242.621C275.025 244.884 280.346 247.391 285.605 250.142C286.518 250.619 287.428 251.103 288.335 251.595C291.502 253.309 294.629 255.105 297.716 256.983L253.497 271.26ZM263.338 239.623C256.659 237.075 249.755 234.843 242.821 232.989L242.473 232.896L245.994 245.641L263.931 239.85L263.338 239.623ZM246.268 245.091L243.07 233.512C249.67 235.288 256.238 237.407 262.608 239.815L246.268 245.091ZM263.338 239.623C256.659 237.075 249.755 234.843 242.821 232.989L242.473 232.896L245.994 245.641L263.931 239.85L263.338 239.623ZM246.268 245.091L243.07 233.512C249.67 235.288 256.238 237.407 262.608 239.815L246.268 245.091ZM298.337 256.853C295.227 254.952 292.074 253.132 288.875 251.393C287.993 250.912 287.109 250.439 286.221 249.973C280.805 247.124 275.307 244.527 269.725 242.182L269.66 242.154L247.047 249.455L253.222 271.811L298.755 257.109L298.337 256.853ZM253.497 271.26L247.556 249.753L269.643 242.621C275.025 244.884 280.346 247.391 285.605 250.142C286.518 250.619 287.428 251.103 288.335 251.595C291.502 253.309 294.629 255.105 297.716 256.983L253.497 271.26ZM234.875 281.889L234.992 282.313L250.473 277.314L252.17 283.459L236.689 288.458L236.806 288.882L252.68 283.757L250.748 276.764L234.875 281.889ZM257.261 286.432L258.447 290.726L258.828 290.56L257.77 286.729L318.136 267.238L318.019 266.814L257.261 286.432ZM315.151 256.431L315.034 256.007L254.276 275.625L256.207 282.618L316.965 263L316.848 262.576L256.482 282.067L254.785 275.922L315.151 256.431ZM270.028 237.419C260.775 233.576 251.271 230.483 241.593 228.165L240.408 223.875L240.027 224.04L241.221 228.364L241.622 228.626C251.262 230.94 260.73 234.026 269.946 237.859L270.011 237.886L306.751 226.024L306.634 225.6L270.028 237.419ZM241.957 246.483L226.475 251.482L226.592 251.906L242.466 246.78L236.597 225.533L236.215 225.699L241.957 246.483ZM307.805 229.838L275.506 240.267L276.032 240.505C280.986 242.759 285.927 245.25 290.855 247.979C291.555 248.367 292.255 248.76 292.955 249.158C296.433 251.133 299.885 253.218 303.31 255.413L303.69 255.516L313.98 252.193L313.863 251.769L303.598 255.084C300.209 252.91 296.789 250.841 293.338 248.876C292.647 248.483 291.956 248.094 291.264 247.71C286.44 245.031 281.591 242.574 276.715 240.338L307.922 230.262L307.805 229.838ZM237.86 292.696L237.977 293.12L253.458 288.121L254.636 292.385L255.017 292.219L253.733 287.571L237.86 292.696ZM227.646 255.72L227.763 256.144L243.244 251.145L249.185 272.653L233.704 277.651L233.821 278.075L249.694 272.95L243.519 250.595L227.646 255.72ZM263.338 239.623C256.659 237.075 249.755 234.843 242.821 232.989L242.473 232.896L245.994 245.641L263.931 239.85L263.338 239.623ZM246.268 245.091L243.07 233.512C249.67 235.288 256.238 237.407 262.608 239.815L246.268 245.091ZM298.337 256.853C295.227 254.952 292.074 253.132 288.875 251.393C287.993 250.912 287.109 250.439 286.221 249.973C280.805 247.124 275.307 244.527 269.725 242.182L269.66 242.154L247.047 249.455L253.222 271.811L298.755 257.109L298.337 256.853ZM253.497 271.26L247.556 249.753L269.643 242.621C275.025 244.884 280.346 247.391 285.605 250.142C286.518 250.619 287.428 251.103 288.335 251.595C291.502 253.309 294.629 255.105 297.716 256.983L253.497 271.26ZM263.338 239.623C256.659 237.075 249.755 234.843 242.821 232.989L242.473 232.896L245.994 245.641L263.931 239.85L263.338 239.623ZM246.268 245.091L243.07 233.512C249.67 235.288 256.238 237.407 262.608 239.815L246.268 245.091ZM298.337 256.853C295.227 254.952 292.074 253.132 288.875 251.393C287.993 250.912 287.109 250.439 286.221 249.973C280.805 247.124 275.307 244.527 269.725 242.182L269.66 242.154L247.047 249.455L253.222 271.811L298.755 257.109L298.337 256.853ZM253.497 271.26L247.556 249.753L269.643 242.621C275.025 244.884 280.346 247.391 285.605 250.142C286.518 250.619 287.428 251.103 288.335 251.595C291.502 253.309 294.629 255.105 297.716 256.983L253.497 271.26Z" fill="white"/>
<path d="M268.538 241.619C270.021 246.986 264.335 261.843 264.335 261.843C264.335 261.843 252.046 252.79 250.563 247.423C249.851 244.846 250.115 242.069 251.298 239.702C252.48 237.336 254.483 235.574 256.867 234.804C259.25 234.035 261.819 234.32 264.008 235.598C266.197 236.877 267.827 239.042 268.538 241.619Z" fill="#4FD1C5"/>
<path d="M263.543 242.772C263.785 243.651 263.782 244.588 263.532 245.464C263.282 246.34 262.798 247.117 262.14 247.695C261.482 248.274 260.68 248.629 259.836 248.714C258.992 248.8 258.143 248.614 257.397 248.178C256.65 247.742 256.04 247.077 255.644 246.267C255.247 245.456 255.082 244.537 255.169 243.625C255.255 242.713 255.59 241.849 256.131 241.143C256.672 240.436 257.395 239.919 258.207 239.657C258.747 239.482 259.313 239.425 259.873 239.487C260.433 239.549 260.977 239.73 261.472 240.019C261.968 240.308 262.406 240.7 262.761 241.173C263.116 241.645 263.382 242.189 263.543 242.772Z" fill="white"/>
<path d="M265.549 268.971C266.946 268.971 268.078 267.747 268.078 266.237C268.078 264.727 266.946 263.503 265.549 263.503C264.153 263.503 263.021 264.727 263.021 266.237C263.021 267.747 264.153 268.971 265.549 268.971Z" fill="#4FD1C5"/>
<path d="M293.139 230.294L275.567 235.968C275.545 235.975 275.522 235.98 275.499 235.983L279.511 217.736C279.535 217.622 279.586 217.518 279.66 217.433C279.733 217.348 279.826 217.286 279.929 217.253C280.032 217.22 280.142 217.217 280.246 217.244C280.351 217.271 280.447 217.328 280.524 217.409L288.987 226.052L289.392 226.466L293.139 230.294Z" fill="white"/>
<path opacity="0.2" d="M293.139 230.294L287.139 232.231L288.807 226.655L288.927 226.253L288.987 226.052L289.392 226.466L293.139 230.294Z" fill="black"/>
<path d="M302.923 227.135L287.725 232.042L289.392 226.466L289.512 226.064L291.685 218.798C291.727 218.684 291.792 218.581 291.873 218.495C291.955 218.41 292.052 218.344 292.159 218.302C292.266 218.259 292.38 218.242 292.493 218.251C292.606 218.259 292.717 218.293 292.817 218.351C292.844 218.368 292.869 218.387 292.893 218.408L302.923 227.135Z" fill="white"/>
</g>
<defs>
<clipPath id="clip0_8_2">
<rect width="557" height="416" fill="white"/>
</clipPath>
</defs>
</svg>
